<mxfile host="65bd71144e">
    <diagram id="So_7OUq3uzR74_TrwX4D" name="ページ1">
        <mxGraphModel dx="1556" dy="785" grid="1" gridSize="10" guides="1" tooltips="1" connect="1" arrows="1" fold="1" page="1" pageScale="1" pageWidth="1169" pageHeight="827" math="0" shadow="0">
            <root>
                <mxCell id="0"/>
                <mxCell id="1" parent="0"/>
                <mxCell id="48" value="" style="shape=image;verticalLabelPosition=bottom;labelBackgroundColor=#ffffff;verticalAlign=top;aspect=fixed;imageAspect=0;image=data:image/png,iVBORw0KGgoAAAANSUhEUgAAAZsAAAEUCAYAAAD9fpv1AAAAAXNSR0IArs4c6QAAAARnQU1BAACxjwv8YQUAAAAJcEhZcwAAFiUAABYlAUlSJPAAAE50SURBVHhe7Z0LfBTV2f9/IhIuipe/9m3VGnZjCLior2Bb+7ZaXQikGCrd4qV/FapGIhRSKNA0rfjaUps3BV5iSMVAQKzWqqVRS6SBkFSlrfavaLVZSxqTQGtVCtVqRSpy+Z/b7M5td2cvs7NJnu/nM5/dOXtmzsyZM8/vnOc8s3PcG2++cwwEQRAE4SKD1CdBEARBuAaJDUEQBOE6JDYEQRCE6ziaszly5AgefvhB/PvgQZWSHkOHDcN1192A448/XqUQBEEQ/RlHYvPTn96P+tWr1FpmmDd/Ia6/fpZaIwiCIPozjsRmfeO9aGTL5s2tKiU9pk0rRlnZbbiFLQRBEET/h+ZsCIIgTPxm2YW45DN8uQO/UWnushsPzrwQy3ao1X4IiQ1BEISeHXdgne8JPPf7l/HcCmDdg7vVD27AReY6PLhnFG649So8uW4j9qhfUmbPRsxiQplrwuVIbI4bJLNx91cmFsFxx8lPlxA9k5k2F05cCH5x1XpWeRrLeG/J7rgI19nz4HVU94QHxLvvuciMRv1S9tulN2MeWrAj3Qb6lx504ipccalaT4gcVV2y7Gm17g6O5myefPKX+PWvt8M3yq9S0qO3txuXXXYFvnRVSKXEglfCVagvrMNzS7+g0qxwYVnctRCP/ORryI+TJuBic00Lih99GDcYfsgWvOFV4Enx/SrMe/RmdhyjxFq6cGN67erRWPH77+PzKi0VxH5659jXuai/VegsjX9NMoe+vjTGsnpL/vqJ89pWYm0TMclc2blK3GttQrYvmM7fXEfx68e+jSa3DzvE/d6sVhRF85/A/TeY7y27axqPq6LHqrV9kR6LWMeuL9d833M7921gWWbalV1dRNGdT4TU7WwyOHajHfzgA1x/w6yMLF8OXYPTz/iY2nM85NASzWsSj0QKfSlVQPb5Apby4fnv63AlnkDvX8w3gzasVqvJkD8aRWyfi1kvalbMoT9v9KmP7PbsaEFn0VgUObkm6bLjDlzCbtDXmNEQLg21PDJ/tMrgIlktm1+THPfXM0N7h1lohJfAXEfxDOZu7Nj2JyYCN0eNXdL7MCGu04X49eVsu0cXsvbPjT3fRx3OXX2VzZyLdv/FXh6ZP5bl40aZr5sNs7Z/m0WUH4t49z2zcz/5H2BpBjwurD7XNdsfozivIj8+qbImy+eXPsFGXqtwR4puxazN2Rx87wh+/oMwnv/l3+D/5FhMmPAp9UsC+NCy6E+o/0msId5u7O5idejrG1ITRTa+peah7p6n0Nr5J9YYtXV+M/KJSvtFb6DyL/0+7leNqlPcaDaNd08vXoNu/0khjcWVt/4Pitk1ad3hsi973RMAG0GZe6f5N3w/Iz3A2HhZdm7ym5/w0ewc3bkzgWS9fNiOHmIg2vZYFF+q5U9hH3q40Cz+szCslvtI3F/MOBaxzlcq7qE0jHJ8HN73KSI7gyW41NJG5b2bXqecieKyhcDqDSkFTWRFbITQ/PAV/HXXO9jxaC/WVfweu579u/o1EaNw6WSmyM1tMU5wD3rZuPbctF1RfERhb9AzEZHCh6C2xt+M2d+a/zUhIOZeiuwh2ZN/w8Oyl2UwDhLRGPX7T4YdG1DfybeV16Rz21Muzn/I6+oNXpadizyNXzcDV16uc7HsaMOTrB3dmoRIWAQrhX1EYUK1+Ak2Svqf6P7EvTMaoyJtPgnPiI6/9qZrlKOkfN8z5LaxF+tI+Gn8ZDXvDNq5uWSbTrtTnn8562g+kVLQhOtiownN/tcPqBTg8OGjePtvH6i1xORfWiLcQ7+2czOIBjsWvnPUesrwoazVqMshdfp8funLWFHKRmjXyIZi7+bSetQTTUP3FOAiZfG/qt5Ngv0LsbLx3f7mqeixiWvSGWsy00a4Lb3LRHm+gCtK2YcDQyFuSpvea6x0Yaj05dq4WpyULfZvO+kr9x+9xtZz1X6TBkX68p9crH43HHP8Y+VzIOIYTCNgzRAZDZa10xTrWhtQomAwhLq24AyrYCW/Dx2xhMo8Irl0IuuUJTNikJ6STJHOfc+3jdiiFUw02flK155czKOj3yxj7ahoIWbadSSFR0M/qrShucLQduxJvaOZEbHZvr4bP2UVs7fHKCDv/+Mjg9Acl2ppQk2B1/ZYL9SePX9mDcxu2JhBMjSk1hqPcHPZXSwxlDb1IDNJWvs3GQtxTWK4N9kIqHWy3gfPRmGsIRtuNAd5Pr+Uj97UjWorGqnQgjs+04YrIuUqV4vJEDsp+/OXMwNgI7h7HlyjM4RcaK5CPRbiEa1MNuo8V2ZVbUKOUq9coX7XjL/NfMaKUuuxonMVrl0KfF/l4e3rycXXYRYTuEgIr3aeKUTjiXvMYAijrmshdhExi22otDqJClby+9BjJ1TiOC3kwxfDdtgjRwCZvAezct/vuAOL+VzNMvvJ+9juNR2lC1kb0XV6bDonnPz80azN9eCvat0pGRGbV379Jvb2/gsP3fkidm55S6T9860P2fpLEaH57Jf8uOzqVCdX5ajD6tfNhB8yPmJIbSbBPEpkiWGkRG/SJqJDuBli9UzShhm9pWns39K7jePe5HNHhmv1Bcw032hO8ij/9goxypC9LvueYRJ0/gnnrtBP+vK2xY292TXgoGzb+UTz6FEZL71rg406l1raspno9fq+Lq8UQfOxGo1M/g1zhFB2MoGLbqtcSjFHo7Hh94DR/SLPic8Likg2IWaayNmJhawTQ2BA0vvQYz9Pa+/+GoVRhaycXocnnTFPiRX37ns5MjK4FA1I91rR5MstZRvxRb07IthBBhtZ3IDn+Nlvf8buJNtRxtxonwsV4JNFp+Lph17DYyt24dG7Xsb77xxC3ojB+OrtF+OLswNQj+tkDjGHwG60mUn0CIRvNEnMDTjmPIppSeSe0BOzZ8J7xiYRE0sy4Zvs1n7w27KuYvR84iMbs3mEF9e9aTrua1ljt+IkT7RnyA2/CHxI61kZoztIInu/dgYpftk2gqsmwaNtUu6bjzSSmTfQjLHVQNgdq36egiPzWLYVRiJZ4riVmIF8RNfG82/4H9kzNj+YqOrE1oXjdB82GOdp5XFaRwdxjt8GMWJy21OiJ8GIxBmxOuMSOapM4EIzE7FxctRtIN8XGZknQ8bM/5C84zFz2WdxVuHJ6P3DfiE0/5F/Euau/gLGXvIJlSuTaAbQvmEII2HTi5BDbfPNGYvkGmrK8JGSebIzgv1ckm0jiAVr0NyQx+75JEAN84W7RgmDWK5hPTKW/ORTxhGcnCdQcfvqeHmPVY+TPGbENeW+a3YcqYZf2rtEZe83HrHKNguu1V0hr19iv70J4WNXAqevc15n5t6Sa5FT8bEKoRJfk4vFGskWxek+EqIELdaIxNHEOLsP13FXse0EuwvEve8zhRrVpFwGH+Fn5vmfjI413up5F3//67/UGsT3Pz37plrLLKn21MVQO8mb01FDTRUevsmNtk2YbSYQRl006BTDSxlaBJt+cjKycAOsn0jXblg+/xBrZOckTyyE64rZIqduEUc47FTYlc16gLeyUY8UXOUusnFXaCMkXl9CQBzOQUXmccxLsvWWMnZCHHskaMUmkk2QzD7sMczDcI+FXcdTdZQSR6uyzms6buZkcfm+l3DPAfeApBrxFwPVEUqWjInNnj+9g/vveFZ8/8qiixD43Cdw7CjQsu5VPLTseXx44CPxW0ZItacuhqzJ9FykK8MdlAtJCUHGjQfvNbGesDhfZrBSb9AJIthUtE/8Z27UPuLiJA8nxjXp6jW5XaSRs2A3Z6EMUuIJWvuyRaAAd6Wp0PC4N/al35fzQJbjNaGCYsyjRi/4pG+sSRRizddZ24pw4dgacOf7sCK3jR6T9HLYibyz+RB+L/IRI+tQpfh0vHNcvu8jaOfEOuSPmh9MTRNLiLkzMiY2PX/Yh9M+cSK+Xnc5LrzibFz9rQkYd9lZ4rddv38LP57/DN7seU+spwXvEbALZffAXVx021kfAItP+s/w6FAiIN0hcrSQyZ5NJNSV95q4P5ztP9nzNSAMaDxDLMOEIxP7yp+rN5JyFKpWOE7yMLFYZhMNI8I7+YS4bp5ORoUZ3Vsynx3cnaXfLytH1VXUIDkvWyAE9wmsW2eO2uKwfRlGMWoUZRPUYhQWNaFvjuJj/GaZfZSQW4joI5MoyCAE4wOTEW9DpH6kcNiJAMfZPuwR7kttRC06C1aR51FuCTuX4n7U7sUMG2U9Lt/3Rnj71YQmMy4wPTICOHnXreP/RtvCluDEySpF4vcXwOfz429/PoB33/g3Pn2lH4NPMOrXr9aG8ewve9RalCu+OhpXXM+6bo7RlJqdZzIuIX6R1dwCFxrbnoQmRAlJr0HK/4VivTYuAk57UPrjt4GPWjQx0fafjsvMDBevxc0JzlvUH3+SWzVs0zHz4/k+vm38X7KEefgNYyMYMeouUrcKXi9XPMWOHdFrLvLw/S8D7tDXqaVdJFc2Rytffz0kNvuya4f6Nqj/3eb6669v5JwMxyXvFR5abmgHYl+p/C+gPAdYzi16T0pM7cRReQn2EQf9NTfWe7TOrddDQ3ddYtkFMzbXworVwEeOM4P3vcRaV/J+ZV+SKUu7Bgn+G00So205wJHYvPpqB+65pw7Hjh5VKRIuPhMnFmP48BEYMmSISrViJzjJiY1qGElVoK7inTYmgkgRe6PffxD3kk64nZDKNukSMexx7/nU7Emu46hjaEsSYpNyh8Wh2GQCTXD4g51Fn/o4im86D2ecPUL9ShB9GWm8+MOXmRpR5hzJGhnVMz835siC6ItwQeMPCqfSzrMmNpydW/fAd/7pOO1MEhmi/yB70+m/2iHXGSjnSdgjRk5pvGIgq2JDEP2JiMsmzbk8ghgIkNgQBEEQrpPRhzoJgiAIwg4SG4IgCMJ1jjv44VFyoxEEQRCuQiMbgiAIwnVIbAiCIAjXIbEhCIIgXIfEhiAIgnAdEhuCIAjCdXIuGm3fnufQtq4Yhw8dUCn2nPLxC3DpDQ/j5I+NUSkEQRBErpJzYvNK6/fE8jF//H8ffeeNl3D84GEY/dnbVIo9g4eMwJhLF2DQoMEqhSAIgsg2OSs2FxT/t0qx582uNuzb7ewVUuOv/BHO+8JitUYQBEFkm6TFZv/+fTj99DPUWubRxMYJp+dfgjNHT1Fr9mjClUi8CIIgCPdIKkDg/o3r8bOHfqrW3IW70eItZ4+dllBoCIIgiNzAsdhwofnhXcvUmvt8vODyuMtpZ49XOQmCIIhcx5HYZFtoCIIgiP5FQrEhoSEIgiDSJa7YDEyh6UHj9FEoKowuocYe9RvQ21iKoukN6O1tQEj8XorGXvWjzbZFldvVbwRBEAOXmGKzuq52gApNEMtRhZau3ejky7YqFKlfo2zGooXASpGnGWU+liTEx7RtVyNCcgOCIIgBja3YcKGpX12r1gYSPegOA6GKcnD9EPjKUV3mVysKlmfqKl0eRvu91QgHmNA8rk+fhOqaSeo7QRDEwMUiNgNXaDh+FASApnK9a8yOMfDrlQbb0doEBEqLDQJEEARBSAxiw+doBq7QcPwoe3w31oQ6sHyynHPRz9dECBQaRaW3G53so8hvGgERBEEQgojY8H8GeO+9f2He/AVxl89cconaov8SrFFzLg0zEK4J0iQ/QRBEmvTZ/0ZzSrp/V9NeOQpzOqNzMTwaraR5mmluRgUWFDWik+ZoCIIgLOSc2Pxx+w/w8rY71FpmuHDy93H+pNvVWjy2o6oSukl9q4jYiw2DR6NNrkY4pBcc8/4IgiAGJjknNh99+D527ajFsWNHVEp6HHfc8eIVAyfknahS4sHEobAMTWpNYBCPOGIjsG4fatiN6qBaIQiCGKDknNgQBEEQ/Y+YD3USBEEQRKYgsSEIgiBch8SGIAiCcB0SG4IgCMJ1SGwIgiAI1yGxIQiCIFyHxIYgCIJwHRIbgiAIwnVIbAiCIAjXIbEhCIIgXIfEhiAIgnAdEhuCIAjCdTz7I86enm74/QVqzRtee60Ly2uq8eGHH6qU9MjLy8OSyiqce26hSiEIgiA4nonN6rpaHDp0CIsWf0ulZJ/HH/sFW5owpeSLKiU9trb8CtO/HGLLV1QKQRAEwfFUbOpX1+I7312KWV+7RaVmF01sVtWuVinpsXDBfBIbgiAIGzyfs/nhXctw/8b1ao3oa/CXyRVNb0CvWidyF7pWhJd4LjZ8VJNrgvP6e39Fe+92tHZvRdfbf8bhY4dF+s43XkDjzrWW72nDXyldOApFldtVgtvwN4qy8gxLKRqzYoW8LDsHyPq1jk17Ja/7xWhX626SzbIE7Yt17UtbBlA7y0E8FxvNjZYLgsNFpfa5lbj6kem466nvYeVvf4SZv/gq9h/YJ35/6c0Xsf7FBsv3dOlt24xwYBwCTbXu3wziJixDZ2U7Ort2R5aWyjEqg4tktWwpalVZs27OyOq19gSv6111ZsqBNbo2xpc1IZWF8IScCH3mgjNv/gIhOHwuxyvWvXAvmsI/x+2X34m2m3agZWYbHvzKIxg59GR8dt2EiLiYv6c3wulBW3MHQhV1mBrowJa2HpXuBj1orNsEhBrRVOZXaRJf2QqU+dSKK3hZdq6QzWudmGANN8IrEFTrbpKdslgbm16GpkAVWmzKCtY0D5B2lpvkzHM28ysWiBEODxrYsD5D7qkk2HtgLx565QHcNP5WXFk4TaUCBaedi+GDh+OW8eUYf+bFIs38/aJPjBffU6L9HiwPz0Bx0I+JpeMQbm510afeg+6w+pp1vCw7R8jqtR549DZWiPpd83g5SFNyj5wRG87s8ttw0siRTHDuxp49u1Vqdti171UcPnoYQd9ElWKkbMJsXPTxCbbfJyjhSYX2rby3XyJ6Yb6J0xAIb0abrQXivTaTD9ri90+UZxKKuSvBgQtH+Nht5hVipVvnYsz+eWdli/3bTmLL/YcatdGA9Vy13+T8AOvhsu9N5ep3wzHHP9bIRLo2v6IWzTUk92+/bTycXuvoRH6iOk0urxn7gIF4bSh++4pX78mXFSXmORryylGjVr/OSLL8SHvQz/0kX+8DlZwRm/379+HG66/D0SNHsK5xI/LzR6lfssP7H70vPvMG54lPM+640bajld2ZoSmT5KqvWLhXlt9rbfC8V7ylVD/X0YhQU5nO+DIc5AnWsDSwMibb31ipsRmLCltQHCm3HUsCmzDHdOM5KTs4ZQZgY4R7G2uZEZuBecIFx41EEMvB3SWqzG1VKJJZlcuGl8XqtkH9XqPqWBgM47zRmpD1WBGuRslCYKXK01I5jhnQUoSYcaov1LZV52kxonYkca0FzupUkkzeOIi6MdWrqkdBgvYVt97NaGUVNVr2ZxUlBr8e+nNk1zugb9u9rdjCRs6BQqOLNibJls/rONIelDvOaVsiBDkhNprQ7N37lhCaCRd/Sv2SPc4Ydob45BP/drjiRmtvEQa0ONIVk+4VNLVYG2twhWmuYxJmMwNocMU4ycPSqsVNwb7yG4v1xgyClQrhDhQ16H3kfpQ9zo3OJtQb9u2g7OBcZijNRtjca5UuuVCFzl3iK0e1aS7IChOphdUIB6qwUpdXiqD5WMdhyaro/n1lC1ieDoSZIY5uy86zwl4cLSRzrTmO65SRTN44tN8r66bF4IZi10wTDEftywnR69BiECNWFhcRJixrLZXCrsc23Tmy6z2PtSNz2UX+RG2Ak0L5rL1N1bWH5NoSwfFcbHJBaDjjz7oY/lMLsPb5NSLcWYPP5Rw6esgFNxprrHzCPFBo8C8L9wprrK22Fohtoxv2l9QwA2zBSR5+U2g9MXYf1QRj9OacojeiGn4UBNi+u6w3XfyybYyw6LUyY3ObZhjkvvlII7mILilSgdJiQ53bH+sY+A2ZZB7Ltr5Cdr0Skcq1TqZOk6t/e+TIy1o3Zpy1r/jEug4MMeJj13arecRnvh686lk7CXel0G4zUX4ybYngeC42uSA0nMHHDcadwR+I7zc/dqMIeb5+0zWY/tBUvP3BP0Q6F5Znb91p+Z4Satgv3QPRm7doMustsWRzY5f+cOOwn7t29DjJY0YY/gbeO6/GolR7YyYjKvHDr/m1YhCrbLMRluHC0zAxUgjvuXOxUi45Vm+ORme93ehkH0Lg9HXO64xXuh7bc0qRJK+1IJk6TbH+Dai6iTcySKV92eKgLAuJroevQLhRbevSTCbKT6YtEQLPxSYXhEaj8LTR+Ok1j+Lbl92Oy0ZdgeljQ9jw5Qdw+gjpYsskwoCyHqn5WQCxcAOsn0jvbUA99/dzP3gcH3jCPLEQrit242S0N9aDHn43JsKubOUikYZDutDseqHaCInXl7jpHc5BReYTzEuy9eaQpK51XBzWqSCZvA5Ip31lBS0AJYZb0iWy3Zb6Mp6KDY88yxWh0eBhzjz0mY9crg5ch7GnnydGPZklQeRMsETMD8R/DkPtIy5O8nCkS8BCZ7fJRSFdLRbs5ixUbz4yIR4T+7JFoAA3HCpcWAYGxCC4Qs4DWY7XREwXiZukeK2TqdO06l+RUt04bV8m4pWV7HHrCN5WJUbEcxJ1OjJRvidtqW/jmdiMGDEcDQ3rc0posoYwoPEatOylRSY/bVwE8pkCtcJxkkeEaVojZdorebiqfk5EGXuTe0vms4O7s/T7ZeVwF1GgCrMjFtZ52QJhhDehvm4XqyizoWb7MhgU1YsvKrCMfozGQE3o66OYFO2VmYogUnMa2jxUstc6gpM61UgmbyxY3aySEV7GEaKqa0ftK0p8IxynLH7coUZUOz5uHWxE3CRGivYRZe2V2hxfJsrPRlvqX3gmNjNn3ZwzQtPSsiUji1PE8xa2k7pRjCHAKkqG3xzKN7wIdSZ/uZM8HB6aqfmX5TKnk4e6mp6uZqMFvq3eJ906RUWSmeFRPdsKUR/ZJxMQdsN2Wh6uc1i2QEU6hTvsDbXuPCPzCAbXBasPzfDwPJpRYefFw2Zh8rXXF861H3mkSfLXWuG4ThnJ5I0HN9Za+K9uXxD177R9xah3MzHKEmHE6big+PXlod8wzY+xZU6TbpI/E+VnuS31dTx7xUAu8MdXXsaq/12Bo0ePqpT0GDRoEBZ+czHOv+BClUKkA3+YrqR5mikUt/+TzHkP1Doi+h4DWmyIXGY7qlRP0/xfav0dEhuiP+J5NBpB2GH8xwCCIPo6JDZETsF76tzvXVIzBmuy9I/EBEG4D7nRCIIgCNehkQ1BEAThOiQ2BEEQhOuQ2BAEQRCuQ2JDEARBuA6JDUEQBOE6JDYEQRCE65DYEARBEK5DYkMQBEG4jmcPdfb0dMPvL1Br3vDaa11YXlONDz/8UKWkR15eHpZUVuHccwtVCkEQBMHxTGxW19Xi0KFDWLT4Wyol+zz+2C/Y0oQpJV9UKemxteVXmP7lEFu+olIIgiAIjqdiU7+6Ft/57lLM+totKjW7aGKzqna1SkmPhQvmk9gQBEHY4PmczQ/vWob7N65Xa0RfQ/xxps1bEYnUaK9UL+HKYJ26sU+CSBbPxYaPanJNcF5/769o792O1u6t6Hr7zzh87LBI3/nGC2jcudbyPW16GxDixiDWWw0zDn9XjDJAkUV7Za7beFm2R7QvNp2vthhfH8xFQb65dHf0LZti29Trx3afBOEBnouN5kbLBcHholL73Epc/ch03PXU97Dytz/CzF98FfsP7BO/v/Tmi1j/YoPle7r0tm1GODAOgaZa942uMF7q9bfcAKmlpXKMyuAiWS1bilpVzrwMfhyWbIues1z0r1BgnZsmIFBanEFBcGOfifCq3nPtehNmciL0mQvOvPkLhODwuRyvWPfCvWgK/xy3X34n2m7agZaZbXjwK49g5NCT8dl1EyLiYv6e3ginB23NHQhV1GFqoANb2npUuhv0oLFuExBqtLz90le2AmWuWiQvyyYIwmty5jmb+RULxAiHBw1sWJ8h91QS7D2wFw+98gBuGn8rriycplKBgtPOxfDBw3HL+HKMP/NikWb+ftEnxovvKdF+D5aHZ6A46MfE0nEIN7e66FfvQXdYfc06XpZNEITX5IzYcGaX34aTRo5kgnM39uzZrVKzw659r+Lw0cMI+iaqFCNlE2bjoo9PsP0+QQlPKrRv5b39EuFO8U2chkB4M9ps1YaNDKabfP6WOZ5EeSahOMQ+HLjrxKSyzRxSrHTNjREt2zgf4bRssX/biWy5/1CjNvKznqv2m9hHYRma2PemcvW74ZjjH2sk6EGbS1OL5qKR+7ffNhXk20nl8YZrgmK/0fO0Eg3KMJ2H7hzj7dN6ftqcUGptzEm9xyozVnuyT7c/vnjlOt1/7DrhJGrbhBNyRmz279+HG6+/DkePHMG6xo3Izx+lfskO73/0vvjMG5wnPs2440aTPvXQlEly1VcsXGnL77XeHHwEtKVUP9fRiFBTmdEoOcgTrGFpYGVMNt5s6bEZiwpbUBwptx1LApswx3RTOik7OGUGs45Wwe1trGXGZAbmCRccNzpBLIea+ObLtioUyaysHHXu7HuoQf1eo+pYGBPjvNGakPVYEa5GyUJgpcrTUjmOGbJShJixqy/UtlXnKQx/6vjKmtm+5PEG1HGZXY0W+PHp65ydf0B3rRPvk12zyPk1SzdmwvaTRr0LbMp0irhuprJVWYnLdYrN8TltL0RCckJsNKHZu/ctITQTLv6U+iV7nDHsDPHJJ/7tcMWN1t4iDGhxZJZYutLQ1GJtyMEVJmMxCbOZATS43ZzkYWnV4oZhX5kh4T01g2ClQrgDRQ36yW4/yh7nN/8m1Bv27aDs4FxmwM2CK+e1tBEgX+cuuVCFLrrKV47qRAaaG8uF1QgHqrBSl1eKoPlYx2HJquj+fWULWJ4OhJmxi27LzrPCXhytKJHV95DTEnsecKCrc3b+81i9OnbDsvqbqjs/QcL2k2q9K+zKdEj7vfK6tRgi6lh7SklUYmA5vmTaC5EIz8UmF4SGM/6si+E/tQBrn18jwp01+FzOoaOHXHCjsYbMJ8wDhYabT7jSWENute028Z5l1FiV1DADbMFJHn7DaL00do9xN0tavXO9YGr4URBg++6y3pDxy7YR3N5WbAkz43qbZljkvvlII5E70Ig0ltboLLtjHQO/IZPMY9nWV8iulxNsotHSMpTm4+OHwuot3OXwOlq3l8RrP6nWu0asMhORrag68/El016IRHguNrkgNJzBxw3GncEfiO83P3ajCHm+ftM1mP7QVLz9wT9EOheWZ2/dafmeEsKAsk/hDone3EWTWU+KJTdtNfZ6pV86iOVFjRFjxV07epzkMSMMfwPvnVdjUao9NZNgSvzwa/6VGMQq2yy4MjR8GiZGCuEjJy5W0dGCo9FZbzc62Yc2hxFdWJ3xStdje045RLrHZ7N94vaTYr1rpHrM6roV+R2OoFLFfHzJtBciIZ6LTS4IjUbhaaPx02sexbcvux2XjboC08eGsOHLD+D0EdLFlkmEAWUjgjXqpjYs3ADrJ9J7G1DP53a4PzpWb9hJnlgI1xW7qTLaU+tBD79TE2FXtnIJScGVLjS7Xq02QuL1JQyCQ7dUxK9vXjLpkulrJNF+Uq33vgq1l8zgqdjwyLNcERoNHubMQ5/5yOXqwHUYe/p5YtSTWcxzECaCJWJ+IP4zN2ofcXGShxMjLLmz2+SSke4MC3ZzFmrkFgl+iIl92SJQgLvSVGi4DAyIQXCFnAeyHK8JEYBhHTUSsUjQfpzWeyIStbN0r5vTdmyG2ktG8UxsRowYjoaG9TklNFlDGNB4hliGCUcmZn0FIuJH3+h7GyuMQ3knedhNVmUTRdNeycNG9XMiytib3Fsynx3craLfLyuHuwMDVZgdUVPnZQuE4G5Cfd0uG1Fm+zL0ptUoqqjAMvoxGgo1oW+K0OO0V2YqukjNeaQZoZZ1nLaflOo9Ns7aGbtuq2S0nXEUZT4ea7nJtWMz2WgvAwfPxGbmrJtzRmhaWrZkZHGKeLbGdlI9ijEEeBKqVWir5jdehDqTP91JHg4P29R8z3KR/51lCkVlvVa+rd5f3TpFRZKZ4VFC2wpRH9knu5lDjTb/xeWwbIGKhAp32Iuy7jwj8wwGtwarD+GOVPk0o8TOi4frwuSHry+caz/KzBg20WhsyZ2/V3HYflKt91g4bWe+cjSpUOxo+WVApG3Evt6O27EdnrWX/odnrxjIBf74ystY9b8rcPToUZWSHoMGDcLCby7G+RdcqFKIdOAP2pU0TzOFuxIE0RcZ0GJD5DLc7SYfpkv4gCNBEDmP59FoBGGH8R8DCILo69DIhsgphOtMPEjIw8L1/0pAEERfhsSGIAiCcB1yoxEEQRCuQ2JDEARBuA6JDUEQBOE6JDYEQRCE65DYEARBEK5DYkMQBEG4DoU+M17+w0v4zW92qLX0+fznL8WF/3mRWiMIgiBIbBgTLhqHgwcPqrX0GTZsGHa+5OSv/QmCIAYGnolNT083/P4CteYt540pwKyv3YKbbr5FpaTOfRvW4/6N6/Hqrm6VQhAEQXg2Z/Nk82asXPEjtUYQBEH0ZzwNEFjbcI8YBRAEQRD9G8/caKvralG/ulZ8/853lwo3lleMO68wY++04fD32nS82qXW+j/tlaMwp0m+q72a/jkzJ6BrQuQanosNFxk+uvFScL5R8XWMHDkSZ5zxMSEUnGPHjkWWZNi/fx/ee+893F33Y5XigPbFKCrnb+/MlnGQ74oxvxo3kOK7Y5I3bJktv6+g1RP4W0wNb7dkRNrAOCzZZnpzaW8DQvw120n8EzaJDZFreP6cjSYyP7xrmWcutU9/5jNYuHAxKr6xEPPmf0Ms8ysWRNZnl8/BrFk3YebMryVczjsvgHf/+U+1Z2fI10RLmupcfnc9N2o2hj5rZLl8bnSLCnPjffHiVd+czm7LNe7t2aW+daDb8mMXExpGoJDeWEr0WXLioU4uOPPmLxCCw0c82eb662di97+GYPbGXfjcD17AmMpnMbHmRSx5uBtbXnlbhDKfxEY+gwcPVltkku1o5ZY3MAOhAPsMb0aba2rTg8Y6JWy8d921O7psq0KR/MVFslw+GxHUe6aqNvgKwS+x9Rr3oK05GirftNX43n5NiAKlxSQ2RJ8lJ8SGw0cSfITDXWsb1q9Vqe7zj399hKtqX8Hn7noBD/z2Tby4518o+sQI/O61d1Hf9hdcc0+HWP75wVGceNJJmRec9hbRyw+UzkWxsLYd2NLWw7+4QA+6RRd5HJbcZnLj+MpR7boLy+vyPcZXjKlCbUyjl95WbOH1Ehgnxcgw8okKUZGf3lpK9F1yRmw4s8tvEyOI+tV3Y8+e3SrVPfa+96EYwbTv+gfmXP5JnDpiMPJPG4r6G0fjM/6TMfh4oGLS2Wh/9W1M+O//hzf++SFGnHhiZF4nfbSe/jhMneiPuFnCza22rjTpEtIvVvdQ/Dx+FChjt/xeY+/ZCDuu6XzbUjSaeuD26TqEmyxafpXhAJ2Ur5Uxig1+TKLL5y4M5xTNG1kq5X5FPYh5Ds4mzDFsp8HnjnTb2pyXVp/iPPTnpsqxHEMk3Q4//Gr41tmjOzflJgtV1EkxMox8NIGegeLI3Evi4zYQ95oQRHbIGbHhE+s3Xn8djh45gnWNG5GfP0r94h7zH+xC9/4PcN8t5+HCc4bjnQOHMa/4bCYyx2HB5E/i8BFg5LDj8ciccXj/0BHMvf/PQmjyhg5Ve0iTSI92GiZy/0iwBCGebuNK469LFpPLBpgRnR6d40mcx4+yCjVv0FSWecPTw8RABTpoNJXry3BSfjSPWXR72zYLoxyonIugMLhBLJdqkjxCuMxzR0wEJ8cw3FuZwdafGzv+UON2JjSmY2Dp8erUrkMh5+zGocCniZFu5KNGvgiVyMCAZI874TUhiOyQE2KjCc3evW8JoZlw8afUL+7xu653sfmlfRj9HyPwfM97qNv+uhjJ7Nn/b9Ru/Quefe2fQmg27tiLbR3/wNhPDMe28D+Eq23IkCE47rjj1J5SJ2I8I774SSgWamPvSuPRWtF5jnYssfSCHeQJrhDzI2KAweCGJ2HP2CFNNZsxdZtW9m6sEefC0vVBD07KtxVdzZ0kR4Ho7UYnTw5UoUV/voU8ke2ihq1HyuFRXPx3LZKLjUYW8lEPj/zSttXy24+6mph1l/vYjZbKcSItXFOG5YiWHzlf05yLgci5dak60ebsZIdDEyNtH5H5mkLuQkvhuJ1cE4LIAp6LjRdCw3ls537x+eobB4TQ8E8+kqlve12s8+W9g0fw+j//Lb6/sPtfIv+vXnlbjG4Gn3CCWE8dk/FUBG+TBjJcc4/B5eMra2ad5h6d+8Taq3eSR+ArR1PESHF4zzj93m6gss4QsqudS9SwKhKWPwmzhUHXia55FOgrkAEF4WqURFxXbFRUZpoLskPblypX1hVbNLebTbSYHE1JfGULpGBwo7+qPDJpHy/aLIrmStyEVn6+mmgWFcj9aGKk9tHbpRfYVI7b4TUhCJfxXGy8EBrO7157R8zL9Cz/LzxTNUGkLb/2XLGuLQ/MPk+kPzr3fLE+83Nn4pXXpegcfzwbBqVDIsOhGSOFnDuIHzLsJI8BZfQz1du1TGBrgoBd6LHbcZzyfROnSdFV7iZtFBiq0Iz7JFRrYqVcchkLcbYxxPaT82Pg1xlyZ/gxsVSOjPi8TeS8pmgiqcRIjOrUqMdpOU6OO9E1IQiX8FxsvBAaDo9C0ziinmsdZPKMDVaBANrvpwwbhO6/y3+HTteNphmZeETcMZEQXs0dZHSJCJzkiYHz3q42We0QrdeewFjalq9Fbgmjq40C9ZPkDG2EFDlPHgiQhOAYXHD6xdmDk6kSFdJ7sNZyXpoYdaC7TdWfNl+jkc5xO7wmBJFpPBUbHnnmhdBwzjl9mPrGRilKZRL9l8L7Hx7D/zkpE6HP27G2hhsZZkcabIxGgzaJ3iINp/ZQn97oRMRF4SQPn1TXBRRotN+rjaY0ohPV+nmA3sbauKOmpnK9odfmFxiRY3JaPkcLFOjAlnvvkaNA07lV6aLVgjVqfspJj93WBSfhQRauT55Hyt+EJn5epoc1ff4x4rOz2TTqSeG4E18TgsgOnonNiBHD0dCw3hOh4Zz7H0Px+5534V/yO1xWvVOkLXnkNbGuLV+9VwoC/+TrG3b8DUX/MUKkHT58WHymhBZhZO6pa2h+e82Vpj0MGHEXcXdbF4r0oxYneTjcUGm/q0WLYAs1RHvGkfkH3f5KmsfIB09jEGJlyRBjvmjzRaZnahyWL1D1EG7axAyk9dmczpqgbj+qPG1OhxNxGZlDnyehOiLouvpiS4nqBGSGaIiyUQi0QBCJ5WFN7bzD/Fh4lJpIZSR/3I6uCUFkAc/EZuasmz0TGs6MT31MfF486iTxLE0BG+mMyDtefNeWM07KEwv//oWiU0X+Gz77cRw5cgTNm59AS8sWy9Ld/ZrIF4/I39PE7F1qE+TMpnBXGncXaUZGIP8jq1itCZzk0e3XiIxuMvyHVnBFJOpKwvb3+FzEfQPRFJttuvT/85VE+QJdfr2IcCJCooP/K8Hj0Ql7g3E2Y4qK0+DRfNn4LzFfYbQerPNBWhABw3zeyR53wmtCENlhwL6p8/CRY+w+fAkv//V98RxN51sHsOjh13DvzCJMPv//4NW/HUBp7cv4Zkk+pl90Or5S34Ehg4GOuy7B/3v2GWxoXKf2ZGX06CJ85/Y71BqRDjzogY98+vufdBJEf2dAvxb6b+/8G59bthP/PnwECyd/Endvfx2fODkPzQsvxG0bO8U/C9x5lV+EQ7//4WFsXTQe49lIiMgS/Ml38UCiHKVlYcBBEIRLDGix4ez5x0H83zVh8Z9oGl+5+GP4xQt/V2tAwceGYcPN5+HTBSNVCuEmfLJbPwdBf5NPEH2fAS82HO5S+9lzb+Hh5/7ORjNvi7SThx2Pz/hPQckFp+KmS8/C0BM8jxIfMOjFhoSGIPoHJDYEQRCE61B3nSAIgnAdEhuCIAjCdUhsCIIgCNchsSEIgiBch8SGIAiCcB0SG4IgCMJ1SGwIgiAI1yGxIQiCIFzHs4c6e3q64ffH/Q9h13nttS4sr6nGhx9+qFLSIy8vD0sqq3DuuepF+ARBEITAM7FZXVeLQ4cOYdHib6mU7PP4Y79gSxOmlHxRpaTH1pZfYfqXQ2z5ikohCIIgOJ6KTf3qWnznu0sx62u3qNTsoonNqtrVKiU9Fi6YT2JDEARhg+dzNj+8axnu37herRF9Df6nmUU2r3omsgtdByLX8Vxs+Kgm1wTn9ff+ivbe7Wjt3oqut/+Mw8fkK6B3vvECGneutXxPm94GhPhre03vlXeP6OuKo0spGrNiqbwsO/vwl79FX0dtgr+vh52/8ZXRCtUmQo09KsFF1HHYLbbHRhAp4LnYaG60XBAcLiq1z63E1Y9Mx11PfQ8rf/sjzPzFV7H/wD7x+0tvvoj1LzZYvqdLb9tmhAPjEGiqdd/oCsNShs7KdnR27Y4sLZVjVAYXyWrZUtS8NpbBKfy11JvQanMcvT27xKd49beZ3i6EMQ5TJ2br7aTy1dz668JfP91ZzkXHTixzo36JvkNOhD5zwZk3f4EQHD6X4xXrXrgXTeGf4/bL70TbTTvQMrMND37lEYwcejI+u25CRFzM39Mb4fSgrbkDoYo6TA10YEubmz3ZHjTWbRLv6je/YtlXtsLl99J7WbaHBEsQYh+dPebrKq+7oKnFYszbt7K6CkzDRC/rxVeOpq52LAlswhxy0RFpkjPP2cyvWCBGODxoYMP6DLmnkmDvgb146JUHcNP4W3Fl4TSVChScdi6GDx6OW8aXY/yZF4s08/eLPjFefE+J9nuwPDwDxUE/JpaOQ7i51cWbugfdYfU163hZtpf4URCA9br2tmJLmI0mKvnIZxd6DD/2oKeTfRQVwHsN9qOsgh1juBpraRRDpEHOiA1ndvltOGnkSCY4d2PPnt0qNTvs2vcqDh89jKBvokoxUjZhNi76+ATb7xOU8KSC6MGGSsT79X0TpyEQ3ow2W7VhI4PpJp+6ZY4nUZ5JKObdbAfuOjHXYDOHFCvdOhdjdr04K1vs37YXLfcfncOwnqv2m5wnKUMT+94k3EBsMRxz/GONTLZrc2lq0VxGcv/221qRnQiEu0xiw91kY+Av4yMf04hWCBFrFlMmqQROovrVcJovCdToTHP3Ja5fJ22VGGjkjNjs378PN15/HY4eOYJ1jRuRnz9K/ZId3v/offGZNzhPfJpxx422Ha3sjo0YFV+xcKUtv9fmxmQjoC2l+rmORoSayowTyA7yBGtYGjNuyydn0gBsxqLCFhRHylWuF5Ohc1K2mOOwEdzexlpm3GZgnnDBcWMWxHJUoUUrc1sVimRWVo46d/adv1Za/F6j6lgIiHHeaE3Ieqy8J1+yEFip8rRUjmOGtRQhZkTrC7VtnbmYRCfCNG8T7WSokU+XXmzkfE2BNqxxeswOr0PyyGNEZ7c4z8T1y65NUaM6BpWXtUOKlhvY5ITYaEKzd+9bQmgmXPwp9Uv2OGPYGeKTT/zb4Yobrb1FGNDiyDv2VS/YxoeP4ArTXMckzGYG0OCecZKHpVUzA7BGdFWZAWC9zrQjnsIdKGpYIUZnEj/KHufGaBPqDft2UHZwLjOQZsFV8xtqBMjXuUsuVFEedTP5ylFtmguywkRqYTXCgSqs1OWVImg+1nFYsiq6f1/ZAiGUYSZw0W01F1Os0ajCVyCEMBoIIDsZgUK+H+s1N87XJHHMjq+DW0SPtUUTHwG77qwzECBX3IDGc7HJBaHhjD/rYvhPLcDa59eIcGcNPpdz6OghF9xo7MbkE+aBQoNf3q4XHIX36KOuiZIaNcFswEkebqxkr5Mb/nBNMM1ep14wNWx67Ir4ZdsIrja/cZtmwOS++Ugjueg9KVKB0mLTXIjdsY6B35BJ5rFs6ytk1ysRyoWoRgbo7UanLtLMeM2VEEXKSeaYk7sOSZNwDinWsTLEqF0vuMRAw3OxyQWh4Qw+bjDuDP5AfL/5sRtFyPP1m67B9Iem4u0P/iHSubA8e+tOy/eUUH554a5RwiCWyaxnyJLNN6X0kxvdE9y1o8dJHjPC8DfICeBFqfZ+TYIp8cOv+bViEKtss+DK0HB9ZBbvsXOxUi45Vm+ORmfCyLPiuMDp65zXGa90PbbnlDp696DlfNTIR0SsqWMs8qtRTNrHnPg6JEaJiBiJxcF87AShw3OxyQWh0Sg8bTR+es2j+PZlt+OyUVdg+tgQNnz5AZw+QrrYMokwOKwnukaJgmHhBlg/kd7bgHo+t8P94wb3hA4neWIhXFfMoGWi9xtBRVQlwq5sXznmsZGAFFzpQrPrLWsjJF5fwhg7nIOKzDOYl2TrLRnEJHsHunuVS9AwSpAjH+7ubFftwjxCSf2YHV6HeAh3bzaf+SH6I56KDY88yxWh0eBhzjz0mY9crg5ch7GnnydGPZnFPAdhQhmm+M/c6J7TiImTPBzZc7WguX0iSBePBbs5C9uIKjvsyxYjAe5KU6HhMjAgBsEVch7IcrwmPHXlKNff1nvE+ZrrRY58utDaZWoXyRxzWtchBnzCv3wTApV1iZ+Fines6R4H0efxTGxGjBiOhob1OSU0WUMY0Hg3XrSnK2yHZYKZ3buNFUY3ipM8IizWGpnUXsnDWPVzIprxM7q3ZD47uDtLv19WDncHBqowO2I1nZctEIK7CfV1u4zGV8D2ZQq1jfVcitHwqQl9cxQfo70y3YgtDTVnZpkD0+aiNpmCQhRi7of9xudrDO6qZI7ZyXWIdXxWRAg42x6V7abAkyiW+l1VhQAP/jBcH3UcoUZUm8+bGDB4JjYzZ92cM0LT0rIlI4tTRLSR7WRuFGMIsIrmURFcfFmEOtN8jJM8HB4KK3/XljmdPIS42dhzZaMFvq1+rqB1iookM8Ojj7YVoj6yTyYgzLB0Pq6LFhM4LFugIunCHfairDvPyDyVOQJKuCNVPs34sfPiYdIwzYHUF861H2VmEDkXxbCbW1GjAh4FZ3FXOT1mx9fBjuj8l7aUNE8ToeX2QhOjfsW/DqhQ58i+VNi2m25KIufx7BUDucAfX3kZq/53BY4ePapS0mPQoEFY+M3FOP+CC1UKkQ68Zy0MniNjSRBELjOgxYbIZbjbTfaIY7lwCILoO3gejUYQdhj/MYAgiL4OjWyInEK4zsSDqDwsXP80PEEQfRkSG4IgCMJ1yI1GEARBuA6JDUEQBOE6JDYEQRCE65DYEARBEK5DYkMQBEG4DokNQRAE4TokNgRBEITrkNgQBEEQrpNzD3Xu2/Mc2tYV4/ChAyrFnlM+fgEuveFhnPyxMSqFIAiCyFVyTmxeaf2eWD7m/4JKseedN17C8YOHYfRnb1Mp9gweMgJjLl2AQYMy/QI0giAIwik5KzYXFP+3SrHnza427Nv9G7UWn/FX/gjnfWGxWiMIgiCyTdJis3//Ppx+eubfya+hiY0TTs+/BGeOnqLW7NGEK5F4EQRBEO6RVIDA/RvX42cP/VStuQt3o8Vbzh47LaHQEARBELmBY7HhQvPDu5apNff5eMHlcZfTzh6vcmYa/tKuUajKzAvpTbi5b4IgiNzFkdhkW2gIgiCI/kVCsSGhIQiCINIlrtgMNKFprxyFosIyNLHvTeX8O1sqt8sfBdINJtLFshhGj1gPGqfrfx+FUGOP+CX+vmNvRxAE0R+IKTar62oH3IgmWLMbnV2NCLHvoQb+nS01k+SPvQ0IMbHorGyX6WxZE9qEORHB4YIRxHJUoUX93rmtCkXit3j7jr8dQRBEf8BWbLjQ1K+uVWuEEISF1QgHqrCyzK/SuIBw8diEejEK6UF3mAlJRTl88mfAV45qXX57Ut2OIAii72ARGxIaO6QgBEqLo4Ig8KMgAIS7uNjI703lpWjslb86I9XtCIIg+g4GseFzNCQ0NvR2o5N9hGuChnmVosIgljMRkvhR9jh3rXVg+eRk5l1S3Y4gCKLvEPkHAf7PAE4e2PzMJZfg05++RK1lHqd/V+OU5P9BgAcBlAENu1EdVEl8vmZyNYr0aYloX4yi8k1gyhGd97Hbtxnb7QiCIPo2kZEN/wua+RULEi5uCk3O4ivGVO7q2qqPTEtAcAUbrbDPzm4k5R1LdTuCIIgcJuf+iPOP23+Al7fdodYyw4WTv4/zJ92u1hIhRx9N5pGFGnEEKtvRpJu8b69cDNSsQJBvVwlUR7ZRUWZF1pGNcd9OtiMIgujb5JzYfPTh+9i1oxbHjh1RKelx3HHHi1cMnJB3okpxgObK4uiFQbnTItM0jKj4KCGRyRI7V5hl33C2HUEQRB8m58SGIAiC6H/EfKiTIAiCIDIFiQ1BEAThOiQ2BEEQhOuQ2BAEQRCuQ2JDEARBuA6JDUEQBOE6JDYEQRCE65DYEARBEK5DYkMQBEG4DokNQRAE4TokNgRBEITrkNgQBEEQruPZH3H29HTD7y9Qa97w8h9ews033YiDBw+qlPQYNmwYNtz3AC78z4tUCkEQBMHxTGxW19Xi0KFDWLT4Wyol+/y4vo4td2N2+VyVkh5rG+7B1+d9gy0VKoUgCILgeCo29atr8Z3vLsWsr92iUrOLJjZPPfM7lZIel1/2XyQ2BEEQNng+Z/PDu5bh/o3r1RrR1+htLEXR9AZ6hTVBEHHxfGTDRzVcbLwY4dSvvhv3/LgOl112uUpJj2eeeQpzv16BefO/oVIcor0BNGtv6LR5qyjGYcm2ZpT51KpDuNiUNE9Dy+PlcLZp5sruM4i3s+7q3+doQ3vlKMxpmoE1Xfy16ZlH7l+t2NLP21Ufw/ORjSYyXoxwPvroI/HJRSITC0fbZzL0tm1GODAOgaZaNLo9ROCGjxn7zsp2dHbtjiwtlWNUBhfJatlc1Eahql2t9ln6wnl4c4zBmmgb6uxqRIil8de0R9MyITT9pR15T06EPnPBmTd/gRAcPuLJFj6fD5/+9CX47e+ez8jC98X3mRw9aGvuQKiiDlMDHdjS1qPS3aAHjXWbADaCairzqzSJr2yFyz1AL8smvECKgTujGqLvkTPP2cyvWCBGONy1tmH9WpXqLmPGjEXptC9h2PDhMZcThgxRuV2i/R4sD89AcdCPiaXjEG5udXH+owfdYfU163hZNkEQXpNTD3XOLr8NJ40cKeZS9uzZrVLdY8zY8zDj6msxdOjQmMsJJ5ygcrtD+1be2y8RvT/fxGkIhDejzVZt2Mhg+igUsSF9ZKncrn7TSJRnEoq5r8GBu477w637j52uuRuiZS+G0fPgrGyxf9uAA7n/UKM28rOeq/ab2IeaF2oqV78bjjn+sUaCHvhcmi6f5kqR+7ff1inRwArTseiOM93zEJjOQZQp3JmlhutgPWft9/htKt4x2gePOGnHzurHGYnqKNV2FHs7wp6cEZv9+/fhxuuvw9EjR7CucSPy80epX9xjR8/TuPGh62Iu+w/sUzndYjtaWUsOTVFBAb5i4Upbfq/NDcVGQFtK9f7oRoSayowN3EGeYA33bbMyJutvnHTZjEWFLSiOlNuOJYFNmGO6sZ2UHZwyA7AR3N7GWnbTz8A84YLjN3oQy1GFFq3MbVUoklmV+0b68EMN6nct8EIYU+O80ZqQ9VgRrkbJQmClytNSOY4ZnFKEmIGpL9S2VedpMagO4WXo642dQ0B3vdI+D55ncjWgn8eo6EJJOevg2MKuY+Sc1XxHgjYV9xjNiGNm162o0bI/qygxEtRPQhLWUartKP52hD05ITaa0Ozd+5YQmgkXf0r94i75p7LeyPkzcOKQE/HJU87BF8dciRFDRmDUaT6RPvyEESqnS7S3CANaHHFqS1camlpMvS9GcIVprmMSZjMDaHC7OcnD0qrZzbFGjDLYTZ6JHlm4A0UNet+8H2WP85t0E+oN+3ZQdnAuM+BmwZXzWtoIkK9zl1yoQhcB5ytHtWkuyAozEgurEQ5UYaUurxRB87GOw5JV0f37yhawPB0IMwMT3ZadZ4W9ODqDR0vp6o2dwzxWN4ldqU7Owz4PbyNcOG1hdTpVd84CR23KCdHjaTGIEWsTXESYsKy1NPpU64fjrI5SbUepbTew8VxsvBIazjmn5uPLTFSGDRmOM08+U4hN3uChLP0ckT6cpbsHuxn4hHmg0HBzC1cauxlaLTceh22jG7qX1DADbMFJHn7TyR4ZN/zhmqB9z9IxesHU8KMgwPbdZRITRvyybQS3txVbwszw3KYZKblvPtJILnpPGolAabHRoNoe6xj4DZlkHsu2vkJ2vVLFXAbfHTv3cFdCsUl8HrHysDL8saL/rMcjcdam4hP7eOSInl3PrebRbqr1w3FSR6m2o1S3G9h4LjZeCY0T3nv3XXxw4IBayzDCgLJP4SqI3shF/Hkblmy+8aT/2OiCMPdQneQxIwx/A++dV2OReZThFJNgSvzwJ/ArxCrbLLgyNHwaJkYK4SMnLlbKJcfqzdHorLcbnexDCJy+znmd8UrXY3tOGSbVMpych8pT5E+it21zPKm0KVsydDyOcXStU2xHKW83sPFcbHJVaNxGGFA2IlijbmDDwg2wfiK9twH1fG6H+43j+MMT5omFcF2xG9NmFJI6Pejhd3si7MpW7hIpuNKFZtcj1kZIvL6EUXE4BxXxv5uXZOvNY1w/j3TaVI7gpI5SbUepbjdQ8VRseOSZ10Lz5ntv4N2D/8RJeSeJ9ZF5I9G9vxtHjh1B3tChIi3zmOcgTARLxPxA/Gdu1D7i4iQPR7ocLHR2m9wVMqDBgt2chRq5RYIfYmJftggU4K40FRouAwNiEFwhXHLW4zUR013Tx3ByHnHyiAjIlHHapkzEO2bHbSUJUrnWTtuRmVS3G2B4JjYjRgxHQ8N6z0c09z2/HnnH52Hy6C+K9dLAl/C3d1/Hr/7UjLy8PAx2I/RZGNB4N5cME45MhPoKRKSL/sbpbawwun6c5BFhoObQT+4q4eGd+jkRZexN7i2Zzw7uTtDvl5XD3YGBKsyOqKnzsgVCcDehvm6XjSizfRl6kWoUVVRgGf0YjY2a0LeJaGqvtB5baqj5jbTmwKwkfx72eXhIcfy/eNHhqE1FMR6jGXY8q2Q0mXEEoNpKqBHVtj2vVHFSR6m2I+fbEVE8E5uZs272XGiefPWXeP2dv+CU4afiwZ0/QePv1+KZ7qdx6rDTsHVXixAd/qzN00//Gm1trQkXp8iepd2kehRjCLCK2OE3qvI9L0KdyXfuJA+Hh37K37VlTicP4TT9tYeKWtL7vFunyEl9CzzCaFsh6iP7ZALC/+fN8n9pDssWqKincIe9KOvOMzKnYHD1sPoQ7kiVTzMO7Lx4mCpMvvz6wrn2o0zPSeM8eB7NxaN+L+laIN20jnDapmIcoxlfOZq0UGe1P95WRGiyG246J3VkOJYk2lHC7Qgznv0Rp9e888HbKF53Od7/979UipX/yv88Nlz3AH75xGNo+kVi18OgQYOw8JuLcf4FF6oUIh14Lzy5P/kkHCH+GBSu/UEmQdgxYMXmB6134tFXfob7r30IZ51ytkqN8vM/PIzVv63F3Vf9GFPGTFWpRPbgbjfZ6zX/lxqRHjzCTIwoScSJLDJgxeaqjVNx8NAHCBYUqxQjR48dwU923oeZF9+M70xcqlKJbCFGNTVjqPedBrwO1/qbDXMhQmia+MOS9Nf7RHYZsGLz4Iv3Y9XTy3HgUOznaM48+Szcd+2D4p8GiOwgRYZHO7n3HpQBg3CXmd2/VK+ENwxYsSEIgiCyh+cPdRIEQRD9HxIbgiAIwnVIbAiCIAjXIbEhCIIgXIfEhiAIgnAdEhuCIAjCdUhsCIIgCNchsSEIgiBcx7OHOnt6uuH3F6g1b3j5Dy/h5ptuxMGDB1VKegwbNgwb7nsAF/7nRSqFIAiC4HgmNqvranHo0CEsWvwtlZJ9flxfx5a7Mbt8rkpJj7UN9+Dr877BlgqVQhAEQXA8FZv61bX4zneXYtbXblGp2UUTm6ee+Z1KSY/LL/svEhuCIAgbPJ+z+eFdy3D/xvVqjehr8D/OzPRbKQmC6H94PrLhoxouNl6McOpX3417flyHyy67XKWkxzPPPIW5X6/AvPnfUCkO6W1ASL0aNztv+5PvijG+HTi1v51P/gVnmSu7r5DodQmpvl9Gvi4g/r84yzxqxRZ63QCRHTwf2Wgi48UI56OPPhKfXCQysXC0fSZDb9tmhAPjEGiqRaPbQwT+t/Paq3i7dkeWlsoxKoOLZLVsLmqjUCVfNj9AsJ5zsCZaz538lcwsLWCo/0wIzUCsayJZciL0mQvOvPkLhODwEU+28Pl8+PSnL8Fvf/d8Rha+L77P5OhBW3MHQhV1mBrowJa2HpXuBj1orNsEsBGU+e2XvrIVLvduvSy7fyKFhN5NQ/QNcuY5m/kVC8QIh7vWNqxfq1LdZcyYsSid9iUMGz485nLCkCEqt0u034Pl4RkoDvoxsXQcws2tLs5/9KA7rL5mHS/LJgjCa3Lqoc7Z5bfhpJEjxVzKnj27Vap7jBl7HmZcfS2GDh0acznhhBNUbndo38p7+yWid+qbOA2B8Ga02aoNGxlMH4WiQt1SuV39ppEozyQUcz+KA3cd9/Vb9x87XXOlRMteDKNXxVnZYv+2AQdy/6FGbeRnPVftN7EPNS/UVK5+Nxxz/GONBD3wuTRdPs1NJPdvv20miAZdmI7TVO/64IzE5xyPRNcu1bqOvR0x8MgZsdm/fx9uvP46HD1yBOsaNyI/3/1XMe/oeRo3PnRdzGX/gX0qp1tsRyu7S0NTVFCAr1i40pbfa2Mk2AhoS6ne196IUFOZ8eZ1kCdYw/32rIzJeqOQLpuxqLAFxZFy27EksAlzTEbLSdnBKTMAG8HtbaxlBm0G5gkXHDdiQSxHFVq0MrdVoUhmVe4lOT8RalC/a4EXQkCM80ZrQtZjRbgaJQuBlSpPS+U4ZkxLEWLGs75Q21adpxvReLx8fZ2y8wuYr7eOuOccj4T1kWpdx9+OGHjkhNhoQrN371tCaCZc/Cn1i7vkn8p6WufPwIlDTsQnTzkHXxxzJUYMGYFRp/lE+vATRqicLtHeIgxoccTpLl1paGqx9paDK0xzHZMwmxlAg9vNSR6WVs1u/DVilFGWmd5muANFDfq5Az/KHucGaBPqDft2UHZwLjPgZsGV81raCJCvc5dcqEIXveUrR7VpLsgKM4ALqxEOVGGlLq8UQfOxjsOSVdH9+8oWsDwdCDPjGd2WnWeFvTimD48S09UpO795rN4y62Z1Uh+p13Vq2xH9Fc/Fxiuh4Zxzaj6+zERl2JDhOPPkM4XY5A0eytLPEenDWbp7sBudT5gHCg3hrsKVxm70VovacHhvMeqSKKlhBtiCkzzcoMjeJjf84Zpgms/K6AVTw4+CANt3l1XI4pdtI7i9rdgSZsb3Nq2nLvfNRxrJRe9JAxgoLTbUuf2xjoHfkEnmsWzrK2TXyw3M5fOiWL2EuzIqNonrI9W6TnU7or/iudh4JTROeO/dd/HBgQNqLcMIA8o+hbskKg5F/Hkblty01ehmkr7xIJYXNUqXBFu4a0ePkzxmhOFv4L3zaixKdYRjEkyJH/4EPpNYZZsFV4aGT8PESCF85MTFSrnkWL05Gp31dqOTfQiB09c5rzNe6XpszymLZKN8R/WRYl2nvB3RX/FcbHJVaNxGGFA2IlijRMGwcAOsn0jvbUA9n9vhPvFYfngneWIhXFfM6NiMQlKnBz3ckiXCrmzlMpKCK11o1t53dITE60sYTIdzUJG5BfOSbL05xOfnzxHtQk+8Hn5RgWfi5qQ+Uq3rVLcj+h+eig2PPPNaaN587w28e/CfOCnvJLE+Mm8kuvd348ixI8gbOlSkZR7zHISJYImYH4j/zI3aR1yc5OFId4qFzm6Ty0YGNFiwm7NQI7dI8ENM7MsWgQLclaZCw2VgQAyCK4RLznq8JkQAhnXU6Dpxr6cpSCSbpFIfTuvaTKrbEf0Gz8RmxIjhaGhY7/mI5r7n1yPv+DxMHv1FsV4a+BL+9u7r+NWfmpGXl4fBboQ+CwMaz8DIMOHIZLCvQETx6I1Cb2OF0fXjJI8IcbWG6rZX8tBV/ZyIMvYm95bMZwd3lej3y8rh7sBAFWZH1NR52QJhoDehvm6XjSizfRl6yGoUZTM6MBpSNaFvE9XVXmk9ttRQc2aGeSgVqMF69san7Hledv6Gekof5+LhpD5SrWvn2xEDA8/EZuasmz0Xmidf/SVef+cvOGX4qXhw50/Q+Pu1eKb7aZw67DRs3dUiRIc/a/P0079GW1trwsUp4tka20n1KMYQ4EmoVqGvml99EepM8zFO8nB4WKv8XVvE/3KZ/7aE9UT5tnp/fusUOalvgRnLlm2FqI/skxlQ/j9vlv/6cli2QBnocIe9KOvOMzJPZXCDsfoQ7kiVTzN87Lx4CC5058WX+sK59qPMDOEraxaupMizKGIJylD1JP8TLTYxzjkeTuoj1bpOuB0xkPDsjzi95p0P3kbxusvx/r//pVKs/Ff+57HhugfwyyceQ9MvuEDEZ9CgQVj4zcU4/4ILVQqRDsn/ySdBELnKgBWbH7TeiUdf+Rnuv/YhnHXK2So1ys//8DBW/7YWd1/1Y0wZM1WlEtmDu93kw4bm/1IjCKLvMWDF5qqNU3Hw0AcIFhSrFCNHjx3BT3beh5kX34zvTFyqUolskehv+QmC6FsMWLF58MX7serp5ThwKPZzNGeefBbuu/ZB8U8DRHaQIsMj6OK/p4UgiL7FgBUbgiAIInt4/lAnQRAE0f8hsSEIgiBch8SGIAiCcB0SG4IgCMJ1SGwIgiAI1yGxIQiCIFyHxIYgCIJwHRIbgiAIwmWA/w98tdW4OLJs2QAAAABJRU5ErkJggg==;" vertex="1" parent="1">
                    <mxGeometry x="484.5" y="80" width="411" height="276" as="geometry"/>
                </mxCell>
                <mxCell id="5" value="" style="shape=image;verticalLabelPosition=bottom;labelBackgroundColor=#ffffff;verticalAlign=top;aspect=fixed;imageAspect=0;image=data:image/png,iVBORw0KGgoAAAANSUhEUgAAANsAAADaCAYAAAAv3zflAAAAAXNSR0IArs4c6QAAAARnQU1BAACxjwv8YQUAAAAJcEhZcwAAFxEAABcRAcom8z8AAA/jSURBVHhe7dwLdJTlncdxurrHWCRA7vfL5EYmySQhkdwIIYRLCKBcohIkUgKEawCh4C04NiLQQjmibVWUWkCghdrqaQGFuhakQtFV1uNW12N32x4XLYUCsQoGyLPP/5137JAlFUN4monfzzn/M4nGc+Z9/f3e533fufQAAAAAAAAAAAAAAAAAAAAAAAAAAAAAAAAAAAAAAAAAAAAAAAAAAAAAAAAAgEtTSt2wZ8+eqKi+AbFRAQGxydFBMV1tonv0iIm+/vqYl3fvTtDPN8J+6kDXt2/fvtiGWdMLq0dVjps6aeL8iqKCRkdYkDshJMjtiAi5v6tNQkgfPUH3Vw4a2LRwVv29k6vH3T6irGTwqLKizCfWrAmxNwvoOrZv337Nxo1Ppjc13rO4ZuyY5wtcznec8THHkiPDjjvCQ07IJHXB8T63lMjwv2Y54o8XZmf+cVB+7oHSXNf3J44dM+W7K1dmrd60qade9b5mbyrwz6ODGDCvvm7s+KqRGypKCt4qyHJ+qoOrkiNClCM8WKVEhXkmsgtOVLj13BxhwUqXT7mS4lV2ikNlJsYezUl1HCzOdW2pKi/7pvveewv1dv6rvcmAeW63O/DuRfNHT6gavrPIldEi4U0I6WsFNyki1O9Gr3Ke565HCtgvNkoVZWf+fvzI4Y8vmF0//kePPRbNKod/ium1NSPGV43YVZjl/CQtOsIKaKIeK7RtQtxV51LP01u45MhQq3A5KY4TZQPyD82bNvXOI4cOJdqbD1x9u9atu65h5kxnVXnpwwMynWfS46KtFe1S4U0IDVLxwX1UXBcceV7y/No+b9/nLweQVL1iZycnqtK83DeHFA5YGt77OgoHM+bW1gZXj6pcqK/PjiTra59LlSxel08CLWGWv0nRK5/nGqmLjH4+8rwSw4JUTN9eKqr3DSo2KNBamX23xTvyt7LSJUeGv+mMj1k8ZlhpIqeUuOoKc3OTi7NdO7KTEs9KsdoGVAomK52cgulCqmEDi1VVeZmqLCvtMiPPZ3hpiVyTqX4xkbpovVVs38B2VzrP6XGwSouObMnrl3rk1tFVc5577rkoe5cAnU8fza8dVlo6JDMx4Q1nbLR1xPeGUx4TQj03SIpzstSCWfXq8UcfUZuf/qHatnmT2rppY5cZeT7P/Ohptf77j6rVyx9Ui+bMVjcPq1DOhFgV3jNAhd9w/UUHEc82hljFzEl2qLIb835TM+6miXp//Iu9a4DOdfTo0dA7am6bnZkY/751I8EOo4yEMy64typyZaj7vrlIvX74t+rcuXPq/HmZ811y5PmdPXNWvf/ee2qLLt+MOyZbBwrPKabnhs9F2xkeal3D6e1vLc3P3drU1JTx8svua+3dA3Se/fv3u+bW163NSU36yPemiGdVC9I/B6tpt9eowwcPqpaWz/SB33/85dgx9cbrr6mNT61XU267RWU64q3T4URru/6+wslIGQuzMv6nbvIkd9OSJSn27gE6z4s7d5YsnF2/Ic+Zety3bFI0WQXkrt3yZY3q4+ZmO8L+59Spk+qFX/5SzZ1Rp1xJCSo6sOfn2+ktnGyrKynx3JDCAW/eMWFsjf7PAuxdBHSOvbt3F+myre+fnvIX37LJ3Uf5uSg7S61Z8ZA6dfKkJ7l+quWzz9S+f3tJ1d4y3nq3iWyfZ+W2Tyf1JOvpFxf9SUVR4fpvL3fn6//sGns3AVduz65dhQtmzXiivbKV5OaotatWqhPHj3tS68eam09bN1PGVJRbLw1E65HTR2/ZpHzye1FO1h9vHTu6acuWLbx5GZ3ni8pWnOOyVrbuUDbxvx98oL7d9C2lr1H/30sDciopr9nl6n83uDD/NXlL1xOrVvW2dxVwZb5qZWttbbVOJ2dNneK5ftOrm3WH0l7dZOR0sn966unqUZXbG2bPKLd3FXBlvmplE389cULt2LZFjSwbqCJ6ff2iazfZZvldXsC/MaPfsZuGVTS++OyzYfbuAjruq1g28Yf//r361n13q3xnmoqTd5vo8RbOKp292pXkZr80f8aMiW+//fYN9i4DOuZyyyarQXciL34fPviqaqifbt0UiQz8+kVl874Wp8v4t6ohZT9tvOvObHuXAR1zOWWTu5HNfvw62z/y8x3bVVX5IJUU6bkb6d1+61GXUD44m+dM+1Nl2cCGvLw87k6i4y6nbKsfWq4++vBDdebMGXX69Cl1+pQeefTjaT59Wn38cbM6+JsDaumCefr6LF3F9L30pwRSoiP+lpee+kJVeVntKrc7bs2aB2PlkengrHLHPbxqVZx76dKYcePGhd05bVrQoV27AvWxr3u/Ta69snlvGsi7/O9ZvMi6g3dg36/Vz3b8RD37k23Woz+PrGjP/+yn6sfPbFbL7lqiBuX3t8rme7NExi5fqysp4bQu268XzJn5yNIFDWsXzp25junY3Dln1iOL58/53sxvTP7OyMGDFo+rGjHzgfvuvm3XrudyW1tbe9rR7H7aK5v3CC+nUWOGDrGubeZOr1M1425WE8eOsR79eSaN94y8Z7J69EiVl55mreZtVzbZH/JSgDM+RhW5Mlv0Keex0RXlH8oj07EZNaTs2Oihg48PLSn4QO/3/xiQ6Tw0bGDRnuGDip8aM3TwXdNqa6u2bt0abke0+2ivbL4jL/SmyodF7Q9odqfxbpv83Ha7fUcK5/1bpnNG9qf9/6FVzwVHROg5fbp+8qZhFb+aPmVy/eLFc+J1RLvPR56+qGzyu3zMJiqwpzUxfXp1q4nWI7f9L3Wt5juyH+RvZB8xnTPWHV+9X7371vulTLpwn5YX3PjWiLKS5VlpCWl2VP3f5axsDGNqvAXMSXGoQlfGH0rzsh+qvqnSacfVv32Zsn1+dNc7hGE6Y6wVzSdz8rP396ykBFWcm/XBzSOH3rtp0w/kXTz+/R0xX6Zs8u/ljp28n5BhOmOsO8A6V7458x7U5RP0ruREpU8p906puXVsXV1dLzu2/umLyiYXsPKtWnK9Jhe0+c5+qiTXpQb2z5a3MjFMh8aTH5eVJ8mV5Ety5nujSgonj/kZqR+OGFTyg5lTpiTYsfVPl3ODRL6PUe4eyUsASxY0qIfcy9TKpgfUigfuZ5gOjeRHciR5klxJviRnvvnz/uxKir9Q4Mp4ta6mpsiOrX/6R2WTc+pIfcTJT0+zvq3q5zt2WN/p8e7v/lP917vvqHff+R3DdGis/OgcSZ4kV5IvyZnkTXLnzaCsdPINaK6khPdvGz160oEDB/z3VLK9ssmjbLQs7bW3TFCvvvKKOn/hgucNhUAnklxJviRnni8CvvigLy8JZDni/3RHdXXjK3v3Ouzo+p/2yua9UyTvrHhwWaM69uc/27sG6HySL8mZ5M17x/vzg77OZW5a0rF50+q+t2fnznw7uv6nvbJ534hcmper1q3+jvXGXeBqkXxJziRvkjvJn2/Z5NvfFs6pf+qlF14otqPrf76obPKu/++uXNHtPs+GrkXyJTmTvF2qbJJPyank1Y6u/7mcsnXHT2qja5F8Sc4oG2XDVUbZKBsMoWyUDYZQNsoGQygbZYMhlI2ywRDKRtlgCGWjbDCEslE2GELZKBsMoWyUDYZQNsoGQygbZYMhlI2ywRDKRtlgCGWjbDCEslE2GELZKBsMoWyUDYZQNsoGQygbZYMhlI2ywRDKRtlgCGWjbDCEslE2GELZKBsMoWyUDYZQNsoGQygbZYMhlI2ywRDKRtlgCGWjbDCEslE2GELZKBsMoWyUDYZQNsoGQygbZYMhlI2ywRDKRtlgCGWjbDCEslE2GELZKBsMoWyUDYZQNsoGQygbZYMhlI2ywRDKRtlgCGWjbDCEslE2GELZKBsMoWyUDYZQNsoGQygbZYMhlI2ywRDKRtlgCGWjbDCEslE2GELZKBsMoWyUDYZQNsoGQygbZYMhlI2ywRDKRtlgCGWjbDCEslE2GELZKBsMoWyUDYZQNsoGQygbZYMhlI2ywRDKRtlgCGWjbDCEslE2GELZKBsMoWyUDYZQNsoGQygbZYMhlI2ywRDKRtlgCGWjbDCEslE2GELZKBsMoWyUDYZQNsoGQygbZYMhlI2ywRDKRtlgCGWjbDCEslE2GELZKBsMoWyUDYZQNsoGQygbZYMhlI2ywRDKRtlgCGWjbDCEslE2GELZKBsMoWz655LcHLV21UrKhqtK8iU5k7x127Lt3b27aOHs+vXtla0oO8s64pw6edLeLUDnk3xJziRv7ZVNcip5taPrf17cubNEb8SGPGfqcd+yJYQGqcSwYJWdnKiWL2tUHzc327sF6HySL8mZ5E1yJ/nzLZvkU3IqebWj63/279/vmltftzYnNekj37JZG2ltcLCadnuNOnzwoGppabF3DdB5Wlo+s/IlOZO8Se4uyqHOpeRTcip5taPrf5qPHg2trbl1TmZi/PtJ9gZ6R44wccG99dKeqRqXLFavHz6szp07p86fP68uXNCjH+Vnhvmy8/fsnFP//tphK1+SM8mb5M43h5JLyafkVPJqR9f/6APLtcNKS4dkJia84YyNVsmRYW1WN8+5c3FOlppd9w21bs1qtXHDk+rHz2xW2zZtVFsZpgOzbfMmtfnpH6rHH31ELZhVb+VLSiV58+ZPRvKYHhOlMhLi3pCcSl7t6Pqnwtzc5OJs147spMSzsqFtjyzWObReyhNCg5VLn1NXFA1Qo4YMViMHD1KVZaUM86WnqrxMDRtYrAqynKpfbJSdL891mm/uHBEhqn9aytlB+f13lBUWJtuR9V9za2uDq0dVLtQbfsR3ZfOO/C53h2L6Bqq4oD7WP0uNjlApUeEM07HR+ZGsScHigvt8fvfbN3dStmT9t4ML8o/Mmjpl4YoVK4LtyPqvXevWXdcwc6azqrz04QGZzjPpcdHWkabtxnt3gOwY2UEMcyUTr8f3Zoh35HfJX7pe8QZkOT+dUFX58GPr1jnfa229zo6s/6ufPLFy/MgRuwuznJ+k6SOPQxfLWsovsTMYpjOmba6svOmR/EkOJY+SSzui3Yfb7Q68e9H80ROqhu8scmW0yHIvR5i2dykZ5qqMzpnkTXIn+ZMcSh7dDQ2BdkS7F6VUwLz6urHjq0ZuqCgpeEtfx32a5YhXyfpC1REerHdEmGf0+TbDXNHYWZJcSb4kZ5I3yZ3kT3IoebSj2T1t3779mo0bn0xvarxncc3YMc8XuJzvOONjjukL2uN6qT8ho49CDHNF482S5EryJTmTvEnuJH+SQzuS3d++fftiG2ZNL6weVTlu6qSJ8yuKChodYUHuhJAgtyMi5H6GuZKxcqTzJLmSfEnOJG+SOzuCX02tra29fvWLX0RH9g2IiwwIiEuK6hvLMFcykiPJk+RK8mVHDQAAAAAAAAAAAAAAAAAAAAAAAAAAAAAAAAAAAAAAAAAAAAAAAAAAAAAAAAAu0qPH/wHuZytPzU9dPAAAAABJRU5ErkJggg==;" parent="1" vertex="1">
                    <mxGeometry x="40" y="40" width="40.18" height="40" as="geometry"/>
                </mxCell>
                <mxCell id="7" value="backend" style="text;html=1;strokeColor=none;fillColor=none;align=left;verticalAlign=middle;whiteSpace=wrap;rounded=0;fontFamily=Noto Sans JP;fontSource=https%3A%2F%2Ffonts.googleapis.com%2Fcss%3Ffamily%3DNoto%2BSans%2BJP;fontSize=18;fontColor=#000000;" parent="1" vertex="1">
                    <mxGeometry x="90" y="40" width="109.82" height="40" as="geometry"/>
                </mxCell>
                <mxCell id="14" value="" style="shape=image;verticalLabelPosition=bottom;labelBackgroundColor=#ffffff;verticalAlign=top;aspect=fixed;imageAspect=0;image=data:image/png,iVBORw0KGgoAAAANSUhEUgAAANsAAADaCAYAAAAv3zflAAAAAXNSR0IArs4c6QAAAARnQU1BAACxjwv8YQUAAAAJcEhZcwAAFxEAABcRAcom8z8AAA/jSURBVHhe7dwLdJTlncdxurrHWCRA7vfL5EYmySQhkdwIIYRLCKBcohIkUgKEawCh4C04NiLQQjmibVWUWkCghdrqaQGFuhakQtFV1uNW12N32x4XLYUCsQoGyLPP/5137JAlFUN4monfzzn/M4nGc+Z9/f3e533fufQAAAAAAAAAAAAAAAAAAAAAAAAAAAAAAAAAAAAAAAAAAAAAAAAAAAAAAAAAgEtTSt2wZ8+eqKi+AbFRAQGxydFBMV1tonv0iIm+/vqYl3fvTtDPN8J+6kDXt2/fvtiGWdMLq0dVjps6aeL8iqKCRkdYkDshJMjtiAi5v6tNQkgfPUH3Vw4a2LRwVv29k6vH3T6irGTwqLKizCfWrAmxNwvoOrZv337Nxo1Ppjc13rO4ZuyY5wtcznec8THHkiPDjjvCQ07IJHXB8T63lMjwv2Y54o8XZmf+cVB+7oHSXNf3J44dM+W7K1dmrd60qade9b5mbyrwz6ODGDCvvm7s+KqRGypKCt4qyHJ+qoOrkiNClCM8WKVEhXkmsgtOVLj13BxhwUqXT7mS4lV2ikNlJsYezUl1HCzOdW2pKi/7pvveewv1dv6rvcmAeW63O/DuRfNHT6gavrPIldEi4U0I6WsFNyki1O9Gr3Ke565HCtgvNkoVZWf+fvzI4Y8vmF0//kePPRbNKod/ium1NSPGV43YVZjl/CQtOsIKaKIeK7RtQtxV51LP01u45MhQq3A5KY4TZQPyD82bNvXOI4cOJdqbD1x9u9atu65h5kxnVXnpwwMynWfS46KtFe1S4U0IDVLxwX1UXBcceV7y/No+b9/nLweQVL1iZycnqtK83DeHFA5YGt77OgoHM+bW1gZXj6pcqK/PjiTra59LlSxel08CLWGWv0nRK5/nGqmLjH4+8rwSw4JUTN9eKqr3DSo2KNBamX23xTvyt7LSJUeGv+mMj1k8ZlhpIqeUuOoKc3OTi7NdO7KTEs9KsdoGVAomK52cgulCqmEDi1VVeZmqLCvtMiPPZ3hpiVyTqX4xkbpovVVs38B2VzrP6XGwSouObMnrl3rk1tFVc5577rkoe5cAnU8fza8dVlo6JDMx4Q1nbLR1xPeGUx4TQj03SIpzstSCWfXq8UcfUZuf/qHatnmT2rppY5cZeT7P/Ohptf77j6rVyx9Ui+bMVjcPq1DOhFgV3jNAhd9w/UUHEc82hljFzEl2qLIb835TM+6miXp//Iu9a4DOdfTo0dA7am6bnZkY/751I8EOo4yEMy64typyZaj7vrlIvX74t+rcuXPq/HmZ811y5PmdPXNWvf/ee2qLLt+MOyZbBwrPKabnhs9F2xkeal3D6e1vLc3P3drU1JTx8svua+3dA3Se/fv3u+bW163NSU36yPemiGdVC9I/B6tpt9eowwcPqpaWz/SB33/85dgx9cbrr6mNT61XU267RWU64q3T4URru/6+wslIGQuzMv6nbvIkd9OSJSn27gE6z4s7d5YsnF2/Ic+Zety3bFI0WQXkrt3yZY3q4+ZmO8L+59Spk+qFX/5SzZ1Rp1xJCSo6sOfn2+ktnGyrKynx3JDCAW/eMWFsjf7PAuxdBHSOvbt3F+myre+fnvIX37LJ3Uf5uSg7S61Z8ZA6dfKkJ7l+quWzz9S+f3tJ1d4y3nq3iWyfZ+W2Tyf1JOvpFxf9SUVR4fpvL3fn6//sGns3AVduz65dhQtmzXiivbKV5OaotatWqhPHj3tS68eam09bN1PGVJRbLw1E65HTR2/ZpHzye1FO1h9vHTu6acuWLbx5GZ3ni8pWnOOyVrbuUDbxvx98oL7d9C2lr1H/30sDciopr9nl6n83uDD/NXlL1xOrVvW2dxVwZb5qZWttbbVOJ2dNneK5ftOrm3WH0l7dZOR0sn966unqUZXbG2bPKLd3FXBlvmplE389cULt2LZFjSwbqCJ6ff2iazfZZvldXsC/MaPfsZuGVTS++OyzYfbuAjruq1g28Yf//r361n13q3xnmoqTd5vo8RbOKp292pXkZr80f8aMiW+//fYN9i4DOuZyyyarQXciL34fPviqaqifbt0UiQz8+kVl874Wp8v4t6ohZT9tvOvObHuXAR1zOWWTu5HNfvw62z/y8x3bVVX5IJUU6bkb6d1+61GXUD44m+dM+1Nl2cCGvLw87k6i4y6nbKsfWq4++vBDdebMGXX69Cl1+pQeefTjaT59Wn38cbM6+JsDaumCefr6LF3F9L30pwRSoiP+lpee+kJVeVntKrc7bs2aB2PlkengrHLHPbxqVZx76dKYcePGhd05bVrQoV27AvWxr3u/Ta69snlvGsi7/O9ZvMi6g3dg36/Vz3b8RD37k23Woz+PrGjP/+yn6sfPbFbL7lqiBuX3t8rme7NExi5fqysp4bQu268XzJn5yNIFDWsXzp25junY3Dln1iOL58/53sxvTP7OyMGDFo+rGjHzgfvuvm3XrudyW1tbe9rR7H7aK5v3CC+nUWOGDrGubeZOr1M1425WE8eOsR79eSaN94y8Z7J69EiVl55mreZtVzbZH/JSgDM+RhW5Mlv0Keex0RXlH8oj07EZNaTs2Oihg48PLSn4QO/3/xiQ6Tw0bGDRnuGDip8aM3TwXdNqa6u2bt0abke0+2ivbL4jL/SmyodF7Q9odqfxbpv83Ha7fUcK5/1bpnNG9qf9/6FVzwVHROg5fbp+8qZhFb+aPmVy/eLFc+J1RLvPR56+qGzyu3zMJiqwpzUxfXp1q4nWI7f9L3Wt5juyH+RvZB8xnTPWHV+9X7371vulTLpwn5YX3PjWiLKS5VlpCWl2VP3f5axsDGNqvAXMSXGoQlfGH0rzsh+qvqnSacfVv32Zsn1+dNc7hGE6Y6wVzSdz8rP396ykBFWcm/XBzSOH3rtp0w/kXTz+/R0xX6Zs8u/ljp28n5BhOmOsO8A6V7458x7U5RP0ruREpU8p906puXVsXV1dLzu2/umLyiYXsPKtWnK9Jhe0+c5+qiTXpQb2z5a3MjFMh8aTH5eVJ8mV5Ety5nujSgonj/kZqR+OGFTyg5lTpiTYsfVPl3ODRL6PUe4eyUsASxY0qIfcy9TKpgfUigfuZ5gOjeRHciR5klxJviRnvvnz/uxKir9Q4Mp4ta6mpsiOrX/6R2WTc+pIfcTJT0+zvq3q5zt2WN/p8e7v/lP917vvqHff+R3DdGis/OgcSZ4kV5IvyZnkTXLnzaCsdPINaK6khPdvGz160oEDB/z3VLK9ssmjbLQs7bW3TFCvvvKKOn/hgucNhUAnklxJviRnni8CvvigLy8JZDni/3RHdXXjK3v3Ouzo+p/2yua9UyTvrHhwWaM69uc/27sG6HySL8mZ5M17x/vzg77OZW5a0rF50+q+t2fnznw7uv6nvbJ534hcmper1q3+jvXGXeBqkXxJziRvkjvJn2/Z5NvfFs6pf+qlF14otqPrf76obPKu/++uXNHtPs+GrkXyJTmTvF2qbJJPyank1Y6u/7mcsnXHT2qja5F8Sc4oG2XDVUbZKBsMoWyUDYZQNsoGQygbZYMhlI2ywRDKRtlgCGWjbDCEslE2GELZKBsMoWyUDYZQNsoGQygbZYMhlI2ywRDKRtlgCGWjbDCEslE2GELZKBsMoWyUDYZQNsoGQygbZYMhlI2ywRDKRtlgCGWjbDCEslE2GELZKBsMoWyUDYZQNsoGQygbZYMhlI2ywRDKRtlgCGWjbDCEslE2GELZKBsMoWyUDYZQNsoGQygbZYMhlI2ywRDKRtlgCGWjbDCEslE2GELZKBsMoWyUDYZQNsoGQygbZYMhlI2ywRDKRtlgCGWjbDCEslE2GELZKBsMoWyUDYZQNsoGQygbZYMhlI2ywRDKRtlgCGWjbDCEslE2GELZKBsMoWyUDYZQNsoGQygbZYMhlI2ywRDKRtlgCGWjbDCEslE2GELZKBsMoWyUDYZQNsoGQygbZYMhlI2ywRDKRtlgCGWjbDCEslE2GELZKBsMoWyUDYZQNsoGQygbZYMhlI2ywRDKRtlgCGWjbDCEslE2GELZKBsMoWyUDYZQNsoGQygbZYMhlI2ywRDKRtlgCGWjbDCEslE2GELZKBsMoWyUDYZQNsoGQygbZYMhlI2ywRDKRtlgCGWjbDCEslE2GELZKBsMoWz655LcHLV21UrKhqtK8iU5k7x127Lt3b27aOHs+vXtla0oO8s64pw6edLeLUDnk3xJziRv7ZVNcip5taPrf17cubNEb8SGPGfqcd+yJYQGqcSwYJWdnKiWL2tUHzc327sF6HySL8mZ5E1yJ/nzLZvkU3IqebWj63/279/vmltftzYnNekj37JZG2ltcLCadnuNOnzwoGppabF3DdB5Wlo+s/IlOZO8Se4uyqHOpeRTcip5taPrf5qPHg2trbl1TmZi/PtJ9gZ6R44wccG99dKeqRqXLFavHz6szp07p86fP68uXNCjH+Vnhvmy8/fsnFP//tphK1+SM8mb5M43h5JLyafkVPJqR9f/6APLtcNKS4dkJia84YyNVsmRYW1WN8+5c3FOlppd9w21bs1qtXHDk+rHz2xW2zZtVFsZpgOzbfMmtfnpH6rHH31ELZhVb+VLSiV58+ZPRvKYHhOlMhLi3pCcSl7t6Pqnwtzc5OJs147spMSzsqFtjyzWObReyhNCg5VLn1NXFA1Qo4YMViMHD1KVZaUM86WnqrxMDRtYrAqynKpfbJSdL891mm/uHBEhqn9aytlB+f13lBUWJtuR9V9za2uDq0dVLtQbfsR3ZfOO/C53h2L6Bqq4oD7WP0uNjlApUeEM07HR+ZGsScHigvt8fvfbN3dStmT9t4ML8o/Mmjpl4YoVK4LtyPqvXevWXdcwc6azqrz04QGZzjPpcdHWkabtxnt3gOwY2UEMcyUTr8f3Zoh35HfJX7pe8QZkOT+dUFX58GPr1jnfa229zo6s/6ufPLFy/MgRuwuznJ+k6SOPQxfLWsovsTMYpjOmba6svOmR/EkOJY+SSzui3Yfb7Q68e9H80ROqhu8scmW0yHIvR5i2dykZ5qqMzpnkTXIn+ZMcSh7dDQ2BdkS7F6VUwLz6urHjq0ZuqCgpeEtfx32a5YhXyfpC1REerHdEmGf0+TbDXNHYWZJcSb4kZ5I3yZ3kT3IoebSj2T1t3779mo0bn0xvarxncc3YMc8XuJzvOONjjukL2uN6qT8ho49CDHNF482S5EryJTmTvEnuJH+SQzuS3d++fftiG2ZNL6weVTlu6qSJ8yuKChodYUHuhJAgtyMi5H6GuZKxcqTzJLmSfEnOJG+SOzuCX02tra29fvWLX0RH9g2IiwwIiEuK6hvLMFcykiPJk+RK8mVHDQAAAAAAAAAAAAAAAAAAAAAAAAAAAAAAAAAAAAAAAAAAAAAAAAAAAAAAAAAu0qPH/wHuZytPzU9dPAAAAABJRU5ErkJggg==;" parent="1" vertex="1">
                    <mxGeometry x="80.18" y="80" width="40.18" height="40" as="geometry"/>
                </mxCell>
                <mxCell id="15" value="tests" style="text;html=1;strokeColor=none;fillColor=none;align=left;verticalAlign=middle;whiteSpace=wrap;rounded=0;fontFamily=Noto Sans JP;fontSource=https%3A%2F%2Ffonts.googleapis.com%2Fcss%3Ffamily%3DNoto%2BSans%2BJP;fontSize=18;fontColor=#000000;" parent="1" vertex="1">
                    <mxGeometry x="129.82" y="280" width="290" height="40" as="geometry"/>
                </mxCell>
                <mxCell id="16" style="edgeStyle=orthogonalEdgeStyle;html=1;entryX=0;entryY=0.5;entryDx=0;entryDy=0;fontFamily=Noto Sans JP;fontSource=https%3A%2F%2Ffonts.googleapis.com%2Fcss%3Ffamily%3DNoto%2BSans%2BJP;fontSize=18;endArrow=none;endFill=0;rounded=0;strokeColor=#000000;" parent="1" target="14" edge="1">
                    <mxGeometry relative="1" as="geometry">
                        <mxPoint x="59.81999999999999" y="100" as="sourcePoint"/>
                        <mxPoint x="50.00000000000006" y="70" as="targetPoint"/>
                    </mxGeometry>
                </mxCell>
                <mxCell id="17" value="" style="shape=image;verticalLabelPosition=bottom;labelBackgroundColor=#ffffff;verticalAlign=top;aspect=fixed;imageAspect=0;image=data:image/png,iVBORw0KGgoAAAANSUhEUgAAANsAAADaCAYAAAAv3zflAAAAAXNSR0IArs4c6QAAAARnQU1BAACxjwv8YQUAAAAJcEhZcwAAFxEAABcRAcom8z8AAA/jSURBVHhe7dwLdJTlncdxurrHWCRA7vfL5EYmySQhkdwIIYRLCKBcohIkUgKEawCh4C04NiLQQjmibVWUWkCghdrqaQGFuhakQtFV1uNW12N32x4XLYUCsQoGyLPP/5137JAlFUN4monfzzn/M4nGc+Z9/f3e533fufQAAAAAAAAAAAAAAAAAAAAAAAAAAAAAAAAAAAAAAAAAAAAAAAAAAAAAAAAAgEtTSt2wZ8+eqKi+AbFRAQGxydFBMV1tonv0iIm+/vqYl3fvTtDPN8J+6kDXt2/fvtiGWdMLq0dVjps6aeL8iqKCRkdYkDshJMjtiAi5v6tNQkgfPUH3Vw4a2LRwVv29k6vH3T6irGTwqLKizCfWrAmxNwvoOrZv337Nxo1Ppjc13rO4ZuyY5wtcznec8THHkiPDjjvCQ07IJHXB8T63lMjwv2Y54o8XZmf+cVB+7oHSXNf3J44dM+W7K1dmrd60qade9b5mbyrwz6ODGDCvvm7s+KqRGypKCt4qyHJ+qoOrkiNClCM8WKVEhXkmsgtOVLj13BxhwUqXT7mS4lV2ikNlJsYezUl1HCzOdW2pKi/7pvveewv1dv6rvcmAeW63O/DuRfNHT6gavrPIldEi4U0I6WsFNyki1O9Gr3Ke565HCtgvNkoVZWf+fvzI4Y8vmF0//kePPRbNKod/ium1NSPGV43YVZjl/CQtOsIKaKIeK7RtQtxV51LP01u45MhQq3A5KY4TZQPyD82bNvXOI4cOJdqbD1x9u9atu65h5kxnVXnpwwMynWfS46KtFe1S4U0IDVLxwX1UXBcceV7y/No+b9/nLweQVL1iZycnqtK83DeHFA5YGt77OgoHM+bW1gZXj6pcqK/PjiTra59LlSxel08CLWGWv0nRK5/nGqmLjH4+8rwSw4JUTN9eKqr3DSo2KNBamX23xTvyt7LSJUeGv+mMj1k8ZlhpIqeUuOoKc3OTi7NdO7KTEs9KsdoGVAomK52cgulCqmEDi1VVeZmqLCvtMiPPZ3hpiVyTqX4xkbpovVVs38B2VzrP6XGwSouObMnrl3rk1tFVc5577rkoe5cAnU8fza8dVlo6JDMx4Q1nbLR1xPeGUx4TQj03SIpzstSCWfXq8UcfUZuf/qHatnmT2rppY5cZeT7P/Ohptf77j6rVyx9Ui+bMVjcPq1DOhFgV3jNAhd9w/UUHEc82hljFzEl2qLIb835TM+6miXp//Iu9a4DOdfTo0dA7am6bnZkY/751I8EOo4yEMy64typyZaj7vrlIvX74t+rcuXPq/HmZ811y5PmdPXNWvf/ee2qLLt+MOyZbBwrPKabnhs9F2xkeal3D6e1vLc3P3drU1JTx8svua+3dA3Se/fv3u+bW163NSU36yPemiGdVC9I/B6tpt9eowwcPqpaWz/SB33/85dgx9cbrr6mNT61XU267RWU64q3T4URru/6+wslIGQuzMv6nbvIkd9OSJSn27gE6z4s7d5YsnF2/Ic+Zety3bFI0WQXkrt3yZY3q4+ZmO8L+59Spk+qFX/5SzZ1Rp1xJCSo6sOfn2+ktnGyrKynx3JDCAW/eMWFsjf7PAuxdBHSOvbt3F+myre+fnvIX37LJ3Uf5uSg7S61Z8ZA6dfKkJ7l+quWzz9S+f3tJ1d4y3nq3iWyfZ+W2Tyf1JOvpFxf9SUVR4fpvL3fn6//sGns3AVduz65dhQtmzXiivbKV5OaotatWqhPHj3tS68eam09bN1PGVJRbLw1E65HTR2/ZpHzye1FO1h9vHTu6acuWLbx5GZ3ni8pWnOOyVrbuUDbxvx98oL7d9C2lr1H/30sDciopr9nl6n83uDD/NXlL1xOrVvW2dxVwZb5qZWttbbVOJ2dNneK5ftOrm3WH0l7dZOR0sn966unqUZXbG2bPKLd3FXBlvmplE389cULt2LZFjSwbqCJ6ff2iazfZZvldXsC/MaPfsZuGVTS++OyzYfbuAjruq1g28Yf//r361n13q3xnmoqTd5vo8RbOKp292pXkZr80f8aMiW+//fYN9i4DOuZyyyarQXciL34fPviqaqifbt0UiQz8+kVl874Wp8v4t6ohZT9tvOvObHuXAR1zOWWTu5HNfvw62z/y8x3bVVX5IJUU6bkb6d1+61GXUD44m+dM+1Nl2cCGvLw87k6i4y6nbKsfWq4++vBDdebMGXX69Cl1+pQeefTjaT59Wn38cbM6+JsDaumCefr6LF3F9L30pwRSoiP+lpee+kJVeVntKrc7bs2aB2PlkengrHLHPbxqVZx76dKYcePGhd05bVrQoV27AvWxr3u/Ta69snlvGsi7/O9ZvMi6g3dg36/Vz3b8RD37k23Woz+PrGjP/+yn6sfPbFbL7lqiBuX3t8rme7NExi5fqysp4bQu268XzJn5yNIFDWsXzp25junY3Dln1iOL58/53sxvTP7OyMGDFo+rGjHzgfvuvm3XrudyW1tbe9rR7H7aK5v3CC+nUWOGDrGubeZOr1M1425WE8eOsR79eSaN94y8Z7J69EiVl55mreZtVzbZH/JSgDM+RhW5Mlv0Keex0RXlH8oj07EZNaTs2Oihg48PLSn4QO/3/xiQ6Tw0bGDRnuGDip8aM3TwXdNqa6u2bt0abke0+2ivbL4jL/SmyodF7Q9odqfxbpv83Ha7fUcK5/1bpnNG9qf9/6FVzwVHROg5fbp+8qZhFb+aPmVy/eLFc+J1RLvPR56+qGzyu3zMJiqwpzUxfXp1q4nWI7f9L3Wt5juyH+RvZB8xnTPWHV+9X7371vulTLpwn5YX3PjWiLKS5VlpCWl2VP3f5axsDGNqvAXMSXGoQlfGH0rzsh+qvqnSacfVv32Zsn1+dNc7hGE6Y6wVzSdz8rP396ykBFWcm/XBzSOH3rtp0w/kXTz+/R0xX6Zs8u/ljp28n5BhOmOsO8A6V7458x7U5RP0ruREpU8p906puXVsXV1dLzu2/umLyiYXsPKtWnK9Jhe0+c5+qiTXpQb2z5a3MjFMh8aTH5eVJ8mV5Ety5nujSgonj/kZqR+OGFTyg5lTpiTYsfVPl3ODRL6PUe4eyUsASxY0qIfcy9TKpgfUigfuZ5gOjeRHciR5klxJviRnvvnz/uxKir9Q4Mp4ta6mpsiOrX/6R2WTc+pIfcTJT0+zvq3q5zt2WN/p8e7v/lP917vvqHff+R3DdGis/OgcSZ4kV5IvyZnkTXLnzaCsdPINaK6khPdvGz160oEDB/z3VLK9ssmjbLQs7bW3TFCvvvKKOn/hgucNhUAnklxJviRnni8CvvigLy8JZDni/3RHdXXjK3v3Ouzo+p/2yua9UyTvrHhwWaM69uc/27sG6HySL8mZ5M17x/vzg77OZW5a0rF50+q+t2fnznw7uv6nvbJ534hcmper1q3+jvXGXeBqkXxJziRvkjvJn2/Z5NvfFs6pf+qlF14otqPrf76obPKu/++uXNHtPs+GrkXyJTmTvF2qbJJPyank1Y6u/7mcsnXHT2qja5F8Sc4oG2XDVUbZKBsMoWyUDYZQNsoGQygbZYMhlI2ywRDKRtlgCGWjbDCEslE2GELZKBsMoWyUDYZQNsoGQygbZYMhlI2ywRDKRtlgCGWjbDCEslE2GELZKBsMoWyUDYZQNsoGQygbZYMhlI2ywRDKRtlgCGWjbDCEslE2GELZKBsMoWyUDYZQNsoGQygbZYMhlI2ywRDKRtlgCGWjbDCEslE2GELZKBsMoWyUDYZQNsoGQygbZYMhlI2ywRDKRtlgCGWjbDCEslE2GELZKBsMoWyUDYZQNsoGQygbZYMhlI2ywRDKRtlgCGWjbDCEslE2GELZKBsMoWyUDYZQNsoGQygbZYMhlI2ywRDKRtlgCGWjbDCEslE2GELZKBsMoWyUDYZQNsoGQygbZYMhlI2ywRDKRtlgCGWjbDCEslE2GELZKBsMoWyUDYZQNsoGQygbZYMhlI2ywRDKRtlgCGWjbDCEslE2GELZKBsMoWyUDYZQNsoGQygbZYMhlI2ywRDKRtlgCGWjbDCEslE2GELZKBsMoWyUDYZQNsoGQygbZYMhlI2ywRDKRtlgCGWjbDCEslE2GELZKBsMoWyUDYZQNsoGQygbZYMhlI2ywRDKRtlgCGWjbDCEslE2GELZKBsMoWz655LcHLV21UrKhqtK8iU5k7x127Lt3b27aOHs+vXtla0oO8s64pw6edLeLUDnk3xJziRv7ZVNcip5taPrf17cubNEb8SGPGfqcd+yJYQGqcSwYJWdnKiWL2tUHzc327sF6HySL8mZ5E1yJ/nzLZvkU3IqebWj63/279/vmltftzYnNekj37JZG2ltcLCadnuNOnzwoGppabF3DdB5Wlo+s/IlOZO8Se4uyqHOpeRTcip5taPrf5qPHg2trbl1TmZi/PtJ9gZ6R44wccG99dKeqRqXLFavHz6szp07p86fP68uXNCjH+Vnhvmy8/fsnFP//tphK1+SM8mb5M43h5JLyafkVPJqR9f/6APLtcNKS4dkJia84YyNVsmRYW1WN8+5c3FOlppd9w21bs1qtXHDk+rHz2xW2zZtVFsZpgOzbfMmtfnpH6rHH31ELZhVb+VLSiV58+ZPRvKYHhOlMhLi3pCcSl7t6Pqnwtzc5OJs147spMSzsqFtjyzWObReyhNCg5VLn1NXFA1Qo4YMViMHD1KVZaUM86WnqrxMDRtYrAqynKpfbJSdL891mm/uHBEhqn9aytlB+f13lBUWJtuR9V9za2uDq0dVLtQbfsR3ZfOO/C53h2L6Bqq4oD7WP0uNjlApUeEM07HR+ZGsScHigvt8fvfbN3dStmT9t4ML8o/Mmjpl4YoVK4LtyPqvXevWXdcwc6azqrz04QGZzjPpcdHWkabtxnt3gOwY2UEMcyUTr8f3Zoh35HfJX7pe8QZkOT+dUFX58GPr1jnfa229zo6s/6ufPLFy/MgRuwuznJ+k6SOPQxfLWsovsTMYpjOmba6svOmR/EkOJY+SSzui3Yfb7Q68e9H80ROqhu8scmW0yHIvR5i2dykZ5qqMzpnkTXIn+ZMcSh7dDQ2BdkS7F6VUwLz6urHjq0ZuqCgpeEtfx32a5YhXyfpC1REerHdEmGf0+TbDXNHYWZJcSb4kZ5I3yZ3kT3IoebSj2T1t3779mo0bn0xvarxncc3YMc8XuJzvOONjjukL2uN6qT8ho49CDHNF482S5EryJTmTvEnuJH+SQzuS3d++fftiG2ZNL6weVTlu6qSJ8yuKChodYUHuhJAgtyMi5H6GuZKxcqTzJLmSfEnOJG+SOzuCX02tra29fvWLX0RH9g2IiwwIiEuK6hvLMFcykiPJk+RK8mVHDQAAAAAAAAAAAAAAAAAAAAAAAAAAAAAAAAAAAAAAAAAAAAAAAAAAAAAAAAAu0qPH/wHuZytPzU9dPAAAAABJRU5ErkJggg==;" parent="1" vertex="1">
                    <mxGeometry x="80.18" y="280" width="40.18" height="40" as="geometry"/>
                </mxCell>
                <mxCell id="18" value="src" style="text;html=1;strokeColor=none;fillColor=none;align=left;verticalAlign=middle;whiteSpace=wrap;rounded=0;fontFamily=Noto Sans JP;fontSource=https%3A%2F%2Ffonts.googleapis.com%2Fcss%3Ffamily%3DNoto%2BSans%2BJP;fontSize=18;fontColor=#000000;" parent="1" vertex="1">
                    <mxGeometry x="129.82" y="80" width="290" height="40" as="geometry"/>
                </mxCell>
                <mxCell id="19" style="edgeStyle=orthogonalEdgeStyle;html=1;entryX=0;entryY=0.5;entryDx=0;entryDy=0;fontFamily=Noto Sans JP;fontSource=https%3A%2F%2Ffonts.googleapis.com%2Fcss%3Ffamily%3DNoto%2BSans%2BJP;fontSize=18;endArrow=none;endFill=0;rounded=0;strokeColor=#000000;" parent="1" target="17" edge="1">
                    <mxGeometry relative="1" as="geometry">
                        <mxPoint x="59.81999999999999" y="300" as="sourcePoint"/>
                        <mxPoint x="90.18000000000012" y="109.99999999999989" as="targetPoint"/>
                    </mxGeometry>
                </mxCell>
                <mxCell id="20" value="AaaSubSystem.sln" style="text;html=1;strokeColor=none;fillColor=none;align=left;verticalAlign=middle;whiteSpace=wrap;rounded=0;fontFamily=Noto Sans JP;fontSource=https%3A%2F%2Ffonts.googleapis.com%2Fcss%3Ffamily%3DNoto%2BSans%2BJP;fontSize=18;fontColor=#000000;" parent="1" vertex="1">
                    <mxGeometry x="129.82" y="400" width="290" height="40" as="geometry"/>
                </mxCell>
                <mxCell id="21" style="edgeStyle=orthogonalEdgeStyle;html=1;fontFamily=Noto Sans JP;fontSource=https%3A%2F%2Ffonts.googleapis.com%2Fcss%3Ffamily%3DNoto%2BSans%2BJP;fontSize=18;endArrow=none;endFill=0;rounded=0;strokeColor=#000000;exitX=0.5;exitY=1;exitDx=0;exitDy=0;entryX=0;entryY=0.5;entryDx=0;entryDy=0;" parent="1" source="5" target="22" edge="1">
                    <mxGeometry relative="1" as="geometry">
                        <mxPoint x="70.0900000000002" y="90" as="sourcePoint"/>
                        <mxPoint x="29.819999999999993" y="200" as="targetPoint"/>
                    </mxGeometry>
                </mxCell>
                <mxCell id="22" value="" style="shape=image;verticalLabelPosition=bottom;labelBackgroundColor=#ffffff;verticalAlign=top;aspect=fixed;imageAspect=0;image=data:image/png,iVBORw0KGgoAAAANSUhEUgAAANoAAADbCAYAAAALQY9+AAAAAXNSR0IArs4c6QAAAARnQU1BAACxjwv8YQUAAAAJcEhZcwAAFxEAABcRAcom8z8AABadSURBVHhe7Z0JXNVV2setqalMS4XLvi8iKqAomqCi4oKAAuLuOLn0qqSomU6bjjW+jdWU2kzaFCWoLWZaaTX1ttjikqO45S6iILuAyi6gPO95/vyvHbdE5Fyu8Pt++nWxBD73PM/3nvPfmwEAAAAAAAAAAAAAAAAAAAAAAAAAAAAAAAAAAAAAAAAAGoRNmzY5zZwyJSSsb88xPu4uU1wNFrFabAxIA8ZZr0FwQJdpI4aE/Sk8JLj/1AljPInofr104E7g8REjWjw7d26nKRPGz4kJH/xFr67+xzu4OBa6GdqUullZlLpbWyINGFdRB37t7tehZGCvoFO9unb+sn/gIwtjJ00KX/Tcc84/JPwA4cydDWvWOMSEhk4K6uS3vpuP92H/dp7Fvh6u5O1oR562VjWxQxo0eg183V1I1Ic6uDqVeDvZJ3f19toSOXDAm0/PmRMhZrd79ZICc0IU5q43Fy92GR05ZHafgC7bOro6awV1MbQhMYuR+AQldxsDYkbhuriKuInaiFmO2jnYUg8/n9Lwvn0+HRE1ZOTCefPs9PICc+GjxET7cdGRcYF+vvt93Jyr2tpZawU05nqFRho2v9VGRLx62Bqorb0NtXd1KA/o2G7H6OghcfuP73fQSwzMgeHhoSOCOnfa4ePmUs2SceEg2J0XbQVibUHtnR2q+3bvunfSn8c8tWXLFie9zKChSEpKund1fLxHv0e6vdXBxanaU5/J5OLxnx1aP0TWLR4gq+b3IWYQG1EL+4dbkLNl62vqxctJD7Hs7+zlTr27+R8YEx05NSokxEIvOWgI4pcts549PXZacID/bk0yfc0vS2bcDuDiIeYRdxFjbYz1kWvGr15iGenlaFfl7eSw2cPeJiY4uNk9etmBqYmdPNl7VGRYYqCfT6GxcMaCcfhTk1+HhYXSogXP0fKlS2j5sqVIA+ZfS16lF+Y/QxPHjKLATj7k2OZhsn2o+eUPQ2PtjDtLXCzblLhZWW5yt7WItLW1ba6XHpiS4IDOXYP8fX/q3Na9pjj6p6H2SSnW+14OthQ1aAC9l7CScnNyCJgH2VlZ9M1XX9ILzz5DocG9hGDW5Ni6pbaU5NnOKJsxoq4X3K0N/3G1s4zwsrBoqZcfmIq2TrZBYnlxgI+TyYVxsmhFDq1a0pD+fWlNQgJlZ2bqJQbmQnFxMSUfO0prVr5DIyLCxMzVmuwefvCKOhrjIeJmY1nsam340s1gGCZK/4eaDgDKEbW6K7Rv7zCx3Ei++jgZ7/zgDe7pkydSWmpqTWWBWXJGrDQ+SEyk4WJ5zysR6wfv1/Y+ystIFo3/zDObm5Xhcxcri6HtDYYWeisAlYga3TU+JmZYOye7a0SzF7MZF2xu3HQqKiysqSgwKdXV1VRWVkolYuaqrKjQ/+v1yc3OprWrV1HM4EHazOYglpEsm1zTy7G2LOdlpIdYRmKbzUT07t5lgIed9RE+C0QuhlG0eTNnaIUGpuXixYuUkpxMX3/5OW1Yt5b+u30bnTt7Vv+/1ydHbLd9sCpBm9l4W82mZfMramqMp23NMlJ8/YWbrVV0M+yNVI9d65aBrlaGg9pBaqkYRtGenPE4FZ4/r5cSmILioiL64dtv6X//Op8mjR1No6OH0qxpUynh7bfENtkx/W9dn5zsLHo/YSUNGzxQW0baCtluvIw0XHCzMWx0tbaMsMAOErU4GVoHiQE/BNHMA57Jdu/cSbETHqV2jnYkVhvExzfFUo+Cu/pT/PI36GxBvrasvBG844pntmFiGckzG29vs3RyfY0R22yl4v99ybK1b9/sj3pbgPrGzdbQE6KZD1mZGfTOmyuot5Cq1R+aaTXgY5mt7rlb2xMcO3ECbd/6M5WXlenfcX14GcmHZHhmY9n458j1NcbTRsxsYhkpZrZNLnYWQ7t0aYaz/lUA0cyLQwcP0AvPPU3dfTuQ3UMPXt6hwfXgk4ZHDo2gj9d+UKuaGGWLDh2gHRO15Z8npLtmGSmi7Y20MXwmpBuMZaQCIJp5cViI9rf5z1KPTh21mexK0axodNRQ2vDRh1RUy5pkiWVkjWwDLx8b/Z1lZLG7leFzVzvriIXNmt2ttwioDyCaeXHk8CF6ceECCuzse41ovK02dlgUfbp+3S0dcuGZjQ9qs2z886xEXYVUV8xsUkrauzp9FhwQECG2A+/T2wTcLhDNvFAhGsM7SFi2qEH9tZ9p36rmzH9ZNqN83k725T38fDfOeuyxQevWrcNB7foAopkXqkRjMtPTddkGaMtI/pksl1x3Y/zbeRbFDA7d+Ozs2eHiW+/S2wXUFYhmXqgUjeGZbfW7xpmtZm8kb7MZZzYWj//c3smeAv06lg4PD13/5IzY8NzcXMxstwNEMy9Ui8YYZYscGHL5OJvx9xjDl9jw72PZYsIGffLUrFl94uLisM1WVyCaeWEK0RheRq5+J16b2RzFMpIPJcj1N14ALLbXqFvHdtlDBoQsGzcy2l9vG3CrQDTzwlSiMVkZ6ZQY/zYNHRDCF4eSTcsHrlhGcvi4m5eD7aUefj7HYyIGTxffhntG1gWIZl6YUjSGZ7ZVYmaLFLI5W7bSdpLIx9l4ZuPe8PVwrR4c3Dtxw9q1HRcuXIhjbLcKRDMvbibauJho+mzDx/UmGpOZfppWiZktSmyzsWRXLyP5Eiq+0r7fIwFJ82bPnPLqqwst9fYBtQWimReHDx3U7s3So5PPDUXb+Ml6Ki0p0b+jfsjKyKAVy5ZScIA/OYtZjbfPjLv+WT7+OqiTb/7YYUPjZ82a5qW3D6gtEM28uNGMxnsGeduJj4GtSXiXzp87p39H/cBXA+zdnUTzZk6ngA7ttCWk8Xcbhevi3ba6X2D3byMG9cNOkVsFopkXJ0+coKUvv0S9xcyinVRs2VqrBzc9zyz+Xp70zJzZlHz8969LqwslJcX0yccfaadqseS8N1LuiQ4ujuTj5ryvk5d7oN4+oLZANPMiPy+PPlyVSAOCepDhgT9qyziuB88qLJpj64dpUK8g+ve//klHxDIzJztbfM8ZLXk3yZncXMo7c4bKy8v133Ytx44eoamPjtfuF8MnIMs9wVfhu1pZHuWe0dsH1BaIZl5crKqibT/9SDFhoWR5/73aEs5YE5aNDzB72dtSSI/uNC9uBsWvWE7vJyZoeS9x5e8mIf5tbdnJP/9sQYH+G6+Eb5cwZ3qsVnue1eSegGi3AUQzP9JOnaK/zI7j++drS0bjtpIxTm1aiZntIW0ZGd4vmKIHD9QSFTrgdzOkfz+KHNifJo8bQ/FvrqDTqaf03/gbfH+YuTNnXFc07hHRK0cgWh2AaOYHN/unH6+jUZER2izGdyGWa2NcRt5qWFieEW1bNKdBvXvSJ+s+umbvJdeaaw7R6hmIZn7wHsDMjHR6bfGL1MnTXasDi6I9nkmvD8vG4vDtwHl2q224rq3vvZv8PNzo+WeepkO//nrF/UcgmiIgmvmyZ9cu+susmcS3a+cdI3ZiZrt6GXmrYUF5byY/aDJ24qP04/ffQTRTANHMl6qqKtq9a6e204O3x/iANZ8mxcfUnMRMxsvAWw3vXGFpfd1d6eknZgmZd0I0UwDRzJuKigram5REr//jZRoTFUnezvaaKJoIokYsXa0j/r6dkKf1PXdTz85+2jmOZ/Pz9d9UA0RTBES7M+CTfzeuX08L/jJXOw1rSEhf6h/0CPXp3pX6dOtKfcXrzcK3sAvu1oUi+vWhRQvm05GDB/Sf/hsQTREQ7c6BDzTzRZu7dvxCG9aupRWvL6XXXvq7ttNkycuLb5pXXlyk/X3eo3kqJYWqKiv1n/wbEE0REO3Og7ep+IDz6dRUSjmRrN2jn0/duln4tC3++793niREUwREAzIQTREQDchANEVANCAD0RQB0YAMRFMERAMyEE0REA3IQDRFQDQgA9EUAdGADERTBEQDMhBNERANyEA0RUA0IAPRFAHRgAxEUwREAzIQTREQDchANEVANCAD0RQB0YAMRFMERAMyEE0REA3IQDRFQDQgA9EUAdGADERTBEQDMhBNERANyEA0RUA0IAPRFAHRgAxEUwREAzIQTREQDchANEVANCAD0RRhCtFKqi7RwfPltOVMCf2UW5Ofkcvh8fgxp4S2ifFJKa6giku/Pa/M1EA0RagUjdulVEi2M7+U3jiWR0/vzaKn9PDXSE20MdmTRfP3ZdO7Jwpo79kybdwaAoimCJWiVYlP5n2iaf55NI+m7EinUVtSaexW5EYZtzWNJm4/Ta8dPiNmtgv6KJoWiKYIlaJduFhNmzIKacbODBr+0ymK+vEkjfj5FHKDxIgxCvn2BP2P+FDaU1Cmj6JpgWiKUClahRDtq6wieiKpRrShQjRuJuTaDBOJFgn9PoVm7cqgX8VKoCGAaIpQKRpv0x86X06vHzlDY8SycfDmFDGriYZCrgl/CA394SSNEUvIJWLpeLK4Qh9F0wLRFKFSNKa48iLtyCvRdob8dX82Pf9rDr0g8jfkcng8nhdjs+hANsUnF4jxKqXzldgZ0qhQLRpTdvESZZRVarv494glEYf3rCE14fHgnUaHxfjklFVRpVgKNNQOfoimCFOIZuRSdTVdEE3E4WNFSE14PFguHp+GBqIpwpSiAfMHoikCogEZiKYIiAZkIJoiIBqQgWiKgGhABqIpAqIBGYimCFOIxnut+Wz085UX6VwFoiKFYmz5eOXtAtEUYQrRcsuraHNOMX1w6iy9p+d9pF7y3smztEZkXeo52nbm9s8ogWiKUCnaJTGT5QjJ/pNZRM/vz6Gp/02/nGlIvWTqjnTtEqRY8fVLB3Npe16JtnKo66FviKYIlaLx2Q58BTFLNn5rmnaWOl+ThtRvRorwydoTt6fRW8fz6GhhufYhVxcgmiJUisbXo32WXkiPi09bvkwmGtejKclwkQg+818I98qhXNpdUEYX63g6F0RThOoZ7cfcYnpmb5Y2m4VtTqFIIRtSv+FLbELF2I7bmkr/Pp5Pxwsr6nzeJERThErRuNRpJRViY71AbEuc1j55x4olJF+yj9RfeExH/pxKT+zOoK+zirQ9kHUFoilCpWgMn52eXHyBNmWcp5Up+fTOiQLtBjRI/YXHNDGlgL7KKqT0sgrtcEpdgWiKUC2aET7Gc+ZCFaWXVmrJQOolxvHksS0VY3wbjmlANEWYSjQj3Ah8pIdfkduPcSzrC4imCFOLBswbiKYIiAZkIJoiIBqQgWiKgGhABqIpAqIBGYimCIgGZCCaIkwhGp+KlVlWSceKLtDRwqadI4Xl2mtqSeVtncGhCoimCNWi8cmtx4VgH5w6R/84nEuvHDrTpMOXsvDr28cLaEtuCRVV3v5B5voEoilCpWgsWbKQbFXKWZqdlEl/2ppGf95Wk0ebaMbrmbT9tBAul3bll1JRAz0L7XpANEWoFI2fJvN1ZhE9KSQb9XOqdpnMSOnyjqYYPvmXr2SI+CFFezwTXyWdLpbV5gJEU4RK0fh6tM8zCiluZwaNuOp6ND6TvymG3zs/oomvH5u84zQlnDhLpxroyTHXA6IpQqVofK8YXhq9eCBH+xQf+P0JGiIajB9P1FTD7z9880kxFik0fVeGNuPzzXXMBYimCJWiMfkXquirzEJasC9bu8fFDNFccSIzm2j4/fMTUPnrt5Lz6VSJ+cxmDERThGrReIdIXkUV7TtXRt/nFNH/ZdXkmyYansH4lZ8Zl1ZSqV2vZ05ANEWoFk2m/NIlKqqsuQchvzbF8HvnhzNW387VmQqBaIowpWjA/IFoioBoQAaiKQKiARmIpgiIBmQgmiIgGpCBaIqAaEAGoinCVKJpd2wS/2qKEf/cMUA0RZhCND5+tO8sH7Aupm+za/JdIw+/x2+yimmzeD18vlx7PtydAERThErR+JO8WDTYL3mltOxIHs3bk0lzd2dpmdfIw+/xSZGn9mTRiuN5tEOMAX/gmDsQTREqRasS6yZ+ssmSw3n02C/p2iUiY7bWZGwjD7/H0VvE65Y0mrA9jV4+lKtdXW3uQDRFqBSNL5PZmF5I03dmaI9timpCl8kY36N21cJ3KTTxlzTafqZEHxnzBaIpQqVofOEnn0DMF36yaHyJCF+L1ZQSJTL4+5PaEzl35pfqI2O+QDRFqBSN97jxcumNo3nEz+7i56NFX9WIjTk8g/Pzy/jWBUvFNuqJogv6yJgvEE0RKkVjSqouUVJBKb2dnK9dAPr3g7m0uImE3+/igzm0KqVA21bFzpAmjGrRmAtiasspr6SjReX067maHGjkMb5Hfp50rnjvvHf/TjieBtEUYQrRjHCj8T0em1Lq+ojbhgKiKcKUogHzB6IpAqIBGYimCIgGZCCaIiAakIFoioBoQAaiKQKiARmIpgiIBmQgmiIgGpCBaIqAaEAGoikCogEZiKYIiAZkIJoiIBqQgWiKgGhABqIpAqIBGYimCIgGZCCaIiAakIFoioBoQAaiKQKiARmIpgiIBmQgmiIgGpCBaIqAaEAGoikCogEZiKYIiAZkIJoiIBqQgWiKgGhABqIpAqIBGYimCIgGZCCaIiAakIFoioBoQAaiKQKiARmIpgiIBmQgmiIgGpCBaIqAaEAGoikCogEZiKYIiAZkIJoiIBqQgWiKgGhABqIpAqIBGYimCIgGZCCaIiAakIFoioBoQAaiKQKiARmIpgiIBmQgmiIgGpCBaIqAaEAGoikCogEZiKYIiAZkIJoiIBqQgWiKgGhABqIpAqIBGYimiJuJNm/mDCopLtbLABo7XGuuOUSrZ24m2ty46VRUWKiXATR2uNZcc4hWzzhaturlYmhzxNPW6opBdWj9ENm0eICmT55IaampehlAY4drzTXn2juID1u5J7hHnA1tjnHP6O0DaktbJ6cgL0e7A96OdlcMqpNFK22gh/TvS2sSEig7M1MvBWiscI251lxzrr2TxcNX9AT3iJeD3SHuGb19QG0J6dEjoKe/70+d27prg+lmbam9ulpZkKuhjRhYW4oaNIDeS1hJuTk5eklAYyM3N1erMdeaa8615x6Qe4J7pGdnvy3cM3r7gNoSO3my96jIsMRAP59CHlDj4BpjXKcPCwulRQueo+VLl9DyZUuRxhRR00UL5ms1lmtuDPcE9wb3yMih4au5Z/T2AbUlftky69nTY6cFB/jv9uSNXX1QjYNslI9fPcQaHWm8kWst1597gnuDe2TW49NiuWf09gG1JSkp6d7V8fEe/R7p9lYHF6dqTTZpoI2DzTtHrMUGslXz+5BGGK4t1/h6teee4N7gHlm5cqUn94zePuBWGR4eOiKoc6cdPm4u1dqufv4ku2rQkaYTrj2He8HHzbmae4N7RG8XUFc+Sky0HxcdGRfo57tfDGxVzTGTmsGGcE0ncs15JuNeENtm+7k3uEf0dgF1hYjuenPxYpfRkUNm9wnosq2jq7N23MTF0EZbo/MMd73CII0oLJioNdeca889wL3APcG9wT2itwu4XT788EPHYaGhkwP9/TZ08/E+4u/lWeLr4ULtHO20wddihzSq6HXlGnOtueZc+8DOvp9wL3BP6O0B6pPHR4xo8ezcuZ2mTBg/JyZ88Be9uvof7+DiWOhmaFMqPvFKxScf0ojCNeXaco251lxzrj33APeC3hZAFZs2bXKaOWVKSFjfnmN83F2muBosYrXYGJDGFL2uXGOuNdeca6+3AQAAAAAAAAAAAAAAAAAAAAAAAAAAAAAAAAAAAAAAAADAlDRr9v/lMcv594oauQAAAABJRU5ErkJggg==;" parent="1" vertex="1">
                    <mxGeometry x="80.18" y="400" width="39.82" height="40" as="geometry"/>
                </mxCell>
                <mxCell id="23" value="" style="shape=image;verticalLabelPosition=bottom;labelBackgroundColor=#ffffff;verticalAlign=top;aspect=fixed;imageAspect=0;image=data:image/png,iVBORw0KGgoAAAANSUhEUgAAANsAAADaCAYAAAAv3zflAAAAAXNSR0IArs4c6QAAAARnQU1BAACxjwv8YQUAAAAJcEhZcwAAFxEAABcRAcom8z8AAA/jSURBVHhe7dwLdJTlncdxurrHWCRA7vfL5EYmySQhkdwIIYRLCKBcohIkUgKEawCh4C04NiLQQjmibVWUWkCghdrqaQGFuhakQtFV1uNW12N32x4XLYUCsQoGyLPP/5137JAlFUN4monfzzn/M4nGc+Z9/f3e533fufQAAAAAAAAAAAAAAAAAAAAAAAAAAAAAAAAAAAAAAAAAAAAAAAAAAAAAAAAAgEtTSt2wZ8+eqKi+AbFRAQGxydFBMV1tonv0iIm+/vqYl3fvTtDPN8J+6kDXt2/fvtiGWdMLq0dVjps6aeL8iqKCRkdYkDshJMjtiAi5v6tNQkgfPUH3Vw4a2LRwVv29k6vH3T6irGTwqLKizCfWrAmxNwvoOrZv337Nxo1Ppjc13rO4ZuyY5wtcznec8THHkiPDjjvCQ07IJHXB8T63lMjwv2Y54o8XZmf+cVB+7oHSXNf3J44dM+W7K1dmrd60qade9b5mbyrwz6ODGDCvvm7s+KqRGypKCt4qyHJ+qoOrkiNClCM8WKVEhXkmsgtOVLj13BxhwUqXT7mS4lV2ikNlJsYezUl1HCzOdW2pKi/7pvveewv1dv6rvcmAeW63O/DuRfNHT6gavrPIldEi4U0I6WsFNyki1O9Gr3Ke565HCtgvNkoVZWf+fvzI4Y8vmF0//kePPRbNKod/ium1NSPGV43YVZjl/CQtOsIKaKIeK7RtQtxV51LP01u45MhQq3A5KY4TZQPyD82bNvXOI4cOJdqbD1x9u9atu65h5kxnVXnpwwMynWfS46KtFe1S4U0IDVLxwX1UXBcceV7y/No+b9/nLweQVL1iZycnqtK83DeHFA5YGt77OgoHM+bW1gZXj6pcqK/PjiTra59LlSxel08CLWGWv0nRK5/nGqmLjH4+8rwSw4JUTN9eKqr3DSo2KNBamX23xTvyt7LSJUeGv+mMj1k8ZlhpIqeUuOoKc3OTi7NdO7KTEs9KsdoGVAomK52cgulCqmEDi1VVeZmqLCvtMiPPZ3hpiVyTqX4xkbpovVVs38B2VzrP6XGwSouObMnrl3rk1tFVc5577rkoe5cAnU8fza8dVlo6JDMx4Q1nbLR1xPeGUx4TQj03SIpzstSCWfXq8UcfUZuf/qHatnmT2rppY5cZeT7P/Ohptf77j6rVyx9Ui+bMVjcPq1DOhFgV3jNAhd9w/UUHEc82hljFzEl2qLIb835TM+6miXp//Iu9a4DOdfTo0dA7am6bnZkY/751I8EOo4yEMy64typyZaj7vrlIvX74t+rcuXPq/HmZ811y5PmdPXNWvf/ee2qLLt+MOyZbBwrPKabnhs9F2xkeal3D6e1vLc3P3drU1JTx8svua+3dA3Se/fv3u+bW163NSU36yPemiGdVC9I/B6tpt9eowwcPqpaWz/SB33/85dgx9cbrr6mNT61XU267RWU64q3T4URru/6+wslIGQuzMv6nbvIkd9OSJSn27gE6z4s7d5YsnF2/Ic+Zety3bFI0WQXkrt3yZY3q4+ZmO8L+59Spk+qFX/5SzZ1Rp1xJCSo6sOfn2+ktnGyrKynx3JDCAW/eMWFsjf7PAuxdBHSOvbt3F+myre+fnvIX37LJ3Uf5uSg7S61Z8ZA6dfKkJ7l+quWzz9S+f3tJ1d4y3nq3iWyfZ+W2Tyf1JOvpFxf9SUVR4fpvL3fn6//sGns3AVduz65dhQtmzXiivbKV5OaotatWqhPHj3tS68eam09bN1PGVJRbLw1E65HTR2/ZpHzye1FO1h9vHTu6acuWLbx5GZ3ni8pWnOOyVrbuUDbxvx98oL7d9C2lr1H/30sDciopr9nl6n83uDD/NXlL1xOrVvW2dxVwZb5qZWttbbVOJ2dNneK5ftOrm3WH0l7dZOR0sn966unqUZXbG2bPKLd3FXBlvmplE389cULt2LZFjSwbqCJ6ff2iazfZZvldXsC/MaPfsZuGVTS++OyzYfbuAjruq1g28Yf//r361n13q3xnmoqTd5vo8RbOKp292pXkZr80f8aMiW+//fYN9i4DOuZyyyarQXciL34fPviqaqifbt0UiQz8+kVl874Wp8v4t6ohZT9tvOvObHuXAR1zOWWTu5HNfvw62z/y8x3bVVX5IJUU6bkb6d1+61GXUD44m+dM+1Nl2cCGvLw87k6i4y6nbKsfWq4++vBDdebMGXX69Cl1+pQeefTjaT59Wn38cbM6+JsDaumCefr6LF3F9L30pwRSoiP+lpee+kJVeVntKrc7bs2aB2PlkengrHLHPbxqVZx76dKYcePGhd05bVrQoV27AvWxr3u/Ta69snlvGsi7/O9ZvMi6g3dg36/Vz3b8RD37k23Woz+PrGjP/+yn6sfPbFbL7lqiBuX3t8rme7NExi5fqysp4bQu268XzJn5yNIFDWsXzp25junY3Dln1iOL58/53sxvTP7OyMGDFo+rGjHzgfvuvm3XrudyW1tbe9rR7H7aK5v3CC+nUWOGDrGubeZOr1M1425WE8eOsR79eSaN94y8Z7J69EiVl55mreZtVzbZH/JSgDM+RhW5Mlv0Keex0RXlH8oj07EZNaTs2Oihg48PLSn4QO/3/xiQ6Tw0bGDRnuGDip8aM3TwXdNqa6u2bt0abke0+2ivbL4jL/SmyodF7Q9odqfxbpv83Ha7fUcK5/1bpnNG9qf9/6FVzwVHROg5fbp+8qZhFb+aPmVy/eLFc+J1RLvPR56+qGzyu3zMJiqwpzUxfXp1q4nWI7f9L3Wt5juyH+RvZB8xnTPWHV+9X7371vulTLpwn5YX3PjWiLKS5VlpCWl2VP3f5axsDGNqvAXMSXGoQlfGH0rzsh+qvqnSacfVv32Zsn1+dNc7hGE6Y6wVzSdz8rP396ykBFWcm/XBzSOH3rtp0w/kXTz+/R0xX6Zs8u/ljp28n5BhOmOsO8A6V7458x7U5RP0ruREpU8p906puXVsXV1dLzu2/umLyiYXsPKtWnK9Jhe0+c5+qiTXpQb2z5a3MjFMh8aTH5eVJ8mV5Ety5nujSgonj/kZqR+OGFTyg5lTpiTYsfVPl3ODRL6PUe4eyUsASxY0qIfcy9TKpgfUigfuZ5gOjeRHciR5klxJviRnvvnz/uxKir9Q4Mp4ta6mpsiOrX/6R2WTc+pIfcTJT0+zvq3q5zt2WN/p8e7v/lP917vvqHff+R3DdGis/OgcSZ4kV5IvyZnkTXLnzaCsdPINaK6khPdvGz160oEDB/z3VLK9ssmjbLQs7bW3TFCvvvKKOn/hgucNhUAnklxJviRnni8CvvigLy8JZDni/3RHdXXjK3v3Ouzo+p/2yua9UyTvrHhwWaM69uc/27sG6HySL8mZ5M17x/vzg77OZW5a0rF50+q+t2fnznw7uv6nvbJ534hcmper1q3+jvXGXeBqkXxJziRvkjvJn2/Z5NvfFs6pf+qlF14otqPrf76obPKu/++uXNHtPs+GrkXyJTmTvF2qbJJPyank1Y6u/7mcsnXHT2qja5F8Sc4oG2XDVUbZKBsMoWyUDYZQNsoGQygbZYMhlI2ywRDKRtlgCGWjbDCEslE2GELZKBsMoWyUDYZQNsoGQygbZYMhlI2ywRDKRtlgCGWjbDCEslE2GELZKBsMoWyUDYZQNsoGQygbZYMhlI2ywRDKRtlgCGWjbDCEslE2GELZKBsMoWyUDYZQNsoGQygbZYMhlI2ywRDKRtlgCGWjbDCEslE2GELZKBsMoWyUDYZQNsoGQygbZYMhlI2ywRDKRtlgCGWjbDCEslE2GELZKBsMoWyUDYZQNsoGQygbZYMhlI2ywRDKRtlgCGWjbDCEslE2GELZKBsMoWyUDYZQNsoGQygbZYMhlI2ywRDKRtlgCGWjbDCEslE2GELZKBsMoWyUDYZQNsoGQygbZYMhlI2ywRDKRtlgCGWjbDCEslE2GELZKBsMoWyUDYZQNsoGQygbZYMhlI2ywRDKRtlgCGWjbDCEslE2GELZKBsMoWyUDYZQNsoGQygbZYMhlI2ywRDKRtlgCGWjbDCEslE2GELZKBsMoWyUDYZQNsoGQygbZYMhlI2ywRDKRtlgCGWjbDCEslE2GELZKBsMoWyUDYZQNsoGQygbZYMhlI2ywRDKRtlgCGWjbDCEslE2GELZKBsMoWz655LcHLV21UrKhqtK8iU5k7x127Lt3b27aOHs+vXtla0oO8s64pw6edLeLUDnk3xJziRv7ZVNcip5taPrf17cubNEb8SGPGfqcd+yJYQGqcSwYJWdnKiWL2tUHzc327sF6HySL8mZ5E1yJ/nzLZvkU3IqebWj63/279/vmltftzYnNekj37JZG2ltcLCadnuNOnzwoGppabF3DdB5Wlo+s/IlOZO8Se4uyqHOpeRTcip5taPrf5qPHg2trbl1TmZi/PtJ9gZ6R44wccG99dKeqRqXLFavHz6szp07p86fP68uXNCjH+Vnhvmy8/fsnFP//tphK1+SM8mb5M43h5JLyafkVPJqR9f/6APLtcNKS4dkJia84YyNVsmRYW1WN8+5c3FOlppd9w21bs1qtXHDk+rHz2xW2zZtVFsZpgOzbfMmtfnpH6rHH31ELZhVb+VLSiV58+ZPRvKYHhOlMhLi3pCcSl7t6Pqnwtzc5OJs147spMSzsqFtjyzWObReyhNCg5VLn1NXFA1Qo4YMViMHD1KVZaUM86WnqrxMDRtYrAqynKpfbJSdL891mm/uHBEhqn9aytlB+f13lBUWJtuR9V9za2uDq0dVLtQbfsR3ZfOO/C53h2L6Bqq4oD7WP0uNjlApUeEM07HR+ZGsScHigvt8fvfbN3dStmT9t4ML8o/Mmjpl4YoVK4LtyPqvXevWXdcwc6azqrz04QGZzjPpcdHWkabtxnt3gOwY2UEMcyUTr8f3Zoh35HfJX7pe8QZkOT+dUFX58GPr1jnfa229zo6s/6ufPLFy/MgRuwuznJ+k6SOPQxfLWsovsTMYpjOmba6svOmR/EkOJY+SSzui3Yfb7Q68e9H80ROqhu8scmW0yHIvR5i2dykZ5qqMzpnkTXIn+ZMcSh7dDQ2BdkS7F6VUwLz6urHjq0ZuqCgpeEtfx32a5YhXyfpC1REerHdEmGf0+TbDXNHYWZJcSb4kZ5I3yZ3kT3IoebSj2T1t3779mo0bn0xvarxncc3YMc8XuJzvOONjjukL2uN6qT8ho49CDHNF482S5EryJTmTvEnuJH+SQzuS3d++fftiG2ZNL6weVTlu6qSJ8yuKChodYUHuhJAgtyMi5H6GuZKxcqTzJLmSfEnOJG+SOzuCX02tra29fvWLX0RH9g2IiwwIiEuK6hvLMFcykiPJk+RK8mVHDQAAAAAAAAAAAAAAAAAAAAAAAAAAAAAAAAAAAAAAAAAAAAAAAAAAAAAAAAAu0qPH/wHuZytPzU9dPAAAAABJRU5ErkJggg==;" parent="1" vertex="1">
                    <mxGeometry x="120" y="120" width="40.18" height="40" as="geometry"/>
                </mxCell>
                <mxCell id="24" value="" style="shape=image;verticalLabelPosition=bottom;labelBackgroundColor=#ffffff;verticalAlign=top;aspect=fixed;imageAspect=0;image=data:image/png,iVBORw0KGgoAAAANSUhEUgAAANsAAADaCAYAAAAv3zflAAAAAXNSR0IArs4c6QAAAARnQU1BAACxjwv8YQUAAAAJcEhZcwAAFxEAABcRAcom8z8AAA/jSURBVHhe7dwLdJTlncdxurrHWCRA7vfL5EYmySQhkdwIIYRLCKBcohIkUgKEawCh4C04NiLQQjmibVWUWkCghdrqaQGFuhakQtFV1uNW12N32x4XLYUCsQoGyLPP/5137JAlFUN4monfzzn/M4nGc+Z9/f3e533fufQAAAAAAAAAAAAAAAAAAAAAAAAAAAAAAAAAAAAAAAAAAAAAAAAAAAAAAAAAgEtTSt2wZ8+eqKi+AbFRAQGxydFBMV1tonv0iIm+/vqYl3fvTtDPN8J+6kDXt2/fvtiGWdMLq0dVjps6aeL8iqKCRkdYkDshJMjtiAi5v6tNQkgfPUH3Vw4a2LRwVv29k6vH3T6irGTwqLKizCfWrAmxNwvoOrZv337Nxo1Ppjc13rO4ZuyY5wtcznec8THHkiPDjjvCQ07IJHXB8T63lMjwv2Y54o8XZmf+cVB+7oHSXNf3J44dM+W7K1dmrd60qade9b5mbyrwz6ODGDCvvm7s+KqRGypKCt4qyHJ+qoOrkiNClCM8WKVEhXkmsgtOVLj13BxhwUqXT7mS4lV2ikNlJsYezUl1HCzOdW2pKi/7pvveewv1dv6rvcmAeW63O/DuRfNHT6gavrPIldEi4U0I6WsFNyki1O9Gr3Ke565HCtgvNkoVZWf+fvzI4Y8vmF0//kePPRbNKod/ium1NSPGV43YVZjl/CQtOsIKaKIeK7RtQtxV51LP01u45MhQq3A5KY4TZQPyD82bNvXOI4cOJdqbD1x9u9atu65h5kxnVXnpwwMynWfS46KtFe1S4U0IDVLxwX1UXBcceV7y/No+b9/nLweQVL1iZycnqtK83DeHFA5YGt77OgoHM+bW1gZXj6pcqK/PjiTra59LlSxel08CLWGWv0nRK5/nGqmLjH4+8rwSw4JUTN9eKqr3DSo2KNBamX23xTvyt7LSJUeGv+mMj1k8ZlhpIqeUuOoKc3OTi7NdO7KTEs9KsdoGVAomK52cgulCqmEDi1VVeZmqLCvtMiPPZ3hpiVyTqX4xkbpovVVs38B2VzrP6XGwSouObMnrl3rk1tFVc5577rkoe5cAnU8fza8dVlo6JDMx4Q1nbLR1xPeGUx4TQj03SIpzstSCWfXq8UcfUZuf/qHatnmT2rppY5cZeT7P/Ohptf77j6rVyx9Ui+bMVjcPq1DOhFgV3jNAhd9w/UUHEc82hljFzEl2qLIb835TM+6miXp//Iu9a4DOdfTo0dA7am6bnZkY/751I8EOo4yEMy64typyZaj7vrlIvX74t+rcuXPq/HmZ811y5PmdPXNWvf/ee2qLLt+MOyZbBwrPKabnhs9F2xkeal3D6e1vLc3P3drU1JTx8svua+3dA3Se/fv3u+bW163NSU36yPemiGdVC9I/B6tpt9eowwcPqpaWz/SB33/85dgx9cbrr6mNT61XU267RWU64q3T4URru/6+wslIGQuzMv6nbvIkd9OSJSn27gE6z4s7d5YsnF2/Ic+Zety3bFI0WQXkrt3yZY3q4+ZmO8L+59Spk+qFX/5SzZ1Rp1xJCSo6sOfn2+ktnGyrKynx3JDCAW/eMWFsjf7PAuxdBHSOvbt3F+myre+fnvIX37LJ3Uf5uSg7S61Z8ZA6dfKkJ7l+quWzz9S+f3tJ1d4y3nq3iWyfZ+W2Tyf1JOvpFxf9SUVR4fpvL3fn6//sGns3AVduz65dhQtmzXiivbKV5OaotatWqhPHj3tS68eam09bN1PGVJRbLw1E65HTR2/ZpHzye1FO1h9vHTu6acuWLbx5GZ3ni8pWnOOyVrbuUDbxvx98oL7d9C2lr1H/30sDciopr9nl6n83uDD/NXlL1xOrVvW2dxVwZb5qZWttbbVOJ2dNneK5ftOrm3WH0l7dZOR0sn966unqUZXbG2bPKLd3FXBlvmplE389cULt2LZFjSwbqCJ6ff2iazfZZvldXsC/MaPfsZuGVTS++OyzYfbuAjruq1g28Yf//r361n13q3xnmoqTd5vo8RbOKp292pXkZr80f8aMiW+//fYN9i4DOuZyyyarQXciL34fPviqaqifbt0UiQz8+kVl874Wp8v4t6ohZT9tvOvObHuXAR1zOWWTu5HNfvw62z/y8x3bVVX5IJUU6bkb6d1+61GXUD44m+dM+1Nl2cCGvLw87k6i4y6nbKsfWq4++vBDdebMGXX69Cl1+pQeefTjaT59Wn38cbM6+JsDaumCefr6LF3F9L30pwRSoiP+lpee+kJVeVntKrc7bs2aB2PlkengrHLHPbxqVZx76dKYcePGhd05bVrQoV27AvWxr3u/Ta69snlvGsi7/O9ZvMi6g3dg36/Vz3b8RD37k23Woz+PrGjP/+yn6sfPbFbL7lqiBuX3t8rme7NExi5fqysp4bQu268XzJn5yNIFDWsXzp25junY3Dln1iOL58/53sxvTP7OyMGDFo+rGjHzgfvuvm3XrudyW1tbe9rR7H7aK5v3CC+nUWOGDrGubeZOr1M1425WE8eOsR79eSaN94y8Z7J69EiVl55mreZtVzbZH/JSgDM+RhW5Mlv0Keex0RXlH8oj07EZNaTs2Oihg48PLSn4QO/3/xiQ6Tw0bGDRnuGDip8aM3TwXdNqa6u2bt0abke0+2ivbL4jL/SmyodF7Q9odqfxbpv83Ha7fUcK5/1bpnNG9qf9/6FVzwVHROg5fbp+8qZhFb+aPmVy/eLFc+J1RLvPR56+qGzyu3zMJiqwpzUxfXp1q4nWI7f9L3Wt5juyH+RvZB8xnTPWHV+9X7371vulTLpwn5YX3PjWiLKS5VlpCWl2VP3f5axsDGNqvAXMSXGoQlfGH0rzsh+qvqnSacfVv32Zsn1+dNc7hGE6Y6wVzSdz8rP396ykBFWcm/XBzSOH3rtp0w/kXTz+/R0xX6Zs8u/ljp28n5BhOmOsO8A6V7458x7U5RP0ruREpU8p906puXVsXV1dLzu2/umLyiYXsPKtWnK9Jhe0+c5+qiTXpQb2z5a3MjFMh8aTH5eVJ8mV5Ety5nujSgonj/kZqR+OGFTyg5lTpiTYsfVPl3ODRL6PUe4eyUsASxY0qIfcy9TKpgfUigfuZ5gOjeRHciR5klxJviRnvvnz/uxKir9Q4Mp4ta6mpsiOrX/6R2WTc+pIfcTJT0+zvq3q5zt2WN/p8e7v/lP917vvqHff+R3DdGis/OgcSZ4kV5IvyZnkTXLnzaCsdPINaK6khPdvGz160oEDB/z3VLK9ssmjbLQs7bW3TFCvvvKKOn/hgucNhUAnklxJviRnni8CvvigLy8JZDni/3RHdXXjK3v3Ouzo+p/2yua9UyTvrHhwWaM69uc/27sG6HySL8mZ5M17x/vzg77OZW5a0rF50+q+t2fnznw7uv6nvbJ534hcmper1q3+jvXGXeBqkXxJziRvkjvJn2/Z5NvfFs6pf+qlF14otqPrf76obPKu/++uXNHtPs+GrkXyJTmTvF2qbJJPyank1Y6u/7mcsnXHT2qja5F8Sc4oG2XDVUbZKBsMoWyUDYZQNsoGQygbZYMhlI2ywRDKRtlgCGWjbDCEslE2GELZKBsMoWyUDYZQNsoGQygbZYMhlI2ywRDKRtlgCGWjbDCEslE2GELZKBsMoWyUDYZQNsoGQygbZYMhlI2ywRDKRtlgCGWjbDCEslE2GELZKBsMoWyUDYZQNsoGQygbZYMhlI2ywRDKRtlgCGWjbDCEslE2GELZKBsMoWyUDYZQNsoGQygbZYMhlI2ywRDKRtlgCGWjbDCEslE2GELZKBsMoWyUDYZQNsoGQygbZYMhlI2ywRDKRtlgCGWjbDCEslE2GELZKBsMoWyUDYZQNsoGQygbZYMhlI2ywRDKRtlgCGWjbDCEslE2GELZKBsMoWyUDYZQNsoGQygbZYMhlI2ywRDKRtlgCGWjbDCEslE2GELZKBsMoWyUDYZQNsoGQygbZYMhlI2ywRDKRtlgCGWjbDCEslE2GELZKBsMoWyUDYZQNsoGQygbZYMhlI2ywRDKRtlgCGWjbDCEslE2GELZKBsMoWyUDYZQNsoGQygbZYMhlI2ywRDKRtlgCGWjbDCEslE2GELZKBsMoWyUDYZQNsoGQygbZYMhlI2ywRDKRtlgCGWjbDCEslE2GELZKBsMoWz655LcHLV21UrKhqtK8iU5k7x127Lt3b27aOHs+vXtla0oO8s64pw6edLeLUDnk3xJziRv7ZVNcip5taPrf17cubNEb8SGPGfqcd+yJYQGqcSwYJWdnKiWL2tUHzc327sF6HySL8mZ5E1yJ/nzLZvkU3IqebWj63/279/vmltftzYnNekj37JZG2ltcLCadnuNOnzwoGppabF3DdB5Wlo+s/IlOZO8Se4uyqHOpeRTcip5taPrf5qPHg2trbl1TmZi/PtJ9gZ6R44wccG99dKeqRqXLFavHz6szp07p86fP68uXNCjH+Vnhvmy8/fsnFP//tphK1+SM8mb5M43h5JLyafkVPJqR9f/6APLtcNKS4dkJia84YyNVsmRYW1WN8+5c3FOlppd9w21bs1qtXHDk+rHz2xW2zZtVFsZpgOzbfMmtfnpH6rHH31ELZhVb+VLSiV58+ZPRvKYHhOlMhLi3pCcSl7t6Pqnwtzc5OJs147spMSzsqFtjyzWObReyhNCg5VLn1NXFA1Qo4YMViMHD1KVZaUM86WnqrxMDRtYrAqynKpfbJSdL891mm/uHBEhqn9aytlB+f13lBUWJtuR9V9za2uDq0dVLtQbfsR3ZfOO/C53h2L6Bqq4oD7WP0uNjlApUeEM07HR+ZGsScHigvt8fvfbN3dStmT9t4ML8o/Mmjpl4YoVK4LtyPqvXevWXdcwc6azqrz04QGZzjPpcdHWkabtxnt3gOwY2UEMcyUTr8f3Zoh35HfJX7pe8QZkOT+dUFX58GPr1jnfa229zo6s/6ufPLFy/MgRuwuznJ+k6SOPQxfLWsovsTMYpjOmba6svOmR/EkOJY+SSzui3Yfb7Q68e9H80ROqhu8scmW0yHIvR5i2dykZ5qqMzpnkTXIn+ZMcSh7dDQ2BdkS7F6VUwLz6urHjq0ZuqCgpeEtfx32a5YhXyfpC1REerHdEmGf0+TbDXNHYWZJcSb4kZ5I3yZ3kT3IoebSj2T1t3779mo0bn0xvarxncc3YMc8XuJzvOONjjukL2uN6qT8ho49CDHNF482S5EryJTmTvEnuJH+SQzuS3d++fftiG2ZNL6weVTlu6qSJ8yuKChodYUHuhJAgtyMi5H6GuZKxcqTzJLmSfEnOJG+SOzuCX02tra29fvWLX0RH9g2IiwwIiEuK6hvLMFcykiPJk+RK8mVHDQAAAAAAAAAAAAAAAAAAAAAAAAAAAAAAAAAAAAAAAAAAAAAAAAAAAAAAAAAu0qPH/wHuZytPzU9dPAAAAABJRU5ErkJggg==;" parent="1" vertex="1">
                    <mxGeometry x="120" y="160" width="40.18" height="40" as="geometry"/>
                </mxCell>
                <mxCell id="25" value="" style="shape=image;verticalLabelPosition=bottom;labelBackgroundColor=#ffffff;verticalAlign=top;aspect=fixed;imageAspect=0;image=data:image/png,iVBORw0KGgoAAAANSUhEUgAAANsAAADaCAYAAAAv3zflAAAAAXNSR0IArs4c6QAAAARnQU1BAACxjwv8YQUAAAAJcEhZcwAAFxEAABcRAcom8z8AAA/jSURBVHhe7dwLdJTlncdxurrHWCRA7vfL5EYmySQhkdwIIYRLCKBcohIkUgKEawCh4C04NiLQQjmibVWUWkCghdrqaQGFuhakQtFV1uNW12N32x4XLYUCsQoGyLPP/5137JAlFUN4monfzzn/M4nGc+Z9/f3e533fufQAAAAAAAAAAAAAAAAAAAAAAAAAAAAAAAAAAAAAAAAAAAAAAAAAAAAAAAAAgEtTSt2wZ8+eqKi+AbFRAQGxydFBMV1tonv0iIm+/vqYl3fvTtDPN8J+6kDXt2/fvtiGWdMLq0dVjps6aeL8iqKCRkdYkDshJMjtiAi5v6tNQkgfPUH3Vw4a2LRwVv29k6vH3T6irGTwqLKizCfWrAmxNwvoOrZv337Nxo1Ppjc13rO4ZuyY5wtcznec8THHkiPDjjvCQ07IJHXB8T63lMjwv2Y54o8XZmf+cVB+7oHSXNf3J44dM+W7K1dmrd60qade9b5mbyrwz6ODGDCvvm7s+KqRGypKCt4qyHJ+qoOrkiNClCM8WKVEhXkmsgtOVLj13BxhwUqXT7mS4lV2ikNlJsYezUl1HCzOdW2pKi/7pvveewv1dv6rvcmAeW63O/DuRfNHT6gavrPIldEi4U0I6WsFNyki1O9Gr3Ke565HCtgvNkoVZWf+fvzI4Y8vmF0//kePPRbNKod/ium1NSPGV43YVZjl/CQtOsIKaKIeK7RtQtxV51LP01u45MhQq3A5KY4TZQPyD82bNvXOI4cOJdqbD1x9u9atu65h5kxnVXnpwwMynWfS46KtFe1S4U0IDVLxwX1UXBcceV7y/No+b9/nLweQVL1iZycnqtK83DeHFA5YGt77OgoHM+bW1gZXj6pcqK/PjiTra59LlSxel08CLWGWv0nRK5/nGqmLjH4+8rwSw4JUTN9eKqr3DSo2KNBamX23xTvyt7LSJUeGv+mMj1k8ZlhpIqeUuOoKc3OTi7NdO7KTEs9KsdoGVAomK52cgulCqmEDi1VVeZmqLCvtMiPPZ3hpiVyTqX4xkbpovVVs38B2VzrP6XGwSouObMnrl3rk1tFVc5577rkoe5cAnU8fza8dVlo6JDMx4Q1nbLR1xPeGUx4TQj03SIpzstSCWfXq8UcfUZuf/qHatnmT2rppY5cZeT7P/Ohptf77j6rVyx9Ui+bMVjcPq1DOhFgV3jNAhd9w/UUHEc82hljFzEl2qLIb835TM+6miXp//Iu9a4DOdfTo0dA7am6bnZkY/751I8EOo4yEMy64typyZaj7vrlIvX74t+rcuXPq/HmZ811y5PmdPXNWvf/ee2qLLt+MOyZbBwrPKabnhs9F2xkeal3D6e1vLc3P3drU1JTx8svua+3dA3Se/fv3u+bW163NSU36yPemiGdVC9I/B6tpt9eowwcPqpaWz/SB33/85dgx9cbrr6mNT61XU267RWU64q3T4URru/6+wslIGQuzMv6nbvIkd9OSJSn27gE6z4s7d5YsnF2/Ic+Zety3bFI0WQXkrt3yZY3q4+ZmO8L+59Spk+qFX/5SzZ1Rp1xJCSo6sOfn2+ktnGyrKynx3JDCAW/eMWFsjf7PAuxdBHSOvbt3F+myre+fnvIX37LJ3Uf5uSg7S61Z8ZA6dfKkJ7l+quWzz9S+f3tJ1d4y3nq3iWyfZ+W2Tyf1JOvpFxf9SUVR4fpvL3fn6//sGns3AVduz65dhQtmzXiivbKV5OaotatWqhPHj3tS68eam09bN1PGVJRbLw1E65HTR2/ZpHzye1FO1h9vHTu6acuWLbx5GZ3ni8pWnOOyVrbuUDbxvx98oL7d9C2lr1H/30sDciopr9nl6n83uDD/NXlL1xOrVvW2dxVwZb5qZWttbbVOJ2dNneK5ftOrm3WH0l7dZOR0sn966unqUZXbG2bPKLd3FXBlvmplE389cULt2LZFjSwbqCJ6ff2iazfZZvldXsC/MaPfsZuGVTS++OyzYfbuAjruq1g28Yf//r361n13q3xnmoqTd5vo8RbOKp292pXkZr80f8aMiW+//fYN9i4DOuZyyyarQXciL34fPviqaqifbt0UiQz8+kVl874Wp8v4t6ohZT9tvOvObHuXAR1zOWWTu5HNfvw62z/y8x3bVVX5IJUU6bkb6d1+61GXUD44m+dM+1Nl2cCGvLw87k6i4y6nbKsfWq4++vBDdebMGXX69Cl1+pQeefTjaT59Wn38cbM6+JsDaumCefr6LF3F9L30pwRSoiP+lpee+kJVeVntKrc7bs2aB2PlkengrHLHPbxqVZx76dKYcePGhd05bVrQoV27AvWxr3u/Ta69snlvGsi7/O9ZvMi6g3dg36/Vz3b8RD37k23Woz+PrGjP/+yn6sfPbFbL7lqiBuX3t8rme7NExi5fqysp4bQu268XzJn5yNIFDWsXzp25junY3Dln1iOL58/53sxvTP7OyMGDFo+rGjHzgfvuvm3XrudyW1tbe9rR7H7aK5v3CC+nUWOGDrGubeZOr1M1425WE8eOsR79eSaN94y8Z7J69EiVl55mreZtVzbZH/JSgDM+RhW5Mlv0Keex0RXlH8oj07EZNaTs2Oihg48PLSn4QO/3/xiQ6Tw0bGDRnuGDip8aM3TwXdNqa6u2bt0abke0+2ivbL4jL/SmyodF7Q9odqfxbpv83Ha7fUcK5/1bpnNG9qf9/6FVzwVHROg5fbp+8qZhFb+aPmVy/eLFc+J1RLvPR56+qGzyu3zMJiqwpzUxfXp1q4nWI7f9L3Wt5juyH+RvZB8xnTPWHV+9X7371vulTLpwn5YX3PjWiLKS5VlpCWl2VP3f5axsDGNqvAXMSXGoQlfGH0rzsh+qvqnSacfVv32Zsn1+dNc7hGE6Y6wVzSdz8rP396ykBFWcm/XBzSOH3rtp0w/kXTz+/R0xX6Zs8u/ljp28n5BhOmOsO8A6V7458x7U5RP0ruREpU8p906puXVsXV1dLzu2/umLyiYXsPKtWnK9Jhe0+c5+qiTXpQb2z5a3MjFMh8aTH5eVJ8mV5Ety5nujSgonj/kZqR+OGFTyg5lTpiTYsfVPl3ODRL6PUe4eyUsASxY0qIfcy9TKpgfUigfuZ5gOjeRHciR5klxJviRnvvnz/uxKir9Q4Mp4ta6mpsiOrX/6R2WTc+pIfcTJT0+zvq3q5zt2WN/p8e7v/lP917vvqHff+R3DdGis/OgcSZ4kV5IvyZnkTXLnzaCsdPINaK6khPdvGz160oEDB/z3VLK9ssmjbLQs7bW3TFCvvvKKOn/hgucNhUAnklxJviRnni8CvvigLy8JZDni/3RHdXXjK3v3Ouzo+p/2yua9UyTvrHhwWaM69uc/27sG6HySL8mZ5M17x/vzg77OZW5a0rF50+q+t2fnznw7uv6nvbJ534hcmper1q3+jvXGXeBqkXxJziRvkjvJn2/Z5NvfFs6pf+qlF14otqPrf76obPKu/++uXNHtPs+GrkXyJTmTvF2qbJJPyank1Y6u/7mcsnXHT2qja5F8Sc4oG2XDVUbZKBsMoWyUDYZQNsoGQygbZYMhlI2ywRDKRtlgCGWjbDCEslE2GELZKBsMoWyUDYZQNsoGQygbZYMhlI2ywRDKRtlgCGWjbDCEslE2GELZKBsMoWyUDYZQNsoGQygbZYMhlI2ywRDKRtlgCGWjbDCEslE2GELZKBsMoWyUDYZQNsoGQygbZYMhlI2ywRDKRtlgCGWjbDCEslE2GELZKBsMoWyUDYZQNsoGQygbZYMhlI2ywRDKRtlgCGWjbDCEslE2GELZKBsMoWyUDYZQNsoGQygbZYMhlI2ywRDKRtlgCGWjbDCEslE2GELZKBsMoWyUDYZQNsoGQygbZYMhlI2ywRDKRtlgCGWjbDCEslE2GELZKBsMoWyUDYZQNsoGQygbZYMhlI2ywRDKRtlgCGWjbDCEslE2GELZKBsMoWyUDYZQNsoGQygbZYMhlI2ywRDKRtlgCGWjbDCEslE2GELZKBsMoWyUDYZQNsoGQygbZYMhlI2ywRDKRtlgCGWjbDCEslE2GELZKBsMoWyUDYZQNsoGQygbZYMhlI2ywRDKRtlgCGWjbDCEslE2GELZKBsMoWyUDYZQNsoGQygbZYMhlI2ywRDKRtlgCGWjbDCEslE2GELZKBsMoWz655LcHLV21UrKhqtK8iU5k7x127Lt3b27aOHs+vXtla0oO8s64pw6edLeLUDnk3xJziRv7ZVNcip5taPrf17cubNEb8SGPGfqcd+yJYQGqcSwYJWdnKiWL2tUHzc327sF6HySL8mZ5E1yJ/nzLZvkU3IqebWj63/279/vmltftzYnNekj37JZG2ltcLCadnuNOnzwoGppabF3DdB5Wlo+s/IlOZO8Se4uyqHOpeRTcip5taPrf5qPHg2trbl1TmZi/PtJ9gZ6R44wccG99dKeqRqXLFavHz6szp07p86fP68uXNCjH+Vnhvmy8/fsnFP//tphK1+SM8mb5M43h5JLyafkVPJqR9f/6APLtcNKS4dkJia84YyNVsmRYW1WN8+5c3FOlppd9w21bs1qtXHDk+rHz2xW2zZtVFsZpgOzbfMmtfnpH6rHH31ELZhVb+VLSiV58+ZPRvKYHhOlMhLi3pCcSl7t6Pqnwtzc5OJs147spMSzsqFtjyzWObReyhNCg5VLn1NXFA1Qo4YMViMHD1KVZaUM86WnqrxMDRtYrAqynKpfbJSdL891mm/uHBEhqn9aytlB+f13lBUWJtuR9V9za2uDq0dVLtQbfsR3ZfOO/C53h2L6Bqq4oD7WP0uNjlApUeEM07HR+ZGsScHigvt8fvfbN3dStmT9t4ML8o/Mmjpl4YoVK4LtyPqvXevWXdcwc6azqrz04QGZzjPpcdHWkabtxnt3gOwY2UEMcyUTr8f3Zoh35HfJX7pe8QZkOT+dUFX58GPr1jnfa229zo6s/6ufPLFy/MgRuwuznJ+k6SOPQxfLWsovsTMYpjOmba6svOmR/EkOJY+SSzui3Yfb7Q68e9H80ROqhu8scmW0yHIvR5i2dykZ5qqMzpnkTXIn+ZMcSh7dDQ2BdkS7F6VUwLz6urHjq0ZuqCgpeEtfx32a5YhXyfpC1REerHdEmGf0+TbDXNHYWZJcSb4kZ5I3yZ3kT3IoebSj2T1t3779mo0bn0xvarxncc3YMc8XuJzvOONjjukL2uN6qT8ho49CDHNF482S5EryJTmTvEnuJH+SQzuS3d++fftiG2ZNL6weVTlu6qSJ8yuKChodYUHuhJAgtyMi5H6GuZKxcqTzJLmSfEnOJG+SOzuCX02tra29fvWLX0RH9g2IiwwIiEuK6hvLMFcykiPJk+RK8mVHDQAAAAAAAAAAAAAAAAAAAAAAAAAAAAAAAAAAAAAAAAAAAAAAAAAAAAAAAAAu0qPH/wHuZytPzU9dPAAAAABJRU5ErkJggg==;" parent="1" vertex="1">
                    <mxGeometry x="120" y="240" width="40.18" height="40" as="geometry"/>
                </mxCell>
                <mxCell id="26" value="" style="shape=image;verticalLabelPosition=bottom;labelBackgroundColor=#ffffff;verticalAlign=top;aspect=fixed;imageAspect=0;image=data:image/png,iVBORw0KGgoAAAANSUhEUgAAANsAAADaCAYAAAAv3zflAAAAAXNSR0IArs4c6QAAAARnQU1BAACxjwv8YQUAAAAJcEhZcwAAFxEAABcRAcom8z8AAA/jSURBVHhe7dwLdJTlncdxurrHWCRA7vfL5EYmySQhkdwIIYRLCKBcohIkUgKEawCh4C04NiLQQjmibVWUWkCghdrqaQGFuhakQtFV1uNW12N32x4XLYUCsQoGyLPP/5137JAlFUN4monfzzn/M4nGc+Z9/f3e533fufQAAAAAAAAAAAAAAAAAAAAAAAAAAAAAAAAAAAAAAAAAAAAAAAAAAAAAAAAAgEtTSt2wZ8+eqKi+AbFRAQGxydFBMV1tonv0iIm+/vqYl3fvTtDPN8J+6kDXt2/fvtiGWdMLq0dVjps6aeL8iqKCRkdYkDshJMjtiAi5v6tNQkgfPUH3Vw4a2LRwVv29k6vH3T6irGTwqLKizCfWrAmxNwvoOrZv337Nxo1Ppjc13rO4ZuyY5wtcznec8THHkiPDjjvCQ07IJHXB8T63lMjwv2Y54o8XZmf+cVB+7oHSXNf3J44dM+W7K1dmrd60qade9b5mbyrwz6ODGDCvvm7s+KqRGypKCt4qyHJ+qoOrkiNClCM8WKVEhXkmsgtOVLj13BxhwUqXT7mS4lV2ikNlJsYezUl1HCzOdW2pKi/7pvveewv1dv6rvcmAeW63O/DuRfNHT6gavrPIldEi4U0I6WsFNyki1O9Gr3Ke565HCtgvNkoVZWf+fvzI4Y8vmF0//kePPRbNKod/ium1NSPGV43YVZjl/CQtOsIKaKIeK7RtQtxV51LP01u45MhQq3A5KY4TZQPyD82bNvXOI4cOJdqbD1x9u9atu65h5kxnVXnpwwMynWfS46KtFe1S4U0IDVLxwX1UXBcceV7y/No+b9/nLweQVL1iZycnqtK83DeHFA5YGt77OgoHM+bW1gZXj6pcqK/PjiTra59LlSxel08CLWGWv0nRK5/nGqmLjH4+8rwSw4JUTN9eKqr3DSo2KNBamX23xTvyt7LSJUeGv+mMj1k8ZlhpIqeUuOoKc3OTi7NdO7KTEs9KsdoGVAomK52cgulCqmEDi1VVeZmqLCvtMiPPZ3hpiVyTqX4xkbpovVVs38B2VzrP6XGwSouObMnrl3rk1tFVc5577rkoe5cAnU8fza8dVlo6JDMx4Q1nbLR1xPeGUx4TQj03SIpzstSCWfXq8UcfUZuf/qHatnmT2rppY5cZeT7P/Ohptf77j6rVyx9Ui+bMVjcPq1DOhFgV3jNAhd9w/UUHEc82hljFzEl2qLIb835TM+6miXp//Iu9a4DOdfTo0dA7am6bnZkY/751I8EOo4yEMy64typyZaj7vrlIvX74t+rcuXPq/HmZ811y5PmdPXNWvf/ee2qLLt+MOyZbBwrPKabnhs9F2xkeal3D6e1vLc3P3drU1JTx8svua+3dA3Se/fv3u+bW163NSU36yPemiGdVC9I/B6tpt9eowwcPqpaWz/SB33/85dgx9cbrr6mNT61XU267RWU64q3T4URru/6+wslIGQuzMv6nbvIkd9OSJSn27gE6z4s7d5YsnF2/Ic+Zety3bFI0WQXkrt3yZY3q4+ZmO8L+59Spk+qFX/5SzZ1Rp1xJCSo6sOfn2+ktnGyrKynx3JDCAW/eMWFsjf7PAuxdBHSOvbt3F+myre+fnvIX37LJ3Uf5uSg7S61Z8ZA6dfKkJ7l+quWzz9S+f3tJ1d4y3nq3iWyfZ+W2Tyf1JOvpFxf9SUVR4fpvL3fn6//sGns3AVduz65dhQtmzXiivbKV5OaotatWqhPHj3tS68eam09bN1PGVJRbLw1E65HTR2/ZpHzye1FO1h9vHTu6acuWLbx5GZ3ni8pWnOOyVrbuUDbxvx98oL7d9C2lr1H/30sDciopr9nl6n83uDD/NXlL1xOrVvW2dxVwZb5qZWttbbVOJ2dNneK5ftOrm3WH0l7dZOR0sn966unqUZXbG2bPKLd3FXBlvmplE389cULt2LZFjSwbqCJ6ff2iazfZZvldXsC/MaPfsZuGVTS++OyzYfbuAjruq1g28Yf//r361n13q3xnmoqTd5vo8RbOKp292pXkZr80f8aMiW+//fYN9i4DOuZyyyarQXciL34fPviqaqifbt0UiQz8+kVl874Wp8v4t6ohZT9tvOvObHuXAR1zOWWTu5HNfvw62z/y8x3bVVX5IJUU6bkb6d1+61GXUD44m+dM+1Nl2cCGvLw87k6i4y6nbKsfWq4++vBDdebMGXX69Cl1+pQeefTjaT59Wn38cbM6+JsDaumCefr6LF3F9L30pwRSoiP+lpee+kJVeVntKrc7bs2aB2PlkengrHLHPbxqVZx76dKYcePGhd05bVrQoV27AvWxr3u/Ta69snlvGsi7/O9ZvMi6g3dg36/Vz3b8RD37k23Woz+PrGjP/+yn6sfPbFbL7lqiBuX3t8rme7NExi5fqysp4bQu268XzJn5yNIFDWsXzp25junY3Dln1iOL58/53sxvTP7OyMGDFo+rGjHzgfvuvm3XrudyW1tbe9rR7H7aK5v3CC+nUWOGDrGubeZOr1M1425WE8eOsR79eSaN94y8Z7J69EiVl55mreZtVzbZH/JSgDM+RhW5Mlv0Keex0RXlH8oj07EZNaTs2Oihg48PLSn4QO/3/xiQ6Tw0bGDRnuGDip8aM3TwXdNqa6u2bt0abke0+2ivbL4jL/SmyodF7Q9odqfxbpv83Ha7fUcK5/1bpnNG9qf9/6FVzwVHROg5fbp+8qZhFb+aPmVy/eLFc+J1RLvPR56+qGzyu3zMJiqwpzUxfXp1q4nWI7f9L3Wt5juyH+RvZB8xnTPWHV+9X7371vulTLpwn5YX3PjWiLKS5VlpCWl2VP3f5axsDGNqvAXMSXGoQlfGH0rzsh+qvqnSacfVv32Zsn1+dNc7hGE6Y6wVzSdz8rP396ykBFWcm/XBzSOH3rtp0w/kXTz+/R0xX6Zs8u/ljp28n5BhOmOsO8A6V7458x7U5RP0ruREpU8p906puXVsXV1dLzu2/umLyiYXsPKtWnK9Jhe0+c5+qiTXpQb2z5a3MjFMh8aTH5eVJ8mV5Ety5nujSgonj/kZqR+OGFTyg5lTpiTYsfVPl3ODRL6PUe4eyUsASxY0qIfcy9TKpgfUigfuZ5gOjeRHciR5klxJviRnvvnz/uxKir9Q4Mp4ta6mpsiOrX/6R2WTc+pIfcTJT0+zvq3q5zt2WN/p8e7v/lP917vvqHff+R3DdGis/OgcSZ4kV5IvyZnkTXLnzaCsdPINaK6khPdvGz160oEDB/z3VLK9ssmjbLQs7bW3TFCvvvKKOn/hgucNhUAnklxJviRnni8CvvigLy8JZDni/3RHdXXjK3v3Ouzo+p/2yua9UyTvrHhwWaM69uc/27sG6HySL8mZ5M17x/vzg77OZW5a0rF50+q+t2fnznw7uv6nvbJ534hcmper1q3+jvXGXeBqkXxJziRvkjvJn2/Z5NvfFs6pf+qlF14otqPrf76obPKu/++uXNHtPs+GrkXyJTmTvF2qbJJPyank1Y6u/7mcsnXHT2qja5F8Sc4oG2XDVUbZKBsMoWyUDYZQNsoGQygbZYMhlI2ywRDKRtlgCGWjbDCEslE2GELZKBsMoWyUDYZQNsoGQygbZYMhlI2ywRDKRtlgCGWjbDCEslE2GELZKBsMoWyUDYZQNsoGQygbZYMhlI2ywRDKRtlgCGWjbDCEslE2GELZKBsMoWyUDYZQNsoGQygbZYMhlI2ywRDKRtlgCGWjbDCEslE2GELZKBsMoWyUDYZQNsoGQygbZYMhlI2ywRDKRtlgCGWjbDCEslE2GELZKBsMoWyUDYZQNsoGQygbZYMhlI2ywRDKRtlgCGWjbDCEslE2GELZKBsMoWyUDYZQNsoGQygbZYMhlI2ywRDKRtlgCGWjbDCEslE2GELZKBsMoWyUDYZQNsoGQygbZYMhlI2ywRDKRtlgCGWjbDCEslE2GELZKBsMoWyUDYZQNsoGQygbZYMhlI2ywRDKRtlgCGWjbDCEslE2GELZKBsMoWyUDYZQNsoGQygbZYMhlI2ywRDKRtlgCGWjbDCEslE2GELZKBsMoWyUDYZQNsoGQygbZYMhlI2ywRDKRtlgCGWjbDCEslE2GELZKBsMoWyUDYZQNsoGQygbZYMhlI2ywRDKRtlgCGWjbDCEslE2GELZKBsMoWz655LcHLV21UrKhqtK8iU5k7x127Lt3b27aOHs+vXtla0oO8s64pw6edLeLUDnk3xJziRv7ZVNcip5taPrf17cubNEb8SGPGfqcd+yJYQGqcSwYJWdnKiWL2tUHzc327sF6HySL8mZ5E1yJ/nzLZvkU3IqebWj63/279/vmltftzYnNekj37JZG2ltcLCadnuNOnzwoGppabF3DdB5Wlo+s/IlOZO8Se4uyqHOpeRTcip5taPrf5qPHg2trbl1TmZi/PtJ9gZ6R44wccG99dKeqRqXLFavHz6szp07p86fP68uXNCjH+Vnhvmy8/fsnFP//tphK1+SM8mb5M43h5JLyafkVPJqR9f/6APLtcNKS4dkJia84YyNVsmRYW1WN8+5c3FOlppd9w21bs1qtXHDk+rHz2xW2zZtVFsZpgOzbfMmtfnpH6rHH31ELZhVb+VLSiV58+ZPRvKYHhOlMhLi3pCcSl7t6Pqnwtzc5OJs147spMSzsqFtjyzWObReyhNCg5VLn1NXFA1Qo4YMViMHD1KVZaUM86WnqrxMDRtYrAqynKpfbJSdL891mm/uHBEhqn9aytlB+f13lBUWJtuR9V9za2uDq0dVLtQbfsR3ZfOO/C53h2L6Bqq4oD7WP0uNjlApUeEM07HR+ZGsScHigvt8fvfbN3dStmT9t4ML8o/Mmjpl4YoVK4LtyPqvXevWXdcwc6azqrz04QGZzjPpcdHWkabtxnt3gOwY2UEMcyUTr8f3Zoh35HfJX7pe8QZkOT+dUFX58GPr1jnfa229zo6s/6ufPLFy/MgRuwuznJ+k6SOPQxfLWsovsTMYpjOmba6svOmR/EkOJY+SSzui3Yfb7Q68e9H80ROqhu8scmW0yHIvR5i2dykZ5qqMzpnkTXIn+ZMcSh7dDQ2BdkS7F6VUwLz6urHjq0ZuqCgpeEtfx32a5YhXyfpC1REerHdEmGf0+TbDXNHYWZJcSb4kZ5I3yZ3kT3IoebSj2T1t3779mo0bn0xvarxncc3YMc8XuJzvOONjjukL2uN6qT8ho49CDHNF482S5EryJTmTvEnuJH+SQzuS3d++fftiG2ZNL6weVTlu6qSJ8yuKChodYUHuhJAgtyMi5H6GuZKxcqTzJLmSfEnOJG+SOzuCX02tra29fvWLX0RH9g2IiwwIiEuK6hvLMFcykiPJk+RK8mVHDQAAAAAAAAAAAAAAAAAAAAAAAAAAAAAAAAAAAAAAAAAAAAAAAAAAAAAAAAAu0qPH/wHuZytPzU9dPAAAAABJRU5ErkJggg==;" parent="1" vertex="1">
                    <mxGeometry x="120" y="200" width="40.18" height="40" as="geometry"/>
                </mxCell>
                <mxCell id="28" style="edgeStyle=orthogonalEdgeStyle;html=1;fontFamily=Noto Sans JP;fontSource=https%3A%2F%2Ffonts.googleapis.com%2Fcss%3Ffamily%3DNoto%2BSans%2BJP;fontSize=18;endArrow=none;endFill=0;rounded=0;strokeColor=#000000;exitX=0.5;exitY=1;exitDx=0;exitDy=0;entryX=0;entryY=0.5;entryDx=0;entryDy=0;" parent="1" source="14" target="25" edge="1">
                    <mxGeometry relative="1" as="geometry">
                        <mxPoint x="70.09000000000009" y="90" as="sourcePoint"/>
                        <mxPoint x="90.18" y="350" as="targetPoint"/>
                    </mxGeometry>
                </mxCell>
                <mxCell id="29" style="edgeStyle=orthogonalEdgeStyle;html=1;fontFamily=Noto Sans JP;fontSource=https%3A%2F%2Ffonts.googleapis.com%2Fcss%3Ffamily%3DNoto%2BSans%2BJP;fontSize=18;endArrow=none;endFill=0;rounded=0;strokeColor=#000000;entryX=0;entryY=0.5;entryDx=0;entryDy=0;" parent="1" target="26" edge="1">
                    <mxGeometry relative="1" as="geometry">
                        <mxPoint x="99.82" y="220" as="sourcePoint"/>
                        <mxPoint x="100.18" y="360" as="targetPoint"/>
                    </mxGeometry>
                </mxCell>
                <mxCell id="30" style="edgeStyle=orthogonalEdgeStyle;html=1;fontFamily=Noto Sans JP;fontSource=https%3A%2F%2Ffonts.googleapis.com%2Fcss%3Ffamily%3DNoto%2BSans%2BJP;fontSize=18;endArrow=none;endFill=0;rounded=0;strokeColor=#000000;entryX=0;entryY=0.5;entryDx=0;entryDy=0;" parent="1" target="24" edge="1">
                    <mxGeometry relative="1" as="geometry">
                        <mxPoint x="99.82" y="180" as="sourcePoint"/>
                        <mxPoint x="129.99999999999994" y="230" as="targetPoint"/>
                    </mxGeometry>
                </mxCell>
                <mxCell id="31" style="edgeStyle=orthogonalEdgeStyle;html=1;fontFamily=Noto Sans JP;fontSource=https%3A%2F%2Ffonts.googleapis.com%2Fcss%3Ffamily%3DNoto%2BSans%2BJP;fontSize=18;endArrow=none;endFill=0;rounded=0;strokeColor=#000000;entryX=0;entryY=0.5;entryDx=0;entryDy=0;" parent="1" target="23" edge="1">
                    <mxGeometry relative="1" as="geometry">
                        <mxPoint x="99.82" y="140" as="sourcePoint"/>
                        <mxPoint x="129.99999999999994" y="190" as="targetPoint"/>
                    </mxGeometry>
                </mxCell>
                <mxCell id="32" value="AaaSubSystem.ApplicationCore" style="text;html=1;strokeColor=none;fillColor=none;align=left;verticalAlign=middle;whiteSpace=wrap;rounded=0;fontFamily=Noto Sans JP;fontSource=https%3A%2F%2Ffonts.googleapis.com%2Fcss%3Ffamily%3DNoto%2BSans%2BJP;fontSize=18;fontColor=#000000;" parent="1" vertex="1">
                    <mxGeometry x="169.82" y="120" width="280" height="40" as="geometry"/>
                </mxCell>
                <mxCell id="33" value="AaaSubSystem.EfInfrastructure" style="text;html=1;strokeColor=none;fillColor=none;align=left;verticalAlign=middle;whiteSpace=wrap;rounded=0;fontFamily=Noto Sans JP;fontSource=https%3A%2F%2Ffonts.googleapis.com%2Fcss%3Ffamily%3DNoto%2BSans%2BJP;fontSize=18;fontColor=#000000;" parent="1" vertex="1">
                    <mxGeometry x="169.82" y="160" width="280" height="40" as="geometry"/>
                </mxCell>
                <mxCell id="34" value="AaaSubSystem.Web" style="text;html=1;strokeColor=none;fillColor=none;align=left;verticalAlign=middle;whiteSpace=wrap;rounded=0;fontFamily=Noto Sans JP;fontSource=https%3A%2F%2Ffonts.googleapis.com%2Fcss%3Ffamily%3DNoto%2BSans%2BJP;fontSize=18;fontColor=#000000;" parent="1" vertex="1">
                    <mxGeometry x="169.82" y="200" width="280" height="40" as="geometry"/>
                </mxCell>
                <mxCell id="35" value="AaaSubSystem.Web.Dto" style="text;html=1;strokeColor=none;fillColor=none;align=left;verticalAlign=middle;whiteSpace=wrap;rounded=0;fontFamily=Noto Sans JP;fontSource=https%3A%2F%2Ffonts.googleapis.com%2Fcss%3Ffamily%3DNoto%2BSans%2BJP;fontSize=18;fontColor=#000000;" parent="1" vertex="1">
                    <mxGeometry x="169.82" y="240" width="280" height="40" as="geometry"/>
                </mxCell>
                <mxCell id="36" value="" style="shape=image;verticalLabelPosition=bottom;labelBackgroundColor=#ffffff;verticalAlign=top;aspect=fixed;imageAspect=0;image=data:image/png,iVBORw0KGgoAAAANSUhEUgAAANsAAADaCAYAAAAv3zflAAAAAXNSR0IArs4c6QAAAARnQU1BAACxjwv8YQUAAAAJcEhZcwAAFxEAABcRAcom8z8AAA/jSURBVHhe7dwLdJTlncdxurrHWCRA7vfL5EYmySQhkdwIIYRLCKBcohIkUgKEawCh4C04NiLQQjmibVWUWkCghdrqaQGFuhakQtFV1uNW12N32x4XLYUCsQoGyLPP/5137JAlFUN4monfzzn/M4nGc+Z9/f3e533fufQAAAAAAAAAAAAAAAAAAAAAAAAAAAAAAAAAAAAAAAAAAAAAAAAAAAAAAAAAgEtTSt2wZ8+eqKi+AbFRAQGxydFBMV1tonv0iIm+/vqYl3fvTtDPN8J+6kDXt2/fvtiGWdMLq0dVjps6aeL8iqKCRkdYkDshJMjtiAi5v6tNQkgfPUH3Vw4a2LRwVv29k6vH3T6irGTwqLKizCfWrAmxNwvoOrZv337Nxo1Ppjc13rO4ZuyY5wtcznec8THHkiPDjjvCQ07IJHXB8T63lMjwv2Y54o8XZmf+cVB+7oHSXNf3J44dM+W7K1dmrd60qade9b5mbyrwz6ODGDCvvm7s+KqRGypKCt4qyHJ+qoOrkiNClCM8WKVEhXkmsgtOVLj13BxhwUqXT7mS4lV2ikNlJsYezUl1HCzOdW2pKi/7pvveewv1dv6rvcmAeW63O/DuRfNHT6gavrPIldEi4U0I6WsFNyki1O9Gr3Ke565HCtgvNkoVZWf+fvzI4Y8vmF0//kePPRbNKod/ium1NSPGV43YVZjl/CQtOsIKaKIeK7RtQtxV51LP01u45MhQq3A5KY4TZQPyD82bNvXOI4cOJdqbD1x9u9atu65h5kxnVXnpwwMynWfS46KtFe1S4U0IDVLxwX1UXBcceV7y/No+b9/nLweQVL1iZycnqtK83DeHFA5YGt77OgoHM+bW1gZXj6pcqK/PjiTra59LlSxel08CLWGWv0nRK5/nGqmLjH4+8rwSw4JUTN9eKqr3DSo2KNBamX23xTvyt7LSJUeGv+mMj1k8ZlhpIqeUuOoKc3OTi7NdO7KTEs9KsdoGVAomK52cgulCqmEDi1VVeZmqLCvtMiPPZ3hpiVyTqX4xkbpovVVs38B2VzrP6XGwSouObMnrl3rk1tFVc5577rkoe5cAnU8fza8dVlo6JDMx4Q1nbLR1xPeGUx4TQj03SIpzstSCWfXq8UcfUZuf/qHatnmT2rppY5cZeT7P/Ohptf77j6rVyx9Ui+bMVjcPq1DOhFgV3jNAhd9w/UUHEc82hljFzEl2qLIb835TM+6miXp//Iu9a4DOdfTo0dA7am6bnZkY/751I8EOo4yEMy64typyZaj7vrlIvX74t+rcuXPq/HmZ811y5PmdPXNWvf/ee2qLLt+MOyZbBwrPKabnhs9F2xkeal3D6e1vLc3P3drU1JTx8svua+3dA3Se/fv3u+bW163NSU36yPemiGdVC9I/B6tpt9eowwcPqpaWz/SB33/85dgx9cbrr6mNT61XU267RWU64q3T4URru/6+wslIGQuzMv6nbvIkd9OSJSn27gE6z4s7d5YsnF2/Ic+Zety3bFI0WQXkrt3yZY3q4+ZmO8L+59Spk+qFX/5SzZ1Rp1xJCSo6sOfn2+ktnGyrKynx3JDCAW/eMWFsjf7PAuxdBHSOvbt3F+myre+fnvIX37LJ3Uf5uSg7S61Z8ZA6dfKkJ7l+quWzz9S+f3tJ1d4y3nq3iWyfZ+W2Tyf1JOvpFxf9SUVR4fpvL3fn6//sGns3AVduz65dhQtmzXiivbKV5OaotatWqhPHj3tS68eam09bN1PGVJRbLw1E65HTR2/ZpHzye1FO1h9vHTu6acuWLbx5GZ3ni8pWnOOyVrbuUDbxvx98oL7d9C2lr1H/30sDciopr9nl6n83uDD/NXlL1xOrVvW2dxVwZb5qZWttbbVOJ2dNneK5ftOrm3WH0l7dZOR0sn966unqUZXbG2bPKLd3FXBlvmplE389cULt2LZFjSwbqCJ6ff2iazfZZvldXsC/MaPfsZuGVTS++OyzYfbuAjruq1g28Yf//r361n13q3xnmoqTd5vo8RbOKp292pXkZr80f8aMiW+//fYN9i4DOuZyyyarQXciL34fPviqaqifbt0UiQz8+kVl874Wp8v4t6ohZT9tvOvObHuXAR1zOWWTu5HNfvw62z/y8x3bVVX5IJUU6bkb6d1+61GXUD44m+dM+1Nl2cCGvLw87k6i4y6nbKsfWq4++vBDdebMGXX69Cl1+pQeefTjaT59Wn38cbM6+JsDaumCefr6LF3F9L30pwRSoiP+lpee+kJVeVntKrc7bs2aB2PlkengrHLHPbxqVZx76dKYcePGhd05bVrQoV27AvWxr3u/Ta69snlvGsi7/O9ZvMi6g3dg36/Vz3b8RD37k23Woz+PrGjP/+yn6sfPbFbL7lqiBuX3t8rme7NExi5fqysp4bQu268XzJn5yNIFDWsXzp25junY3Dln1iOL58/53sxvTP7OyMGDFo+rGjHzgfvuvm3XrudyW1tbe9rR7H7aK5v3CC+nUWOGDrGubeZOr1M1425WE8eOsR79eSaN94y8Z7J69EiVl55mreZtVzbZH/JSgDM+RhW5Mlv0Keex0RXlH8oj07EZNaTs2Oihg48PLSn4QO/3/xiQ6Tw0bGDRnuGDip8aM3TwXdNqa6u2bt0abke0+2ivbL4jL/SmyodF7Q9odqfxbpv83Ha7fUcK5/1bpnNG9qf9/6FVzwVHROg5fbp+8qZhFb+aPmVy/eLFc+J1RLvPR56+qGzyu3zMJiqwpzUxfXp1q4nWI7f9L3Wt5juyH+RvZB8xnTPWHV+9X7371vulTLpwn5YX3PjWiLKS5VlpCWl2VP3f5axsDGNqvAXMSXGoQlfGH0rzsh+qvqnSacfVv32Zsn1+dNc7hGE6Y6wVzSdz8rP396ykBFWcm/XBzSOH3rtp0w/kXTz+/R0xX6Zs8u/ljp28n5BhOmOsO8A6V7458x7U5RP0ruREpU8p906puXVsXV1dLzu2/umLyiYXsPKtWnK9Jhe0+c5+qiTXpQb2z5a3MjFMh8aTH5eVJ8mV5Ety5nujSgonj/kZqR+OGFTyg5lTpiTYsfVPl3ODRL6PUe4eyUsASxY0qIfcy9TKpgfUigfuZ5gOjeRHciR5klxJviRnvvnz/uxKir9Q4Mp4ta6mpsiOrX/6R2WTc+pIfcTJT0+zvq3q5zt2WN/p8e7v/lP917vvqHff+R3DdGis/OgcSZ4kV5IvyZnkTXLnzaCsdPINaK6khPdvGz160oEDB/z3VLK9ssmjbLQs7bW3TFCvvvKKOn/hgucNhUAnklxJviRnni8CvvigLy8JZDni/3RHdXXjK3v3Ouzo+p/2yua9UyTvrHhwWaM69uc/27sG6HySL8mZ5M17x/vzg77OZW5a0rF50+q+t2fnznw7uv6nvbJ534hcmper1q3+jvXGXeBqkXxJziRvkjvJn2/Z5NvfFs6pf+qlF14otqPrf76obPKu/++uXNHtPs+GrkXyJTmTvF2qbJJPyank1Y6u/7mcsnXHT2qja5F8Sc4oG2XDVUbZKBsMoWyUDYZQNsoGQygbZYMhlI2ywRDKRtlgCGWjbDCEslE2GELZKBsMoWyUDYZQNsoGQygbZYMhlI2ywRDKRtlgCGWjbDCEslE2GELZKBsMoWyUDYZQNsoGQygbZYMhlI2ywRDKRtlgCGWjbDCEslE2GELZKBsMoWyUDYZQNsoGQygbZYMhlI2ywRDKRtlgCGWjbDCEslE2GELZKBsMoWyUDYZQNsoGQygbZYMhlI2ywRDKRtlgCGWjbDCEslE2GELZKBsMoWyUDYZQNsoGQygbZYMhlI2ywRDKRtlgCGWjbDCEslE2GELZKBsMoWyUDYZQNsoGQygbZYMhlI2ywRDKRtlgCGWjbDCEslE2GELZKBsMoWyUDYZQNsoGQygbZYMhlI2ywRDKRtlgCGWjbDCEslE2GELZKBsMoWyUDYZQNsoGQygbZYMhlI2ywRDKRtlgCGWjbDCEslE2GELZKBsMoWyUDYZQNsoGQygbZYMhlI2ywRDKRtlgCGWjbDCEslE2GELZKBsMoWyUDYZQNsoGQygbZYMhlI2ywRDKRtlgCGWjbDCEslE2GELZKBsMoWyUDYZQNsoGQygbZYMhlI2ywRDKRtlgCGWjbDCEslE2GELZKBsMoWz655LcHLV21UrKhqtK8iU5k7x127Lt3b27aOHs+vXtla0oO8s64pw6edLeLUDnk3xJziRv7ZVNcip5taPrf17cubNEb8SGPGfqcd+yJYQGqcSwYJWdnKiWL2tUHzc327sF6HySL8mZ5E1yJ/nzLZvkU3IqebWj63/279/vmltftzYnNekj37JZG2ltcLCadnuNOnzwoGppabF3DdB5Wlo+s/IlOZO8Se4uyqHOpeRTcip5taPrf5qPHg2trbl1TmZi/PtJ9gZ6R44wccG99dKeqRqXLFavHz6szp07p86fP68uXNCjH+Vnhvmy8/fsnFP//tphK1+SM8mb5M43h5JLyafkVPJqR9f/6APLtcNKS4dkJia84YyNVsmRYW1WN8+5c3FOlppd9w21bs1qtXHDk+rHz2xW2zZtVFsZpgOzbfMmtfnpH6rHH31ELZhVb+VLSiV58+ZPRvKYHhOlMhLi3pCcSl7t6Pqnwtzc5OJs147spMSzsqFtjyzWObReyhNCg5VLn1NXFA1Qo4YMViMHD1KVZaUM86WnqrxMDRtYrAqynKpfbJSdL891mm/uHBEhqn9aytlB+f13lBUWJtuR9V9za2uDq0dVLtQbfsR3ZfOO/C53h2L6Bqq4oD7WP0uNjlApUeEM07HR+ZGsScHigvt8fvfbN3dStmT9t4ML8o/Mmjpl4YoVK4LtyPqvXevWXdcwc6azqrz04QGZzjPpcdHWkabtxnt3gOwY2UEMcyUTr8f3Zoh35HfJX7pe8QZkOT+dUFX58GPr1jnfa229zo6s/6ufPLFy/MgRuwuznJ+k6SOPQxfLWsovsTMYpjOmba6svOmR/EkOJY+SSzui3Yfb7Q68e9H80ROqhu8scmW0yHIvR5i2dykZ5qqMzpnkTXIn+ZMcSh7dDQ2BdkS7F6VUwLz6urHjq0ZuqCgpeEtfx32a5YhXyfpC1REerHdEmGf0+TbDXNHYWZJcSb4kZ5I3yZ3kT3IoebSj2T1t3779mo0bn0xvarxncc3YMc8XuJzvOONjjukL2uN6qT8ho49CDHNF482S5EryJTmTvEnuJH+SQzuS3d++fftiG2ZNL6weVTlu6qSJ8yuKChodYUHuhJAgtyMi5H6GuZKxcqTzJLmSfEnOJG+SOzuCX02tra29fvWLX0RH9g2IiwwIiEuK6hvLMFcykiPJk+RK8mVHDQAAAAAAAAAAAAAAAAAAAAAAAAAAAAAAAAAAAAAAAAAAAAAAAAAAAAAAAAAu0qPH/wHuZytPzU9dPAAAAABJRU5ErkJggg==;" parent="1" vertex="1">
                    <mxGeometry x="120" y="320" width="40.18" height="40" as="geometry"/>
                </mxCell>
                <mxCell id="37" value="AaaSubSystem.UnitTests" style="text;html=1;strokeColor=none;fillColor=none;align=left;verticalAlign=middle;whiteSpace=wrap;rounded=0;fontFamily=Noto Sans JP;fontSource=https%3A%2F%2Ffonts.googleapis.com%2Fcss%3Ffamily%3DNoto%2BSans%2BJP;fontSize=18;fontColor=#000000;" parent="1" vertex="1">
                    <mxGeometry x="169.82" y="320" width="280" height="40" as="geometry"/>
                </mxCell>
                <mxCell id="38" value="" style="shape=image;verticalLabelPosition=bottom;labelBackgroundColor=#ffffff;verticalAlign=top;aspect=fixed;imageAspect=0;image=data:image/png,iVBORw0KGgoAAAANSUhEUgAAANsAAADaCAYAAAAv3zflAAAAAXNSR0IArs4c6QAAAARnQU1BAACxjwv8YQUAAAAJcEhZcwAAFxEAABcRAcom8z8AAA/jSURBVHhe7dwLdJTlncdxurrHWCRA7vfL5EYmySQhkdwIIYRLCKBcohIkUgKEawCh4C04NiLQQjmibVWUWkCghdrqaQGFuhakQtFV1uNW12N32x4XLYUCsQoGyLPP/5137JAlFUN4monfzzn/M4nGc+Z9/f3e533fufQAAAAAAAAAAAAAAAAAAAAAAAAAAAAAAAAAAAAAAAAAAAAAAAAAAAAAAAAAgEtTSt2wZ8+eqKi+AbFRAQGxydFBMV1tonv0iIm+/vqYl3fvTtDPN8J+6kDXt2/fvtiGWdMLq0dVjps6aeL8iqKCRkdYkDshJMjtiAi5v6tNQkgfPUH3Vw4a2LRwVv29k6vH3T6irGTwqLKizCfWrAmxNwvoOrZv337Nxo1Ppjc13rO4ZuyY5wtcznec8THHkiPDjjvCQ07IJHXB8T63lMjwv2Y54o8XZmf+cVB+7oHSXNf3J44dM+W7K1dmrd60qade9b5mbyrwz6ODGDCvvm7s+KqRGypKCt4qyHJ+qoOrkiNClCM8WKVEhXkmsgtOVLj13BxhwUqXT7mS4lV2ikNlJsYezUl1HCzOdW2pKi/7pvveewv1dv6rvcmAeW63O/DuRfNHT6gavrPIldEi4U0I6WsFNyki1O9Gr3Ke565HCtgvNkoVZWf+fvzI4Y8vmF0//kePPRbNKod/ium1NSPGV43YVZjl/CQtOsIKaKIeK7RtQtxV51LP01u45MhQq3A5KY4TZQPyD82bNvXOI4cOJdqbD1x9u9atu65h5kxnVXnpwwMynWfS46KtFe1S4U0IDVLxwX1UXBcceV7y/No+b9/nLweQVL1iZycnqtK83DeHFA5YGt77OgoHM+bW1gZXj6pcqK/PjiTra59LlSxel08CLWGWv0nRK5/nGqmLjH4+8rwSw4JUTN9eKqr3DSo2KNBamX23xTvyt7LSJUeGv+mMj1k8ZlhpIqeUuOoKc3OTi7NdO7KTEs9KsdoGVAomK52cgulCqmEDi1VVeZmqLCvtMiPPZ3hpiVyTqX4xkbpovVVs38B2VzrP6XGwSouObMnrl3rk1tFVc5577rkoe5cAnU8fza8dVlo6JDMx4Q1nbLR1xPeGUx4TQj03SIpzstSCWfXq8UcfUZuf/qHatnmT2rppY5cZeT7P/Ohptf77j6rVyx9Ui+bMVjcPq1DOhFgV3jNAhd9w/UUHEc82hljFzEl2qLIb835TM+6miXp//Iu9a4DOdfTo0dA7am6bnZkY/751I8EOo4yEMy64typyZaj7vrlIvX74t+rcuXPq/HmZ811y5PmdPXNWvf/ee2qLLt+MOyZbBwrPKabnhs9F2xkeal3D6e1vLc3P3drU1JTx8svua+3dA3Se/fv3u+bW163NSU36yPemiGdVC9I/B6tpt9eowwcPqpaWz/SB33/85dgx9cbrr6mNT61XU267RWU64q3T4URru/6+wslIGQuzMv6nbvIkd9OSJSn27gE6z4s7d5YsnF2/Ic+Zety3bFI0WQXkrt3yZY3q4+ZmO8L+59Spk+qFX/5SzZ1Rp1xJCSo6sOfn2+ktnGyrKynx3JDCAW/eMWFsjf7PAuxdBHSOvbt3F+myre+fnvIX37LJ3Uf5uSg7S61Z8ZA6dfKkJ7l+quWzz9S+f3tJ1d4y3nq3iWyfZ+W2Tyf1JOvpFxf9SUVR4fpvL3fn6//sGns3AVduz65dhQtmzXiivbKV5OaotatWqhPHj3tS68eam09bN1PGVJRbLw1E65HTR2/ZpHzye1FO1h9vHTu6acuWLbx5GZ3ni8pWnOOyVrbuUDbxvx98oL7d9C2lr1H/30sDciopr9nl6n83uDD/NXlL1xOrVvW2dxVwZb5qZWttbbVOJ2dNneK5ftOrm3WH0l7dZOR0sn966unqUZXbG2bPKLd3FXBlvmplE389cULt2LZFjSwbqCJ6ff2iazfZZvldXsC/MaPfsZuGVTS++OyzYfbuAjruq1g28Yf//r361n13q3xnmoqTd5vo8RbOKp292pXkZr80f8aMiW+//fYN9i4DOuZyyyarQXciL34fPviqaqifbt0UiQz8+kVl874Wp8v4t6ohZT9tvOvObHuXAR1zOWWTu5HNfvw62z/y8x3bVVX5IJUU6bkb6d1+61GXUD44m+dM+1Nl2cCGvLw87k6i4y6nbKsfWq4++vBDdebMGXX69Cl1+pQeefTjaT59Wn38cbM6+JsDaumCefr6LF3F9L30pwRSoiP+lpee+kJVeVntKrc7bs2aB2PlkengrHLHPbxqVZx76dKYcePGhd05bVrQoV27AvWxr3u/Ta69snlvGsi7/O9ZvMi6g3dg36/Vz3b8RD37k23Woz+PrGjP/+yn6sfPbFbL7lqiBuX3t8rme7NExi5fqysp4bQu268XzJn5yNIFDWsXzp25junY3Dln1iOL58/53sxvTP7OyMGDFo+rGjHzgfvuvm3XrudyW1tbe9rR7H7aK5v3CC+nUWOGDrGubeZOr1M1425WE8eOsR79eSaN94y8Z7J69EiVl55mreZtVzbZH/JSgDM+RhW5Mlv0Keex0RXlH8oj07EZNaTs2Oihg48PLSn4QO/3/xiQ6Tw0bGDRnuGDip8aM3TwXdNqa6u2bt0abke0+2ivbL4jL/SmyodF7Q9odqfxbpv83Ha7fUcK5/1bpnNG9qf9/6FVzwVHROg5fbp+8qZhFb+aPmVy/eLFc+J1RLvPR56+qGzyu3zMJiqwpzUxfXp1q4nWI7f9L3Wt5juyH+RvZB8xnTPWHV+9X7371vulTLpwn5YX3PjWiLKS5VlpCWl2VP3f5axsDGNqvAXMSXGoQlfGH0rzsh+qvqnSacfVv32Zsn1+dNc7hGE6Y6wVzSdz8rP396ykBFWcm/XBzSOH3rtp0w/kXTz+/R0xX6Zs8u/ljp28n5BhOmOsO8A6V7458x7U5RP0ruREpU8p906puXVsXV1dLzu2/umLyiYXsPKtWnK9Jhe0+c5+qiTXpQb2z5a3MjFMh8aTH5eVJ8mV5Ety5nujSgonj/kZqR+OGFTyg5lTpiTYsfVPl3ODRL6PUe4eyUsASxY0qIfcy9TKpgfUigfuZ5gOjeRHciR5klxJviRnvvnz/uxKir9Q4Mp4ta6mpsiOrX/6R2WTc+pIfcTJT0+zvq3q5zt2WN/p8e7v/lP917vvqHff+R3DdGis/OgcSZ4kV5IvyZnkTXLnzaCsdPINaK6khPdvGz160oEDB/z3VLK9ssmjbLQs7bW3TFCvvvKKOn/hgucNhUAnklxJviRnni8CvvigLy8JZDni/3RHdXXjK3v3Ouzo+p/2yua9UyTvrHhwWaM69uc/27sG6HySL8mZ5M17x/vzg77OZW5a0rF50+q+t2fnznw7uv6nvbJ534hcmper1q3+jvXGXeBqkXxJziRvkjvJn2/Z5NvfFs6pf+qlF14otqPrf76obPKu/++uXNHtPs+GrkXyJTmTvF2qbJJPyank1Y6u/7mcsnXHT2qja5F8Sc4oG2XDVUbZKBsMoWyUDYZQNsoGQygbZYMhlI2ywRDKRtlgCGWjbDCEslE2GELZKBsMoWyUDYZQNsoGQygbZYMhlI2ywRDKRtlgCGWjbDCEslE2GELZKBsMoWyUDYZQNsoGQygbZYMhlI2ywRDKRtlgCGWjbDCEslE2GELZKBsMoWyUDYZQNsoGQygbZYMhlI2ywRDKRtlgCGWjbDCEslE2GELZKBsMoWyUDYZQNsoGQygbZYMhlI2ywRDKRtlgCGWjbDCEslE2GELZKBsMoWyUDYZQNsoGQygbZYMhlI2ywRDKRtlgCGWjbDCEslE2GELZKBsMoWyUDYZQNsoGQygbZYMhlI2ywRDKRtlgCGWjbDCEslE2GELZKBsMoWyUDYZQNsoGQygbZYMhlI2ywRDKRtlgCGWjbDCEslE2GELZKBsMoWyUDYZQNsoGQygbZYMhlI2ywRDKRtlgCGWjbDCEslE2GELZKBsMoWyUDYZQNsoGQygbZYMhlI2ywRDKRtlgCGWjbDCEslE2GELZKBsMoWyUDYZQNsoGQygbZYMhlI2ywRDKRtlgCGWjbDCEslE2GELZKBsMoWyUDYZQNsoGQygbZYMhlI2ywRDKRtlgCGWjbDCEslE2GELZKBsMoWz655LcHLV21UrKhqtK8iU5k7x127Lt3b27aOHs+vXtla0oO8s64pw6edLeLUDnk3xJziRv7ZVNcip5taPrf17cubNEb8SGPGfqcd+yJYQGqcSwYJWdnKiWL2tUHzc327sF6HySL8mZ5E1yJ/nzLZvkU3IqebWj63/279/vmltftzYnNekj37JZG2ltcLCadnuNOnzwoGppabF3DdB5Wlo+s/IlOZO8Se4uyqHOpeRTcip5taPrf5qPHg2trbl1TmZi/PtJ9gZ6R44wccG99dKeqRqXLFavHz6szp07p86fP68uXNCjH+Vnhvmy8/fsnFP//tphK1+SM8mb5M43h5JLyafkVPJqR9f/6APLtcNKS4dkJia84YyNVsmRYW1WN8+5c3FOlppd9w21bs1qtXHDk+rHz2xW2zZtVFsZpgOzbfMmtfnpH6rHH31ELZhVb+VLSiV58+ZPRvKYHhOlMhLi3pCcSl7t6Pqnwtzc5OJs147spMSzsqFtjyzWObReyhNCg5VLn1NXFA1Qo4YMViMHD1KVZaUM86WnqrxMDRtYrAqynKpfbJSdL891mm/uHBEhqn9aytlB+f13lBUWJtuR9V9za2uDq0dVLtQbfsR3ZfOO/C53h2L6Bqq4oD7WP0uNjlApUeEM07HR+ZGsScHigvt8fvfbN3dStmT9t4ML8o/Mmjpl4YoVK4LtyPqvXevWXdcwc6azqrz04QGZzjPpcdHWkabtxnt3gOwY2UEMcyUTr8f3Zoh35HfJX7pe8QZkOT+dUFX58GPr1jnfa229zo6s/6ufPLFy/MgRuwuznJ+k6SOPQxfLWsovsTMYpjOmba6svOmR/EkOJY+SSzui3Yfb7Q68e9H80ROqhu8scmW0yHIvR5i2dykZ5qqMzpnkTXIn+ZMcSh7dDQ2BdkS7F6VUwLz6urHjq0ZuqCgpeEtfx32a5YhXyfpC1REerHdEmGf0+TbDXNHYWZJcSb4kZ5I3yZ3kT3IoebSj2T1t3779mo0bn0xvarxncc3YMc8XuJzvOONjjukL2uN6qT8ho49CDHNF482S5EryJTmTvEnuJH+SQzuS3d++fftiG2ZNL6weVTlu6qSJ8yuKChodYUHuhJAgtyMi5H6GuZKxcqTzJLmSfEnOJG+SOzuCX02tra29fvWLX0RH9g2IiwwIiEuK6hvLMFcykiPJk+RK8mVHDQAAAAAAAAAAAAAAAAAAAAAAAAAAAAAAAAAAAAAAAAAAAAAAAAAAAAAAAAAu0qPH/wHuZytPzU9dPAAAAABJRU5ErkJggg==;" parent="1" vertex="1">
                    <mxGeometry x="120" y="360" width="40.18" height="40" as="geometry"/>
                </mxCell>
                <mxCell id="39" value="AaaSubSystem.IntegrationTests" style="text;html=1;strokeColor=none;fillColor=none;align=left;verticalAlign=middle;whiteSpace=wrap;rounded=0;fontFamily=Noto Sans JP;fontSource=https%3A%2F%2Ffonts.googleapis.com%2Fcss%3Ffamily%3DNoto%2BSans%2BJP;fontSize=18;fontColor=#000000;" parent="1" vertex="1">
                    <mxGeometry x="169.82" y="360" width="280" height="40" as="geometry"/>
                </mxCell>
                <mxCell id="44" style="edgeStyle=orthogonalEdgeStyle;html=1;fontFamily=Noto Sans JP;fontSource=https%3A%2F%2Ffonts.googleapis.com%2Fcss%3Ffamily%3DNoto%2BSans%2BJP;fontSize=18;endArrow=none;endFill=0;rounded=0;strokeColor=#000000;entryX=0;entryY=0.5;entryDx=0;entryDy=0;" parent="1" target="36" edge="1">
                    <mxGeometry relative="1" as="geometry">
                        <mxPoint x="99.82" y="340" as="sourcePoint"/>
                        <mxPoint x="129.99999999999994" y="430" as="targetPoint"/>
                    </mxGeometry>
                </mxCell>
                <mxCell id="45" style="edgeStyle=orthogonalEdgeStyle;html=1;fontFamily=Noto Sans JP;fontSource=https%3A%2F%2Ffonts.googleapis.com%2Fcss%3Ffamily%3DNoto%2BSans%2BJP;fontSize=18;endArrow=none;endFill=0;rounded=0;strokeColor=#000000;entryX=0;entryY=0.5;entryDx=0;entryDy=0;exitX=0.5;exitY=1;exitDx=0;exitDy=0;" parent="1" source="17" target="38" edge="1">
                    <mxGeometry relative="1" as="geometry">
                        <mxPoint x="99.82" y="380" as="sourcePoint"/>
                        <mxPoint x="129.99999999999994" y="350" as="targetPoint"/>
                    </mxGeometry>
                </mxCell>
            </root>
        </mxGraphModel>
    </diagram>
</mxfile>